<svg xmlns="http://www.w3.org/2000/svg" xmlns:xlink="http://www.w3.org/1999/xlink" viewBox="0 0 770 204"><defs><style>.cls-1{fill:#f0b90b;}.cls-2{fill:none;}</style><symbol id="New_Symbol_2" data-name="New Symbol 2" viewBox="0 0 686.33 112.14"><path class="cls-1" d="M25.32,56.07,12.66,68.73,0,56.07,12.66,43.41ZM56.07,25.32,77.77,47,90.43,34.36l-21.7-21.7L56.07,0,43.41,12.66,21.7,34.36,34.36,47ZM99.48,43.41,86.82,56.07,99.48,68.73l12.66-12.66ZM56.07,86.82,34.36,65.11,21.7,77.77,43.41,99.48l12.66,12.66L68.73,99.48l21.7-21.71L77.77,65.11Zm0-18.09L68.73,56.07,56.07,43.41,43.41,56.07ZM166.71,86.82H137.46V25.32H166c12.56,0,20.29,6.24,20.29,15.9v.18c0,6.94-3.69,10.8-8.08,13.26,7.12,2.73,11.51,6.86,11.51,15.11V70C189.73,81.19,180.59,86.82,166.71,86.82Zm6.15-43.31c0-4-3.16-6.33-8.87-6.33H150.64v13h12.47c6,0,9.75-1.93,9.75-6.5Zm3.43,24.59c0-4.12-3.08-6.67-10-6.67H150.64V75h16.07c6,0,9.58-2.11,9.58-6.68Zm28.28,18.72V25.32H218.1v61.5Zm74.75,0-29.79-39.1v39.1H236.18V25.32h12.48l28.81,37.86V25.32h13.35v61.5Zm72.3,0L346,73H320l-5.62,13.8H300.58l26.36-61.94h12.47l26.35,61.94ZM333,41.13l-8.17,19.95h16.34Zm85.74,45.69L389,47.72v39.1H375.61V25.32h12.47L416.9,63.18V25.32h13.35v61.5Zm56.14,1.05c-18.09,0-31.54-14-31.54-31.63v-.17c0-17.48,13.18-31.8,32.07-31.8,11.6,0,18.54,3.86,24.25,9.48l-8.61,9.93c-4.75-4.3-9.58-6.94-15.73-6.94-10.36,0-17.83,8.61-17.83,19.15v.18c0,10.54,7.29,19.33,17.83,19.33,7,0,11.34-2.81,16.17-7.21l8.61,8.7C493.77,83.65,486.74,87.87,474.88,87.87ZM511,86.82V25.32h46.39v12h-33V49.83h29v12h-29V74.78h33.39v12ZM618.44,90v10.14h-52.8V90ZM686.33,33.3l-9-9L654.49,47.12,631.83,24.44l-9,9,22.66,22.69L623,78.68l9,9L654.49,65.2l22.66,22.67,9-9L663.52,56.14Z"/></symbol></defs><title>X-long</title><g id="content"><use width="686.33" height="112.14" transform="translate(37.1 45.7)" xlink:href="#New_Symbol_2"/><rect class="cls-2" width="770" height="204"/></g></svg>