<svg id="Icons" xmlns="http://www.w3.org/2000/svg" xmlns:xlink="http://www.w3.org/1999/xlink" viewBox="0 0 64 64"><defs><style>.cls-1,.cls-5{fill:none;}.cls-1{stroke:gray;stroke-miterlimit:10;stroke-width:0.25px;}.cls-2{fill:url(#Dégradé_sans_nom_2);}.cls-3{fill:url(#Dégradé_sans_nom_2-2);}.cls-4{fill:#d7d7d7;}</style><linearGradient id="Dégradé_sans_nom_2" x1="23.07" y1="39.73" x2="43.72" y2="19.09" gradientUnits="userSpaceOnUse"><stop offset="0" stop-color="#f8b700"/><stop offset="0.99" stop-color="#ffd900"/></linearGradient><linearGradient id="Dégradé_sans_nom_2-2" x1="45.15" y1="43.71" x2="48.93" y2="39.93" xlink:href="#Dégradé_sans_nom_2"/></defs><title>Africa Initiative - 56x56 - dark bg</title><rect class="cls-1" width="64" height="64"/><path class="cls-2" d="M38.15,49.48H32.82V45.66l-3.06-3.07V37.45L27.26,35V32.75H18.94l-3.17-3.17V22.22L22,16h5.47l2.63,2.63h1.83V17h5.79l6.65,6.64h3.87v5l-4,4,.82.81v3.16l-1.78,1.78v6ZM35.32,47h1.79l3.67-3.67v-6l1.78-1.77V34.49L40.7,32.64l5-5V26.1H43.32l-6.64-6.64H34.42v1.66H29.06l-2.63-2.63H23l-4.76,4.76v5.29L20,30.25h9.79v3.67l2.5,2.5v5.14l3.06,3.06Z"/><rect class="cls-3" x="45.79" y="39.3" width="2.5" height="5.05"/><path class="cls-4" d="M30.61,60c-.86-.05-1.72-.13-2.56-.25l.35-2.47c.77.11,1.55.18,2.33.22Z"/><path class="cls-4" d="M33.7,59.94l-.15-2.5c.78,0,1.57-.13,2.33-.24l.38,2.47C35.42,59.8,34.56,59.89,33.7,59.94Z"/><path class="cls-4" d="M25,59.11c-.83-.21-1.66-.47-2.47-.75L23.4,56a21.49,21.49,0,0,0,2.24.69Z"/><path class="cls-4" d="M39.29,59l-.65-2.41a22.26,22.26,0,0,0,2.23-.72l.87,2.35C40.94,58.55,40.11,58.81,39.29,59Z"/><path class="cls-4" d="M19.7,57.15c-.76-.37-1.52-.79-2.26-1.24l1.31-2.13c.66.4,1.35.78,2.05,1.13Z"/><path class="cls-4" d="M44.58,57l-1.13-2.23c.7-.35,1.39-.74,2-1.15l1.32,2.12C46.1,56.2,45.34,56.63,44.58,57Z"/><path class="cls-4" d="M14.9,54.16c-.68-.52-1.34-1.08-2-1.67l1.71-1.83c.57.53,1.17,1.05,1.79,1.52Z"/><path class="cls-4" d="M49.35,54,47.8,52c.61-.49,1.2-1,1.77-1.54l1.72,1.81C50.67,52.87,50,53.44,49.35,54Z"/><path class="cls-4" d="M10.79,50.26c-.56-.64-1.09-1.32-1.59-2l2-1.45c.46.63.95,1.26,1.45,1.84Z"/><path class="cls-4" d="M53.41,50,51.5,48.42c.5-.6,1-1.23,1.43-1.87L55,48C54.49,48.68,54,49.37,53.41,50Z"/><path class="cls-4" d="M7.55,45.63c-.42-.75-.81-1.53-1.16-2.31l2.29-1c.32.71.67,1.42,1.05,2.1Z"/><path class="cls-4" d="M56.61,45.35l-2.2-1.19c.37-.69.72-1.4,1-2.11l2.3,1C57.4,43.81,57,44.59,56.61,45.35Z"/><path class="cls-4" d="M5.3,40.43c-.26-.82-.48-1.66-.66-2.49l2.44-.53c.17.76.37,1.52.61,2.27Z"/><path class="cls-4" d="M58.79,40.13,56.4,39.4c.22-.75.42-1.51.57-2.27l2.45.5C59.25,38.46,59,39.31,58.79,40.13Z"/><path class="cls-4" d="M4.16,34.89C4.07,34,4,33.17,4,32.31l2.5,0c0,.78,0,1.57.13,2.34Z"/><path class="cls-4" d="M59.87,34.57l-2.49-.22c.07-.78.11-1.57.11-2.35v-.11H60V32C60,32.85,60,33.72,59.87,34.57Z"/><path class="cls-4" d="M6.63,29.47l-2.48-.24a23.72,23.72,0,0,1,.37-2.55L7,27.15C6.82,27.91,6.71,28.69,6.63,29.47Z"/><path class="cls-4" d="M57.32,29.08A22.66,22.66,0,0,0,57,26.77l2.45-.51c.17.83.31,1.69.41,2.54Z"/><path class="cls-4" d="M7.65,24.42l-2.38-.74c.25-.82.55-1.63.88-2.42l2.3,1C8.16,22.94,7.89,23.68,7.65,24.42Z"/><path class="cls-4" d="M56.23,24.05c-.25-.74-.53-1.48-.84-2.19l2.3-1c.33.78.64,1.59.91,2.41Z"/><path class="cls-4" d="M9.68,19.68,7.49,18.47c.41-.74.87-1.48,1.35-2.19l2.07,1.4C10.47,18.33,10.05,19,9.68,19.68Z"/><path class="cls-4" d="M54.13,19.34c-.39-.67-.81-1.34-1.26-2l2.05-1.43c.49.7,1,1.43,1.38,2.17Z"/><path class="cls-4" d="M12.62,15.44l-1.9-1.62c.56-.65,1.15-1.29,1.76-1.88l1.74,1.79C13.67,14.27,13.13,14.85,12.62,15.44Z"/><path class="cls-4" d="M51.13,15.15c-.51-.58-1.06-1.15-1.63-1.69l1.71-1.81c.63.59,1.23,1.21,1.79,1.85Z"/><path class="cls-4" d="M16.35,11.88l-1.54-2c.68-.53,1.38-1,2.1-1.49l1.35,2.11A22.74,22.74,0,0,0,16.35,11.88Z"/><path class="cls-4" d="M47.35,11.64c-.62-.46-1.27-.91-1.94-1.32l1.32-2.13c.73.46,1.44,1,2.12,1.46Z"/><path class="cls-4" d="M20.71,9.14,19.6,6.9c.77-.38,1.56-.73,2.36-1l.9,2.34C22.13,8.48,21.41,8.79,20.71,9.14Z"/><path class="cls-4" d="M42.94,9c-.71-.34-1.43-.64-2.16-.91l.86-2.35c.8.3,1.6.63,2.37,1Z"/><path class="cls-4" d="M25.54,7.34,24.9,4.92c.83-.22,1.68-.4,2.52-.54l.41,2.47A22.2,22.2,0,0,0,25.54,7.34Z"/><path class="cls-4" d="M38.08,7.24a22.25,22.25,0,0,0-2.3-.45l.37-2.47c.85.12,1.7.29,2.53.49Z"/><path class="cls-4" d="M30.63,6.55l-.13-2.5c.85,0,1.72,0,2.57,0L33,6.53C32.2,6.5,31.41,6.51,30.63,6.55Z"/><rect class="cls-5" width="64" height="64"/></svg>