<?xml version="1.0" encoding="UTF-8"?>
<svg width="768px" height="769px" viewBox="0 0 768 769" version="1.1" xmlns="http://www.w3.org/2000/svg" xmlns:xlink="http://www.w3.org/1999/xlink">
    <!-- Generator: Sketch 52.2 (67145) - http://www.bohemiancoding.com/sketch -->
    <title>bg</title>
    <desc>Created with Sketch.</desc>
    <defs>
        <path d="M11.8502289,0.142698795 L0.176108434,11.8219157 L35.2001687,46.8454096 L0.176108434,81.8756988 L11.8502289,93.549253 L58.5518072,46.8471084 L11.8502289,0.142698795 Z M93.5775663,11.8219157 L81.9028795,0.142698795 L55.2499157,26.8013253 L66.9234699,38.4754458 L93.5775663,11.8219157 Z M93.5775663,81.8756988 L81.9028795,93.549253 L55.2521807,66.8974217 L66.9251687,55.2182048 L93.5775663,81.8756988 Z" id="path-1"></path>
        <path d="M23.6582182,0.28721148 L0.0441,23.8414079 L70.8916091,94.4748761 L0.0441,165.119764 L23.6582182,188.662541 L118.127864,94.4777311 L23.6582182,0.28721148 Z M188.978809,23.8414079 L165.364118,0.28721148 L111.449291,54.051145 L135.063409,77.5939215 L188.978809,23.8414079 Z M188.978809,165.119764 L165.364118,188.662541 L111.4533,134.913453 L135.066845,111.359828 L188.978809,165.119764 Z" id="path-3"></path>
    </defs>
    <g id="页面1" stroke="none" stroke-width="1" fill="none" fill-rule="evenodd" opacity="0.400739397">
        <g id="编组-copy">
            <path d="M4,751.243019 L15.7575511,763 L42.5774878,736.160687 L30.8210765,724.421942 L4,751.243019 Z M59.4225122,736.178924 L86.2435887,763 L98,751.243019 L71.1800633,724.421942 L59.4225122,736.178924 Z M86.2435887,669 L59.4225122,695.820507 L71.1800633,707.577488 L98,680.756411 L98,680.738175 L86.2435887,669 Z M15.7575511,669 L42.5774878,695.820507 L30.8210765,707.577488 L4,680.756411 L4,680.738175 L15.7575511,669 Z" id="Fill-1" fill="#4D4D4D"></path>
            <path d="M116,751.243019 L127.756981,763 L154.577488,736.160687 L142.821076,724.421942 L116,751.243019 Z M171.422512,736.178924 L198.243589,763 L210,751.243019 L183.179493,724.421942 L171.422512,736.178924 Z M198.243589,669 L171.422512,695.820507 L183.179493,707.577488 L210,680.756411 L210,680.738175 L198.243589,669 Z M127.756981,669 L154.577488,695.820507 L142.821076,707.577488 L116,680.756411 L116,680.738175 L127.756981,669 Z" id="Fill-2" fill="#4D4D4D"></path>
            <path d="M14,399.361035 L37.3894551,423 L90.7445769,369.036585 L67.3568224,345.434288 L14,399.361035 Z M124.255423,369.073253 L177.612246,423 L201,399.361035 L147.644878,345.434288 L124.255423,369.073253 Z M177.612246,234 L124.255423,287.926747 L147.644878,311.565712 L201,257.638965 L201,257.602298 L177.612246,234 Z M37.3894551,234 L90.7445769,287.926747 L67.3568224,311.565712 L14,257.638965 L14,257.602298 L37.3894551,234 Z" id="Fill-3" fill="#4D4D4D"></path>
            <path d="M116,640.243019 L127.756981,652 L154.577488,625.160687 L142.821076,613.421942 L116,640.243019 Z M171.422512,625.178924 L198.243589,652 L210,640.243019 L183.179493,613.421942 L171.422512,625.178924 Z M198.243589,558 L171.422512,584.820507 L183.179493,596.577488 L210,569.756411 L210,569.738175 L198.243589,558 Z M127.756981,558 L154.577488,584.820507 L142.821076,596.577488 L116,569.756411 L116,569.738175 L127.756981,558 Z" id="Fill-4" fill="#4D4D4D"></path>
            <path d="M4,640.243019 L15.7575511,652 L42.5774878,625.160687 L30.8210765,613.421942 L4,640.243019 Z M59.4225122,625.178924 L86.2435887,652 L98,640.243019 L71.1800633,613.421942 L59.4225122,625.178924 Z M86.2435887,558 L59.4225122,584.820507 L71.1800633,596.577488 L98,569.756411 L98,569.738175 L86.2435887,558 Z M15.7575511,558 L42.5774878,584.820507 L30.8210765,596.577488 L4,569.756411 L4,569.738175 L15.7575511,558 Z" id="Fill-5" fill="#4D4D4D"></path>
            <polygon id="Fill-6" fill="#4D4D4D" points="60 515.56285 60 515.580813 86.4190155 542 98 530.419187 71.5804231 504"></polygon>
            <path d="M222,540.121509 L227.877921,546 L241.288744,532.580628 L235.410253,526.711256 L222,540.121509 Z M249.711256,532.589747 L263.121509,546 L269,540.121509 L255.589177,526.711256 L249.711256,532.589747 Z M263.121509,499 L249.711256,512.410253 L255.589177,518.288744 L269,504.878491 L269,504.869372 L263.121509,499 Z M227.877921,499 L241.288744,512.410253 L235.410253,518.288744 L222,504.878491 L222,504.869372 L227.877921,499 Z" id="Fill-7" fill="#4D4D4D"></path>
            <path d="M222,484.122008 L227.877921,490 L241.288744,476.581036 L235.410253,470.711592 L222,484.122008 Z M249.711256,476.589584 L263.121509,490 L269,484.122008 L255.589177,470.711592 L249.711256,476.589584 Z M263.121509,443 L249.711256,456.410416 L255.589177,462.288408 L269,448.878562 L269,448.869443 L263.121509,443 Z M227.877921,443 L241.288744,456.410416 L235.410253,462.288408 L222,448.878562 L222,448.869443 L227.877921,443 Z" id="Fill-8" fill="#4D4D4D"></path>
            <path d="M277,484.122008 L282.878419,490 L296.28908,476.581036 L290.410661,470.711592 L277,484.122008 Z M304.71092,476.589584 L318.121581,490 L324,484.122008 L310.589339,470.711592 L304.71092,476.589584 Z M318.121581,443 L304.71092,456.410416 L310.589339,462.288408 L324,448.878562 L324,448.869443 L318.121581,443 Z M282.878419,443 L296.28908,456.410416 L290.410661,462.288408 L277,448.878562 L277,448.869443 L282.878419,443 Z" id="Fill-9" fill="#4D4D4D"></path>
            <path d="M235,177.361536 L258.389384,201 L311.744911,147.036422 L288.357228,123.434626 L235,177.361536 Z M398.612316,12 L345.255089,65.9269107 L368.644473,89.5653745 L422,35.6384638 L422,35.6017964 L398.612316,12 Z M258.389384,12 L311.744911,65.9269107 L288.357228,89.5653745 L235,35.6384638 L235,35.6017964 L258.389384,12 Z" id="Fill-10" fill="#4D4D4D"></path>
            <path d="M305,207.121509 L310.877921,213 L324.288744,199.580628 L318.410253,193.711256 L305,207.121509 Z M332.711256,199.589747 L346.121509,213 L352,207.121509 L338.589177,193.711256 L332.711256,199.589747 Z M346.121509,166 L332.711256,179.410253 L338.589177,185.288744 L352,171.878491 L352,171.869372 L346.121509,166 Z M310.877921,166 L324.288744,179.410253 L318.410253,185.288744 L305,171.878491 L305,171.869372 L310.877921,166 Z" id="Fill-11" fill="#4D4D4D"></path>
            <path d="M333,180.122008 L338.878491,186 L352.288744,172.581036 L346.410253,166.711592 L333,180.122008 Z M360.711256,172.590154 L374.121509,186 L380,180.122008 L366.589747,166.711592 L360.711256,172.590154 Z M374.121509,139 L360.711256,152.410416 L366.589747,158.288408 L380,144.878562 L380,144.869443 L374.121509,139 Z M338.878491,139 L352.288744,152.410416 L346.410253,158.288408 L333,144.878562 L333,144.869443 L338.878491,139 Z" id="Fill-12" fill="#4D4D4D"></path>
            <path d="M388,199.589747 L401.904745,213 L408,207.121509 L394.095255,193.711256 L388,199.589747 Z M401.904745,166 L388,179.410253 L394.095255,185.288744 L408,171.878491 L408,171.869372 L401.904745,166 Z" id="Fill-13" fill="#4D4D4D"></path>
            <path d="M388,143.589747 L401.904745,157 L408,151.121509 L394.095255,137.711256 L388,143.589747 Z M401.904745,110 L388,123.410253 L394.095255,129.288744 L408,115.878491 L408,115.869372 L401.904745,110 Z" id="Fill-14" fill="#4D4D4D"></path>
            <path d="M416,116.589747 L429.904925,130 L436,124.121509 L422.095075,110.711256 L416,116.589747 Z M429.904925,83 L416,96.4102533 L422.095075,102.288744 L436,88.8784906 L436,88.8693723 L429.904925,83 Z" id="Fill-15" fill="#4D4D4D"></path>
            <path d="M201,35.6384638 L177.610545,12 L124.255423,65.9630052 L147.643178,89.5653745 L201,35.6384638 Z M37.3877545,201 L90.7445769,147.073089 L67.3551218,123.434626 L14,177.360963 L14,177.397631 L37.3877545,201 Z M177.610545,201 L124.255423,147.073089 L147.643178,123.434626 L201,177.360963 L201,177.397631 L177.610545,201 Z" id="Fill-16" fill="#4D4D4D"></path>
            <path d="M130,5.87849062 L124.121581,0 L110.71092,13.4193717 L116.589339,19.2887439 L130,5.87849062 Z M102.28908,13.4102533 L88.8784193,0 L83,5.87849062 L96.4106606,19.2887439 L102.28908,13.4102533 Z M88.8784193,47 L102.28908,33.5897467 L96.4106606,27.7112561 L83,41.1215094 L83,41.1306277 L88.8784193,47 Z M124.121581,47 L110.71092,33.5897467 L116.589339,27.7112561 L130,41.1215094 L130,41.1306277 L124.121581,47 Z" id="Fill-17" fill="#4D4D4D"></path>
            <path d="M103,32.8784906 L97.1220793,27 L83.7112561,40.4193717 L89.5897467,46.2887439 L103,32.8784906 Z M75.2887439,40.4102533 L61.8784906,27 L56,32.8784906 L69.4108232,46.2887439 L75.2887439,40.4102533 Z M61.8784906,74 L75.2887439,60.5897467 L69.4108232,54.7112561 L56,68.1215094 L56,68.1306277 L61.8784906,74 Z M97.1220793,74 L83.7112561,60.5897467 L89.5897467,54.7112561 L103,68.1215094 L103,68.1306277 L97.1220793,74 Z" id="Fill-18" fill="#4D4D4D"></path>
            <path d="M47,13.4104159 L33.095255,0 L27,5.877992 L40.9053359,19.2884079 L47,13.4104159 Z M33.095255,47 L47,33.5895841 L40.9053359,27.7115921 L27,41.122008 L27,41.1311265 L33.095255,47 Z" id="Fill-19" fill="#4D4D4D"></path>
            <path d="M47,69.4102533 L33.095255,56 L27,61.8779207 L40.9053359,75.2887439 L47,69.4102533 Z M33.095255,103 L47,89.5891768 L40.9053359,83.7112561 L27,97.1215094 L27,97.1306277 L33.095255,103 Z" id="Fill-20" fill="#4D4D4D"></path>
            <path d="M20,96.4102533 L6.0950749,83 L0,88.8784906 L13.9049251,102.288744 L20,96.4102533 Z M6.0950749,130 L20,116.589747 L13.9049251,110.711256 L0,124.121509 L0,124.130628 L6.0950749,130 Z" id="Fill-21" fill="#4D4D4D"></path>
            <path d="M540.121509,768 L546,762.122079 L532.580628,748.711256 L526.711256,754.589747 L540.121509,768 Z M532.589747,740.288744 L546,726.878491 L540.121509,721 L526.711256,734.410823 L532.589747,740.288744 Z M499,726.878491 L512.410253,740.288744 L518.288744,734.410823 L504.878491,721 L504.869372,721 L499,726.878491 Z M499,762.122079 L512.410253,748.711256 L518.288744,754.589747 L504.878491,768 L504.869372,768 L499,762.122079 Z" id="Fill-22" fill="#4D4D4D"></path>
            <path d="M484.122008,768 L490,762.122079 L476.581036,748.711256 L470.711592,754.589747 L484.122008,768 Z M476.589584,740.288744 L490,726.878491 L484.122008,721 L470.711592,734.410823 L476.589584,740.288744 Z M443,726.878491 L456.410416,740.288744 L462.288408,734.410823 L448.877992,721 L448.869443,721 L443,726.878491 Z M443,762.122079 L456.410416,748.711256 L462.288408,754.589747 L448.877992,768 L448.869443,768 L443,762.122079 Z" id="Fill-23" fill="#4D4D4D"></path>
            <path d="M540.121509,712 L546,706.121581 L532.580628,692.71092 L526.711256,698.589339 L540.121509,712 Z M532.589747,684.28908 L546,670.878419 L540.121509,665 L526.711256,678.410661 L532.589747,684.28908 Z M499,670.878419 L512.410253,684.28908 L518.288744,678.410661 L504.878491,665 L504.869372,665 L499,670.878419 Z M499,706.121581 L512.410253,692.71092 L518.288744,698.589339 L504.878491,712 L504.869372,712 L499,706.121581 Z" id="Fill-24" fill="#4D4D4D"></path>
            <path d="M487.122533,713 L491,709.122533 L482.148979,700.277714 L478.27715,704.154617 L487.122533,713 Z M482.154617,694.722286 L491,685.877467 L487.122533,682 L478.27715,690.844819 L482.154617,694.722286 Z M460,685.877467 L468.844819,694.722286 L472.722286,690.844819 L463.876903,682 L463.871265,682 L460,685.877467 Z M460,709.122533 L468.844819,700.277714 L472.722286,704.154617 L463.876903,713 L463.871265,713 L460,709.122533 Z" id="Fill-25" fill="#4D4D4D"></path>
            <path d="M469.123027,695 L473,691.122533 L464.148818,682.277714 L460.277483,686.154617 L469.123027,695 Z M464.154456,676.722286 L473,667.877467 L469.123027,664 L460.277483,672.844819 L464.154456,676.722286 Z M442,667.877467 L450.84498,676.722286 L454.722517,672.844819 L445.876973,664 L445.871335,664 L442,667.877467 Z M442,691.122533 L450.84498,682.277714 L454.722517,686.154617 L445.876973,695 L445.871335,695 L442,691.122533 Z" id="Fill-26" fill="#4D4D4D"></path>
            <polygon id="Fill-27" fill="#4D4D4D" points="142.419577 504 116 530.419577 127.580984 542 154 515.580984 154 515.563021"></polygon>
            <path d="M171.878491,443 L166,448.878491 L179.419372,462.288744 L185.288744,456.410823 L171.878491,443 Z M179.410253,470.711256 L166,484.121509 L171.878491,490 L185.288744,476.589747 L179.410253,470.711256 Z M213,484.121509 L199.589747,470.711256 L193.711256,476.589747 L207.121509,490 L207.130628,490 L213,484.121509 Z M213,448.878491 L199.589747,462.288744 L193.711256,456.410823 L207.121509,443 L207.130628,443 L213,448.878491 Z" id="Fill-28" fill="#4D4D4D"></path>
            <polygon id="Fill-29" fill="#4D4D4D" points="159 484.905156 145.095075 471 139 477.095435 152.904925 491 152.913789 491"></polygon>
            <path d="M187.877467,516 L184,519.877537 L192.851021,528.721953 L196.72285,524.845544 L187.877467,516 Z M192.845383,534.277483 L184,543.123027 L187.877467,547 L196.72285,538.15502 L192.845383,534.277483 Z M215,543.123027 L206.154617,534.277483 L202.277714,538.15502 L211.123097,547 L211.128735,547 L215,543.123027 Z M215,519.877537 L206.154617,528.721953 L202.277714,524.845544 L211.123097,516 L211.128735,516 L215,519.877537 Z" id="Fill-30" fill="#4D4D4D"></path>
            <path d="M168.877467,497 L165,500.876973 L173.851021,509.721953 L177.72285,505.845544 L168.877467,497 Z M173.845383,515.277483 L165,524.123027 L168.877467,528 L177.72285,519.15502 L173.845383,515.277483 Z M196,524.123027 L187.154617,515.277483 L183.277714,519.15502 L192.123097,528 L192.128172,528 L196,524.123027 Z M196,500.876973 L187.154617,509.721953 L183.277714,505.845544 L192.123097,497 L192.128172,497 L196,500.876973 Z" id="Fill-31" fill="#4D4D4D"></path>
            <path d="M331,765.123027 L334.877537,769 L343.721953,760.149382 L339.845544,756.277483 L331,765.123027 Z M349.277483,760.154456 L358.123027,769 L362,765.123027 L353.15502,756.277483 L349.277483,760.154456 Z M358.123027,738 L349.277483,746.84498 L353.15502,750.722517 L362,741.876973 L362,741.871335 L358.123027,738 Z M334.877537,738 L343.721953,746.84498 L339.845544,750.722517 L331,741.876973 L331,741.871335 L334.877537,738 Z" id="Fill-32" fill="#4D4D4D"></path>
            <path d="M369,765.123027 L372.877537,769 L381.722517,760.149382 L377.845544,756.277483 L369,765.123027 Z M387.278047,760.154456 L396.123027,769 L400,765.123027 L391.155584,756.277483 L387.278047,760.154456 Z M396.123027,738 L387.278047,746.84498 L391.155584,750.722517 L400,741.876973 L400,741.871335 L396.123027,738 Z M372.877537,738 L381.722517,746.84498 L377.845544,750.722517 L369,741.876973 L369,741.871335 L372.877537,738 Z" id="Fill-33" fill="#4D4D4D"></path>
            <path d="M331,728.123027 L334.877537,732 L343.721953,723.148818 L339.845544,719.277483 L331,728.123027 Z M349.277483,723.154456 L358.123027,732 L362,728.123027 L353.15502,719.277483 L349.277483,723.154456 Z M358.123027,701 L349.277483,709.84498 L353.15502,713.721953 L362,704.87641 L362,704.871335 L358.123027,701 Z M334.877537,701 L343.721953,709.84498 L339.845544,713.721953 L331,704.87641 L331,704.871335 L334.877537,701 Z" id="Fill-34" fill="#4D4D4D"></path>
            <path d="M369,728.123027 L372.877537,732 L381.722517,723.148818 L377.845544,719.277483 L369,728.123027 Z M387.278047,723.154456 L396.123027,732 L400,728.123027 L391.155584,719.277483 L387.278047,723.154456 Z M396.123027,701 L387.278047,709.84498 L391.155584,713.721953 L400,704.87641 L400,704.871335 L396.123027,701 Z M372.877537,701 L381.722517,709.84498 L377.845544,713.721953 L369,704.87641 L369,704.871335 L372.877537,701 Z" id="Fill-35" fill="#4D4D4D"></path>
            <path d="M406,765.123027 L409.876973,769 L418.721953,760.149382 L414.845544,756.277483 L406,765.123027 Z M424.277483,760.154456 L433.123027,769 L437,765.123027 L428.15502,756.277483 L424.277483,760.154456 Z M433.123027,738 L424.277483,746.84498 L428.15502,750.722517 L437,741.876973 L437,741.871335 L433.123027,738 Z M409.876973,738 L418.721953,746.84498 L414.845544,750.722517 L406,741.876973 L406,741.871335 L409.876973,738 Z" id="Fill-36" fill="#4D4D4D"></path>
            <path d="M406,728.123027 L409.876973,732 L418.721953,723.148818 L414.845544,719.277483 L406,728.123027 Z M424.277483,723.154456 L433.123027,732 L437,728.123027 L428.15502,719.277483 L424.277483,723.154456 Z M433.123027,701 L424.277483,709.84498 L428.15502,713.721953 L437,704.87641 L437,704.871335 L433.123027,701 Z M409.876973,701 L418.721953,709.84498 L414.845544,713.721953 L406,704.87641 L406,704.871335 L409.876973,701 Z" id="Fill-37" fill="#4D4D4D"></path>
            <path d="M331,691.122533 L334.877537,695 L343.721953,686.148979 L339.845544,682.27715 L331,691.122533 Z M349.277483,686.154617 L358.123027,695 L362,691.122533 L353.15502,682.27715 L349.277483,686.154617 Z M358.123027,664 L349.277483,672.844819 L353.15502,676.722286 L362,667.876903 L362,667.871265 L358.123027,664 Z M334.877537,664 L343.721953,672.844819 L339.845544,676.722286 L331,667.876903 L331,667.871265 L334.877537,664 Z" id="Fill-38" fill="#4D4D4D"></path>
            <path d="M369,691.122533 L372.877537,695 L381.722517,686.148979 L377.845544,682.27715 L369,691.122533 Z M387.278047,686.154617 L396.123027,695 L400,691.122533 L391.155584,682.27715 L387.278047,686.154617 Z M396.123027,664 L387.278047,672.844819 L391.155584,676.722286 L400,667.876903 L400,667.871265 L396.123027,664 Z M372.877537,664 L381.722517,672.844819 L377.845544,676.722286 L369,667.876903 L369,667.871265 L372.877537,664 Z" id="Fill-39" fill="#4D4D4D"></path>
            <path d="M406,691.122533 L409.876973,695 L418.721953,686.148979 L414.845544,682.27715 L406,691.122533 Z M424.277483,686.154617 L433.123027,695 L437,691.122533 L428.15502,682.27715 L424.277483,686.154617 Z M433.123027,664 L424.277483,672.844819 L428.15502,676.722286 L437,667.876903 L437,667.871265 L433.123027,664 Z M409.876973,664 L418.721953,672.844819 L414.845544,676.722286 L406,667.876903 L406,667.871265 L409.876973,664 Z" id="Fill-40" fill="#4D4D4D"></path>
            <path d="M591,433.123027 L594.877467,437 L603.722286,428.148818 L599.845383,424.277483 L591,433.123027 Z M609.277714,428.15502 L618.122533,437 L622,433.123027 L613.155181,424.277483 L609.277714,428.15502 Z M618.122533,406 L609.277714,414.84498 L613.155181,418.722517 L622,409.876973 L622,409.871335 L618.122533,406 Z M594.877467,406 L603.722286,414.84498 L599.845383,418.722517 L591,409.876973 L591,409.871335 L594.877467,406 Z" id="Fill-41" fill="#4D4D4D"></path>
            <path d="M553,395.123027 L556.877537,399 L565.722517,390.149382 L561.845544,386.277483 L553,395.123027 Z M571.278047,390.15502 L580.123027,399 L584,395.123027 L575.155584,386.277483 L571.278047,390.15502 Z M580.123027,368 L571.278047,376.84498 L575.155584,380.722517 L584,371.876973 L584,371.871335 L580.123027,368 Z M556.877537,368 L565.722517,376.84498 L561.845544,380.722517 L553,371.876973 L553,371.871335 L556.877537,368 Z" id="Fill-42" fill="#4D4D4D"></path>
            <path d="M591,395.123027 L594.877467,399 L603.722286,390.149382 L599.845383,386.277483 L591,395.123027 Z M609.277714,390.15502 L618.122533,399 L622,395.123027 L613.155181,386.277483 L609.277714,390.15502 Z M618.122533,368 L609.277714,376.84498 L613.155181,380.722517 L622,371.876973 L622,371.871335 L618.122533,368 Z M594.877467,368 L603.722286,376.84498 L599.845383,380.722517 L591,371.876973 L591,371.871335 L594.877467,368 Z" id="Fill-43" fill="#4D4D4D"></path>
            <path d="M627,433.123027 L630.877537,437 L639.721953,428.148818 L635.845544,424.277483 L627,433.123027 Z M645.277483,428.15502 L654.123027,437 L658,433.123027 L649.15502,424.277483 L645.277483,428.15502 Z M654.123027,406 L645.277483,414.84498 L649.15502,418.722517 L658,409.876973 L658,409.871335 L654.123027,406 Z M630.877537,406 L639.721953,414.84498 L635.845544,418.722517 L627,409.876973 L627,409.871335 L630.877537,406 Z" id="Fill-44" fill="#4D4D4D"></path>
            <path d="M627,395.123027 L630.877537,399 L639.721953,390.149382 L635.845544,386.277483 L627,395.123027 Z M645.277483,390.15502 L654.123027,399 L658,395.123027 L649.15502,386.277483 L645.277483,390.15502 Z M654.123027,368 L645.277483,376.84498 L649.15502,380.722517 L658,371.876973 L658,371.871335 L654.123027,368 Z M630.877537,368 L639.721953,376.84498 L635.845544,380.722517 L627,371.876973 L627,371.871335 L630.877537,368 Z" id="Fill-45" fill="#4D4D4D"></path>
            <path d="M553,358.123027 L556.877537,362 L565.722517,353.148818 L561.845544,349.277483 L553,358.123027 Z M571.278047,353.15502 L580.123027,362 L584,358.123027 L575.155584,349.277483 L571.278047,353.15502 Z M580.123027,331 L571.278047,339.84498 L575.155584,343.721953 L584,334.876973 L584,334.871335 L580.123027,331 Z M556.877537,331 L565.722517,339.84498 L561.845544,343.721953 L553,334.876973 L553,334.871335 L556.877537,331 Z" id="Fill-46" fill="#4D4D4D"></path>
            <path d="M591,358.123027 L594.877467,362 L603.722286,353.148818 L599.845383,349.277483 L591,358.123027 Z M609.277714,353.15502 L618.122533,362 L622,358.123027 L613.155181,349.277483 L609.277714,353.15502 Z M618.122533,331 L609.277714,339.84498 L613.155181,343.721953 L622,334.876973 L622,334.871335 L618.122533,331 Z M594.877467,331 L603.722286,339.84498 L599.845383,343.721953 L591,334.876973 L591,334.871335 L594.877467,331 Z" id="Fill-47" fill="#4D4D4D"></path>
            <path d="M627,358.123027 L630.877537,362 L639.721953,353.148818 L635.845544,349.277483 L627,358.123027 Z M645.277483,353.15502 L654.123027,362 L658,358.123027 L649.15502,349.277483 L645.277483,353.15502 Z M654.123027,331 L645.277483,339.84498 L649.15502,343.721953 L658,334.876973 L658,334.871335 L654.123027,331 Z M630.877537,331 L639.721953,339.84498 L635.845544,343.721953 L627,334.876973 L627,334.871335 L630.877537,331 Z" id="Fill-48" fill="#4D4D4D"></path>
            <path d="M654.123027,657 L658,653.122463 L649.148818,644.278047 L645.277483,648.154456 L654.123027,657 Z M649.154456,638.722517 L658,629.876973 L654.123027,626 L645.277483,634.84498 L649.154456,638.722517 Z M627,629.876973 L635.84498,638.722517 L639.722517,634.84498 L630.876973,626 L630.871335,626 L627,629.876973 Z M627,653.122463 L635.84498,644.278047 L639.722517,648.154456 L630.876973,657 L630.871335,657 L627,653.122463 Z" id="Fill-49" fill="#4D4D4D"></path>
            <path d="M618.122533,657 L622,653.122463 L613.148979,644.278047 L609.27715,648.154456 L618.122533,657 Z M613.154617,638.722517 L622,629.876973 L618.122533,626 L609.27715,634.84498 L613.154617,638.722517 Z M591,629.876973 L599.845383,638.722517 L603.722286,634.84498 L594.876903,626 L594.871265,626 L591,629.876973 Z M591,653.122463 L599.845383,644.278047 L603.722286,648.154456 L594.876903,657 L594.871265,657 L591,653.122463 Z" id="Fill-50" fill="#4D4D4D"></path>
            <path d="M618.122533,621 L622,617.122463 L613.148979,608.277483 L609.27715,612.154456 L618.122533,621 Z M613.154617,602.721953 L622,593.876973 L618.122533,590 L609.27715,598.844416 L613.154617,602.721953 Z M591,593.876973 L599.845383,602.721953 L603.722286,598.844416 L594.876903,590 L594.871265,590 L591,593.876973 Z M591,617.122463 L599.845383,608.277483 L603.722286,612.154456 L594.876903,621 L594.871265,621 L591,617.122463 Z" id="Fill-51" fill="#4D4D4D"></path>
            <path d="M635.122533,603 L639,599.122463 L630.148979,590.277483 L626.27715,594.154456 L635.122533,603 Z M630.154617,584.721953 L639,575.876973 L635.122533,572 L626.27715,580.844416 L630.154617,584.721953 Z M608,575.876973 L616.844819,584.721953 L620.722286,580.844416 L611.876903,572 L611.871265,572 L608,575.876973 Z M608,599.122463 L616.844819,590.277483 L620.722286,594.154456 L611.876903,603 L611.871265,603 L608,599.122463 Z" id="Fill-52" fill="#4D4D4D"></path>
            <path d="M580.122533,657 L584,653.122463 L575.148979,644.278047 L571.27715,648.154456 L580.122533,657 Z M575.154617,638.722517 L584,629.876973 L580.122533,626 L571.27715,634.84498 L575.154617,638.722517 Z M553,629.876973 L561.844819,638.722517 L565.722286,634.84498 L556.876903,626 L556.871265,626 L553,629.876973 Z M553,653.122463 L561.844819,644.278047 L565.722286,648.154456 L556.876903,657 L556.871265,657 L553,653.122463 Z" id="Fill-53" fill="#4D4D4D"></path>
            <path d="M580.122533,621 L584,617.122463 L575.148979,608.277483 L571.27715,612.154456 L580.122533,621 Z M575.154617,602.721953 L584,593.876973 L580.122533,590 L571.27715,598.844416 L575.154617,602.721953 Z M553,593.876973 L561.844819,602.721953 L565.722286,598.844416 L556.876903,590 L556.871265,590 L553,593.876973 Z M553,617.122463 L561.844819,608.277483 L565.722286,612.154456 L556.876903,621 L556.871265,621 L553,617.122463 Z" id="Fill-54" fill="#4D4D4D"></path>
            <path d="M580.122533,584 L584,580.123027 L575.148979,571.278047 L571.27715,575.154456 L580.122533,584 Z M575.154617,565.722517 L584,556.876973 L580.122533,553 L571.27715,561.84498 L575.154617,565.722517 Z M553,556.876973 L561.844819,565.722517 L565.722286,561.84498 L556.876903,553 L556.871265,553 L553,556.876973 Z M553,580.123027 L561.844819,571.278047 L565.722286,575.154456 L556.876903,584 L556.871265,584 L553,580.123027 Z" id="Fill-55" fill="#4D4D4D"></path>
            <path d="M222,650.122079 L227.877921,656 L241.288744,642.581198 L235.410253,636.711256 L222,650.122079 Z M249.711256,642.589747 L263.121509,656 L269,650.122079 L255.589177,636.711256 L249.711256,642.589747 Z M263.121509,609 L249.711256,622.410823 L255.589177,628.288744 L269,614.878491 L269,614.869942 L263.121509,609 Z M227.877921,609 L241.288744,622.410823 L235.410253,628.288744 L222,614.878491 L222,614.869942 L227.877921,609 Z" id="Fill-56" fill="#4D4D4D"></path>
            <path d="M277,650.122079 L282.878419,656 L296.28908,642.581198 L290.410661,636.711256 L277,650.122079 Z M304.71092,642.589747 L318.121581,656 L324,650.122079 L310.589339,636.711256 L304.71092,642.589747 Z M318.121581,609 L304.71092,622.410823 L310.589339,628.288744 L324,614.878491 L324,614.869942 L318.121581,609 Z M282.878419,609 L296.28908,622.410823 L290.410661,628.288744 L277,614.878491 L277,614.869942 L282.878419,609 Z" id="Fill-57" fill="#4D4D4D"></path>
            <path d="M221,599.122533 L224.877537,603 L233.721953,594.148979 L229.845544,590.27715 L221,599.122533 Z M239.277483,594.154617 L248.123027,603 L252,599.122533 L243.15502,590.27715 L239.277483,594.154617 Z M248.123027,572 L239.277483,580.845383 L243.15502,584.722286 L252,575.876903 L252,575.871265 L248.123027,572 Z M224.877537,572 L233.721953,580.845383 L229.845544,584.722286 L221,575.876903 L221,575.871265 L224.877537,572 Z" id="Fill-58" fill="#4D4D4D"></path>
            <path d="M258,599.122533 L261.877537,603 L270.722517,594.148979 L266.845544,590.27715 L258,599.122533 Z M276.278047,594.154617 L285.123027,603 L289,599.122533 L280.155584,590.27715 L276.278047,594.154617 Z M285.123027,572 L276.278047,580.845383 L280.155584,584.722286 L289,575.876903 L289,575.871265 L285.123027,572 Z M261.877537,572 L270.722517,580.845383 L266.845544,584.722286 L258,575.876903 L258,575.871265 L261.877537,572 Z" id="Fill-59" fill="#4D4D4D"></path>
            <path d="M239,580.122533 L242.877537,584 L251.721953,575.148979 L247.845544,571.27715 L239,580.122533 Z M257.278047,575.154617 L266.123027,584 L270,580.122533 L261.15502,571.27715 L257.278047,575.154617 Z M266.123027,553 L257.278047,561.844819 L261.15502,565.722286 L270,556.876903 L270,556.871265 L266.123027,553 Z M242.877537,553 L251.721953,561.844819 L247.845544,565.722286 L239,556.876903 L239,556.871265 L242.877537,553 Z" id="Fill-60" fill="#4D4D4D"></path>
            <path d="M222,762.122008 L227.877921,768 L241.288744,754.581036 L235.410253,748.711592 L222,762.122008 Z M249.711256,754.589584 L263.121509,768 L269,762.122008 L255.589177,748.711592 L249.711256,754.589584 Z M263.121509,721 L249.711256,734.410416 L255.589177,740.288408 L269,726.877992 L269,726.869443 L263.121509,721 Z M227.877921,721 L241.288744,734.410416 L235.410253,740.288408 L222,726.877992 L222,726.869443 L227.877921,721 Z" id="Fill-61" fill="#4D4D4D"></path>
            <path d="M277,762.122008 L282.878419,768 L296.28908,754.581036 L290.410661,748.711592 L277,762.122008 Z M304.71092,754.589584 L318.121581,768 L324,762.122008 L310.589339,748.711592 L304.71092,754.589584 Z M318.121581,721 L304.71092,734.410416 L310.589339,740.288408 L324,726.877992 L324,726.869443 L318.121581,721 Z M282.878419,721 L296.28908,734.410416 L290.410661,740.288408 L277,726.877992 L277,726.869443 L282.878419,721 Z" id="Fill-62" fill="#4D4D4D"></path>
            <path d="M222,706.122008 L227.877921,712 L241.288744,698.581036 L235.410253,692.711592 L222,706.122008 Z M249.711256,698.590154 L263.121509,712 L269,706.122008 L255.589177,692.711592 L249.711256,698.590154 Z M263.121509,665 L249.711256,678.410416 L255.589177,684.288408 L269,670.878562 L269,670.869443 L263.121509,665 Z M227.877921,665 L241.288744,678.410416 L235.410253,684.288408 L222,670.878562 L222,670.869443 L227.877921,665 Z" id="Fill-63" fill="#4D4D4D"></path>
            <path d="M277,706.122008 L282.878419,712 L296.28908,698.581036 L290.410661,692.711592 L277,706.122008 Z M304.71092,698.590154 L318.121581,712 L324,706.122008 L310.589339,692.711592 L304.71092,698.590154 Z M318.121581,665 L304.71092,678.410416 L310.589339,684.288408 L324,670.878562 L324,670.869443 L318.121581,665 Z M282.878419,665 L296.28908,678.410416 L290.410661,684.288408 L277,670.878562 L277,670.869443 L282.878419,665 Z" id="Fill-64" fill="#4D4D4D"></path>
            <path d="M331,653.123027 L334.877537,657 L343.721953,648.148818 L339.845544,644.277483 L331,653.123027 Z M349.277483,648.154456 L358.123027,657 L362,653.123027 L353.15502,644.277483 L349.277483,648.154456 Z M358.123027,626 L349.277483,634.84498 L353.15502,638.722517 L362,629.876973 L362,629.871335 L358.123027,626 Z M334.877537,626 L343.721953,634.84498 L339.845544,638.722517 L331,629.876973 L331,629.871335 L334.877537,626 Z" id="Fill-65" fill="#4D4D4D"></path>
            <path d="M350,635.123027 L353.877537,639 L362.722517,630.148818 L358.845544,626.277483 L350,635.123027 Z M368.278047,630.154456 L377.123027,639 L381,635.123027 L372.15502,626.277483 L368.278047,630.154456 Z M377.123027,608 L368.278047,616.84498 L372.15502,620.721953 L381,611.876973 L381,611.871335 L377.123027,608 Z M353.877537,608 L362.722517,616.84498 L358.845544,620.721953 L350,611.876973 L350,611.871335 L353.877537,608 Z" id="Fill-66" fill="#4D4D4D"></path>
            <path d="M369,617.122533 L372.877537,621 L381.722517,612.148979 L377.845544,608.27715 L369,617.122533 Z M387.278047,612.154617 L396.123027,621 L400,617.122533 L391.155584,608.27715 L387.278047,612.154617 Z M396.123027,590 L387.278047,598.845383 L391.155584,602.722286 L400,593.876903 L400,593.871265 L396.123027,590 Z M372.877537,590 L381.722517,598.845383 L377.845544,602.722286 L369,593.876903 L369,593.871265 L372.877537,590 Z" id="Fill-67" fill="#4D4D4D"></path>
            <path d="M369,653.123027 L372.877537,657 L381.722517,648.148818 L377.845544,644.277483 L369,653.123027 Z M387.278047,648.154456 L396.123027,657 L400,653.123027 L391.155584,644.277483 L387.278047,648.154456 Z M396.123027,626 L387.278047,634.84498 L391.155584,638.722517 L400,629.876973 L400,629.871335 L396.123027,626 Z M372.877537,626 L381.722517,634.84498 L377.845544,638.722517 L369,629.876973 L369,629.871335 L372.877537,626 Z" id="Fill-68" fill="#4D4D4D"></path>
            <polygon id="Fill-69" fill="#4D4D4D" points="406 653.343202 409.656961 657 418 648.65148 414.343571 645"></polygon>
            <polygon id="Fill-70" fill="#4D4D4D" points="369 580.342832 372.65733 584 381 575.65185 377.343202 572"></polygon>
            <polygon id="Fill-71" fill="#4D4D4D" points="358.343202 584 362 580.343039 353.65148 572 350 575.656429"></polygon>
            <path d="M406,617.122533 L409.876973,621 L418.721953,612.148979 L414.845544,608.27715 L406,617.122533 Z M424.277483,612.154617 L433.123027,621 L437,617.122533 L428.15502,608.27715 L424.277483,612.154617 Z M433.123027,590 L424.277483,598.845383 L428.15502,602.722286 L437,593.876903 L437,593.871265 L433.123027,590 Z M409.876973,590 L418.721953,598.845383 L414.845544,602.722286 L406,593.876903 L406,593.871265 L409.876973,590 Z" id="Fill-72" fill="#4D4D4D"></path>
            <path d="M445.876973,553 L442,556.877537 L450.851182,565.722517 L454.722517,561.845544 L445.876973,553 Z M450.845544,571.278047 L442,580.123027 L445.876973,584 L454.722517,575.155584 L450.845544,571.278047 Z M473,580.123027 L464.15502,571.278047 L460.277483,575.155584 L469.123027,584 L469.128665,584 L473,580.123027 Z M473,556.877537 L464.15502,565.722517 L460.277483,561.845544 L469.123027,553 L469.128665,553 L473,556.877537 Z" id="Fill-73" fill="#4D4D4D"></path>
            <path d="M487.845383,572 L479,580.343571 L482.877467,584 L491.72285,575.657492 L487.845383,572 Z M510,580.343571 L501.154617,572 L497.277714,575.657492 L506.123097,584 L506.129299,584 L510,580.343571 Z" id="Fill-74" fill="#4D4D4D"></path>
            <path d="M482.877467,590 L479,593.876973 L487.851021,602.721953 L491.72285,598.845544 L482.877467,590 Z M487.845383,608.277483 L479,617.123027 L482.877467,621 L491.72285,612.15502 L487.845383,608.277483 Z M510,617.123027 L501.154617,608.277483 L497.277714,612.15502 L506.123097,621 L506.128735,621 L510,617.123027 Z M510,593.876973 L501.154617,602.721953 L497.277714,598.845544 L506.123097,590 L506.128735,590 L510,593.876973 Z" id="Fill-75" fill="#4D4D4D"></path>
            <path d="M445.876973,590 L442,593.876973 L450.851182,602.721953 L454.722517,598.845544 L445.876973,590 Z M450.845544,608.277483 L442,617.123027 L445.876973,621 L454.722517,612.15502 L450.845544,608.277483 Z M473,617.123027 L464.15502,608.277483 L460.277483,612.15502 L469.123027,621 L469.128665,621 L473,617.123027 Z M473,593.876973 L464.15502,602.721953 L460.277483,598.845544 L469.123027,590 L469.128665,590 L473,593.876973 Z" id="Fill-76" fill="#4D4D4D"></path>
            <polygon id="Fill-77" fill="#4D4D4D" points="473 630.656798 469.342508 627 461 635.34852 464.656429 639"></polygon>
            <polygon id="Fill-78" fill="#4D4D4D" points="516 580.342832 519.657492 584 528 575.65185 524.343571 572"></polygon>
            <path d="M445.876973,442 L442,445.877537 L450.851182,454.722517 L454.722517,450.845544 L445.876973,442 Z M450.845544,460.278047 L442,469.123027 L445.876973,473 L454.722517,464.15502 L450.845544,460.278047 Z M473,469.123027 L464.15502,460.278047 L460.277483,464.15502 L469.123027,473 L469.128665,473 L473,469.123027 Z M473,445.877537 L464.15502,454.722517 L460.277483,450.845544 L469.123027,442 L469.128665,442 L473,445.877537 Z" id="Fill-79" fill="#4D4D4D"></path>
            <path d="M482.877467,479 L479,482.877467 L487.851021,491.722286 L491.72285,487.845947 L482.877467,479 Z M487.845383,497.277714 L479,506.123097 L482.877467,510 L491.72285,501.155181 L487.845383,497.277714 Z M510,506.123097 L501.154617,497.277714 L497.277714,501.155181 L506.123097,510 L506.128735,510 L510,506.123097 Z M510,482.877467 L501.154617,491.722286 L497.277714,487.845947 L506.123097,479 L506.128735,479 L510,482.877467 Z" id="Fill-80" fill="#4D4D4D"></path>
            <path d="M482.877467,442 L479,445.877537 L487.851021,454.722517 L491.72285,450.845544 L482.877467,442 Z M487.845383,460.278047 L479,469.123027 L482.877467,473 L491.72285,464.15502 L487.845383,460.278047 Z M510,469.123027 L501.154617,460.278047 L497.277714,464.15502 L506.123097,473 L506.128735,473 L510,469.123027 Z M510,445.877537 L501.154617,454.722517 L497.277714,450.845544 L506.123097,442 L506.128735,442 L510,445.877537 Z" id="Fill-81" fill="#4D4D4D"></path>
            <path d="M445.876973,479 L442,482.877467 L450.851182,491.722286 L454.722517,487.845947 L445.876973,479 Z M450.845544,497.277714 L442,506.123097 L445.876973,510 L454.722517,501.155181 L450.845544,497.277714 Z M473,506.123097 L464.15502,497.277714 L460.277483,501.155181 L469.123027,510 L469.128665,510 L473,506.123097 Z M473,482.877467 L464.15502,491.722286 L460.277483,487.845947 L469.123027,479 L469.128665,479 L473,482.877467 Z" id="Fill-82" fill="#4D4D4D"></path>
            <polygon id="Fill-83" fill="#4D4D4D" points="487.343202 528 491 524.348358 482.656798 516 479 519.656429"></polygon>
            <polygon id="Fill-84" fill="#4D4D4D" points="516 468.343202 519.657492 472 528 463.65148 524.343571 460"></polygon>
            <path d="M538.154617,424.277714 L534.27715,428.148979 L543.122533,437 L547,433.123097 L538.154617,424.277714 Z M524.844819,424.277714 L516,433.123097 L519.876903,437 L528.722286,428.154617 L524.844819,424.277714 Z M516,409.871265 L516,409.877467 L524.844819,418.722286 L528.722286,414.845383 L519.876903,406 L516,409.871265 Z M547,409.871265 L547,409.877467 L538.154617,418.722286 L534.27715,414.845383 L543.122533,406 L547,409.871265 Z" id="Fill-85" fill="#4D4D4D"></path>
            <path d="M501.154617,424.277714 L497.277714,428.148979 L506.123097,437 L510,433.123097 L501.154617,424.277714 Z M487.845383,424.277714 L479,433.123097 L482.877467,437 L491.722286,428.154617 L487.845383,424.277714 Z M479,409.871265 L479,409.877467 L487.845383,418.722286 L491.722286,414.845383 L482.877467,406 L479,409.871265 Z M510,409.871265 L510,409.877467 L501.154617,418.722286 L497.277714,414.845383 L506.123097,406 L510,409.871265 Z" id="Fill-86" fill="#4D4D4D"></path>
            <polygon id="Fill-87" fill="#4D4D4D" points="469.343202 399 473 395.34267 464.65148 387 461 390.656798"></polygon>
            <polygon id="Fill-88" fill="#4D4D4D" points="538.657168 387 535 390.65148 543.342832 399 547 395.343202"></polygon>
            <path d="M676.722517,428.154617 L672.851182,424.277714 L664,433.122533 L667.876973,437 L676.722517,428.154617 Z M676.722517,414.845383 L667.876973,406 L664,409.876903 L672.84498,418.722286 L676.722517,414.845383 Z M691.129229,406 L691.123027,406 L682.278047,414.845383 L686.15502,418.722286 L695,409.876903 L691.129229,406 Z M691.129229,437 L691.123027,437 L682.278047,428.154617 L686.15502,424.277714 L695,433.122533 L691.129229,437 Z" id="Fill-89" fill="#4D4D4D"></path>
            <path d="M676.722517,390.154617 L672.851182,386.277714 L664,395.122533 L667.876973,399 L676.722517,390.154617 Z M676.722517,376.845383 L667.876973,368 L664,371.876903 L672.84498,380.722286 L676.722517,376.845383 Z M691.129229,368 L691.123027,368 L682.278047,376.845383 L686.15502,380.722286 L695,371.876903 L691.129229,368 Z M691.129229,399 L691.123027,399 L682.278047,390.154617 L686.15502,386.277714 L695,395.122533 L691.129229,399 Z" id="Fill-90" fill="#4D4D4D"></path>
            <polygon id="Fill-91" fill="#4D4D4D" points="701 358.342832 704.656961 362 713 353.65185 709.343571 350"></polygon>
            <polygon id="Fill-92" fill="#4D4D4D" points="713 427.656798 709.34852 424 701 432.34267 704.656798 436"></polygon>
            <path d="M676.722517,464.154617 L672.851182,460.277714 L664,469.122533 L667.876973,473 L676.722517,464.154617 Z M676.722517,450.845383 L667.876973,442 L664,445.876903 L672.84498,454.722286 L676.722517,450.845383 Z M691.129229,442 L691.123027,442 L682.278047,450.845383 L686.15502,454.722286 L695,445.876903 L691.129229,442 Z M691.129229,473 L691.123027,473 L682.278047,464.154617 L686.15502,460.277714 L695,469.122533 L691.129229,473 Z" id="Fill-93" fill="#4D4D4D"></path>
            <path d="M740.288744,532.589584 L734.419372,526.711592 L721,540.121438 L726.878491,546 L740.288744,532.589584 Z M740.288744,512.409846 L726.878491,499 L721,504.877992 L734.410823,518.288408 L740.288744,512.409846 Z M762.130628,499 L762.122079,499 L748.711256,512.409846 L754.589747,518.288408 L768,504.877992 L762.130628,499 Z M762.130628,546 L762.122079,546 L748.711256,532.589584 L754.589747,526.711592 L768,540.121438 L762.130628,546 Z" id="Fill-94" fill="#4D4D4D"></path>
            <polygon id="Fill-95" fill="#4D4D4D" points="704.657168 443 701 446.65733 709.34815 455 713 451.343202"></polygon>
            <path d="M556.876973,664 L553,667.877467 L561.851182,676.722286 L565.722517,672.845383 L556.876973,664 Z M561.845544,682.277714 L553,691.122533 L556.876973,695 L565.722517,686.155181 L561.845544,682.277714 Z M584,691.122533 L575.15502,682.277714 L571.278047,686.155181 L580.12359,695 L580.128665,695 L584,691.122533 Z M584,667.877467 L575.15502,676.722286 L571.278047,672.845383 L580.12359,664 L580.128665,664 L584,667.877467 Z" id="Fill-96" fill="#4D4D4D"></path>
            <path d="M599.845222,682 L591,690.343202 L594.877396,694 L603.722618,685.65733 L599.845222,682 Z M622,690.343202 L613.154214,682 L609.277382,685.65733 L618.122604,694 L618.128806,694 L622,690.343202 Z" id="Fill-97" fill="#4D4D4D"></path>
            <path d="M594.877467,701 L591,704.876973 L599.851021,713.721953 L603.72285,709.845544 L594.877467,701 Z M599.845383,719.277483 L591,728.123027 L594.877467,732 L603.72285,723.15502 L599.845383,719.277483 Z M622,728.123027 L613.154617,719.277483 L609.277714,723.15502 L618.123097,732 L618.128735,732 L622,728.123027 Z M622,704.876973 L613.154617,713.721953 L609.277714,709.845544 L618.123097,701 L618.128735,701 L622,704.876973 Z" id="Fill-98" fill="#4D4D4D"></path>
            <path d="M556.876973,701 L553,704.876973 L561.851182,713.721953 L565.722517,709.845544 L556.876973,701 Z M561.845544,719.277483 L553,728.123027 L556.876973,732 L565.722517,723.15502 L561.845544,719.277483 Z M584,728.123027 L575.15502,719.277483 L571.278047,723.15502 L580.12359,732 L580.128665,732 L584,728.123027 Z M584,704.876973 L575.15502,713.721953 L571.278047,709.845544 L580.12359,701 L580.128665,701 L584,704.876973 Z" id="Fill-99" fill="#4D4D4D"></path>
            <polygon id="Fill-100" fill="#4D4D4D" points="584 741.656798 580.342508 738 572 746.34852 575.656429 750"></polygon>
            <polygon id="Fill-101" fill="#4D4D4D" points="627 690.342832 630.657492 694 639 685.65185 635.343571 682"></polygon>
            <g id="编组" transform="translate(338.000000, 448.000000)">
                <mask id="mask-2" fill="white">
                    <use xlink:href="#path-1"></use>
                </mask>
                <g id="Clip-103"></g>
                <path d="M11.8502289,0.142698795 L0.176108434,11.8219157 L35.2001687,46.8454096 L0.176108434,81.8756988 L11.8502289,93.549253 L58.5518072,46.8471084 L11.8502289,0.142698795 Z M93.5775663,11.8219157 L81.9028795,0.142698795 L55.2499157,26.8013253 L66.9234699,38.4754458 L93.5775663,11.8219157 Z M93.5775663,81.8756988 L81.9028795,93.549253 L55.2521807,66.8974217 L66.9251687,55.2182048 L93.5775663,81.8756988 Z" id="Fill-102" mask="url(#mask-2)"></path>
            </g>
            <g id="编组" transform="translate(123.000000, 123.000000)">
                <mask id="mask-4" fill="white">
                    <use xlink:href="#path-3"></use>
                </mask>
                <g id="Clip-105"></g>
                <path d="M23.6582182,0.28721148 L0.0441,23.8414079 L70.8916091,94.4748761 L0.0441,165.119764 L23.6582182,188.662541 L118.127864,94.4777311 L23.6582182,0.28721148 Z M188.978809,23.8414079 L165.364118,0.28721148 L111.449291,54.051145 L135.063409,77.5939215 L188.978809,23.8414079 Z M188.978809,165.119764 L165.364118,188.662541 L111.4533,134.913453 L135.066845,111.359828 L188.978809,165.119764 Z" id="Fill-104" mask="url(#mask-4)"></path>
            </g>
            <path d="M222,429.122079 L227.877921,435 L241.288744,421.581198 L235.410253,415.711256 L222,429.122079 Z M249.711256,421.589747 L263.121509,435 L269,429.122079 L255.589177,415.711256 L249.711256,421.589747 Z M263.121509,388 L249.711256,401.410823 L255.589177,407.288744 L269,393.878491 L269,393.869942 L263.121509,388 Z M227.877921,388 L241.288744,401.410823 L235.410253,407.288744 L222,393.878491 L222,393.869942 L227.877921,388 Z" id="Fill-106" fill="#4D4D4D"></path>
            <path d="M222,373.121509 L227.877921,379 L241.288744,365.580628 L235.410253,359.711256 L222,373.121509 Z M249.711256,365.589747 L263.121509,379 L269,373.121509 L255.589177,359.711256 L249.711256,365.589747 Z M263.121509,332 L249.711256,345.410253 L255.589177,351.288744 L269,337.878491 L269,337.869372 L263.121509,332 Z M227.877921,332 L241.288744,345.410253 L235.410253,351.288744 L222,337.878491 L222,337.869372 L227.877921,332 Z" id="Fill-107" fill="#4D4D4D"></path>
            <path d="M277,393.589747 L290.904745,407 L297,401.121509 L283.095255,387.711256 L277,393.589747 Z M290.904745,360 L277,373.410253 L283.095255,379.288744 L297,365.878491 L297,365.869372 L290.904745,360 Z" id="Fill-108" fill="#4D4D4D"></path>
        </g>
    </g>
</svg>