<?xml version="1.0" encoding="UTF-8"?>
<svg width="707px" height="127px" viewBox="0 0 707 127" version="1.1" xmlns="http://www.w3.org/2000/svg" xmlns:xlink="http://www.w3.org/1999/xlink">
    <!-- Generator: Sketch 64 (93537) - https://sketch.com -->
    <title>binance-India-fund</title>
    <desc>Created with Sketch.</desc>
    <g id="页面-1" stroke="none" stroke-width="1" fill="none" fill-rule="evenodd">
        <g id="binance-India-fund" fill="#F0B90B" fill-rule="nonzero">
            <rect id="矩形" transform="translate(14.349370, 63.386011) rotate(-45.000000) translate(-14.349370, -63.386011) " x="4.28436959" y="53.3210115" width="20.13" height="20.13"></rect>
            <polygon id="路径" points="63.14 28.82 87.54 53.22 101.77 38.99 63.14 0.36 24.51 38.99 38.74 53.22"></polygon>
            <rect id="矩形" transform="translate(111.935920, 63.379461) rotate(-45.000000) translate(-111.935920, -63.379461) " x="101.87092" y="53.3144607" width="20.13" height="20.13"></rect>
            <polygon id="路径" points="63.14 97.95 38.74 73.55 24.51 87.78 63.14 126.41 101.77 87.78 87.54 73.55"></polygon>
            <rect id="矩形" transform="translate(63.146181, 63.379201) rotate(-45.000000) translate(-63.146181, -63.379201) " x="53.0811805" y="53.3142006" width="20.13" height="20.13"></rect>
            <path d="M177.87,63.38 L154.65,63.38 L154.65,14.57 L177.31,14.57 C187.31,14.57 193.42,19.57 193.42,27.19 L193.42,27.33 C193.42,32.84 190.49,35.91 187,37.86 C192.65,40.02 196.14,43.3 196.14,49.86 L196.14,50 C196.14,58.92 188.88,63.38 177.87,63.38 Z M182.75,29 C182.75,25.79 180.24,24 175.7,24 L165.11,24 L165.11,34.31 L175,34.31 C179.74,34.31 182.74,32.77 182.74,29.15 L182.75,29 Z M185.47,48.52 C185.47,45.24 183.03,43.22 177.52,43.22 L165.11,43.22 L165.11,54 L177.87,54 C182.61,54 185.47,52.33 185.47,48.7 L185.47,48.52 Z" id="形状"></path>
            <polygon id="路径" points="207.92 63.38 207.92 14.57 218.66 14.57 218.66 63.38"></polygon>
            <polygon id="路径" points="267.25 63.38 243.61 32.38 243.61 63.38 233 63.38 233 14.57 242.9 14.57 265.77 44.63 265.77 14.57 276.37 14.57 276.37 63.38"></polygon>
            <path d="M324.64,63.38 L320.18,52.44 L299.54,52.44 L295.07,63.38 L284.13,63.38 L305.05,14.22 L315,14.22 L335.92,63.38 L324.64,63.38 Z M309.86,27.12 L303.37,43 L316.37,43 L309.86,27.12 Z" id="形状"></path>
            <polygon id="路径" points="377.92 63.38 354.28 32.38 354.28 63.38 343.68 63.38 343.68 14.57 353.58 14.57 376.45 44.63 376.45 14.57 387.05 14.57 387.05 63.38"></polygon>
            <path d="M422.48,64.22 C415.802375,64.3187509 409.370678,61.7027204 404.657802,56.9709937 C399.944927,52.2392669 397.354593,45.7971778 397.48,39.12 L397.48,39 C397.48,25.12 407.94,13.76 422.93,13.76 C432.13,13.76 437.64,16.82 442.18,21.29 L435.34,29.17 C431.58,25.75 427.74,23.66 422.86,23.66 C414.63,23.66 408.7,30.49 408.7,38.86 L408.7,39 C408.7,47.37 414.49,54.34 422.86,54.34 C428.44,54.34 431.86,52.11 435.69,48.62 L442.52,55.53 C437.47,60.87 431.9,64.22 422.48,64.22 Z" id="路径"></path>
            <polygon id="路径" points="451.14 63.38 451.14 14.57 488 14.57 488 24.13 461.81 24.13 461.81 34 484.81 34 484.81 43.55 461.81 43.55 461.81 53.8 488.31 53.8 488.31 63.35"></polygon>
            <path d="M166.052713,112.750092 C174.967658,112.750092 177.4693,109.384245 177.4693,103.653209 C177.4693,99.7870341 175.877346,97.2853914 171.920202,96.3757031 L171.920202,96.1937655 C175.331533,95.1476239 176.514128,92.9188877 176.514128,89.6440099 C176.514128,83.9584582 174.057969,81.183909 165.143024,81.183909 L155,81.183909 L155,112.750092 L166.052713,112.750092 Z M163.55107,94.4653577 L160.958458,94.4653577 L160.958458,86.0052568 L163.55107,86.0052568 C168.59984,86.0052568 170.646638,86.4601009 170.646638,90.1898229 C170.646638,93.6466383 168.508871,94.4653577 163.55107,94.4653577 Z M164.816762,107.882287 L160.958458,107.88326 L160.958458,98.8773459 L164.506242,98.8773459 C169.964372,98.8773459 171.465358,100.105425 171.465358,103.380303 C171.465358,106.94908 170.021547,107.848995 164.816762,107.882287 L164.816762,107.882287 Z M190.432358,113.022999 C191.433015,113.022999 192.342704,112.93203 193.161423,112.750092 L193.161423,108.292619 C192.661095,108.429073 192.160766,108.474557 191.660437,108.474557 C190.068483,108.474557 189.52267,107.974229 189.52267,105.654524 L189.52267,78.1819377 L183.837118,78.1819377 L183.837118,107.019056 C183.837118,111.203622 185.565526,113.022999 190.432358,113.022999 Z M207.898373,113.204936 C215.403301,113.204936 219.724321,110.430387 219.724321,100.4693 C219.724321,90.5082138 215.403301,87.7336645 207.898373,87.7336645 C200.438929,87.7336645 196.11791,90.5082138 196.11791,100.4693 C196.11791,110.430387 200.438929,113.204936 207.898373,113.204936 Z M207.898373,108.792948 C203.486385,108.792948 201.985399,106.837118 201.985399,100.4693 C201.985399,94.1014824 203.395416,92.1001682 207.898373,92.1001682 C212.40133,92.1001682 213.856831,94.1014824 213.856831,100.4693 C213.856831,106.837118 212.446814,108.792948 207.898373,108.792948 Z M236.144194,113.204936 C238.463899,113.204936 241.283933,112.750092 242.69395,112.295248 L242.69395,107.4739 C240.920057,108.156166 238.873259,108.429073 236.82646,108.429073 C231.959628,108.429073 230.140251,106.700665 230.140251,100.514785 C230.140251,94.2379357 232.005112,92.4640435 236.735491,92.4640435 C238.918743,92.4640435 240.73812,92.73695 242.512012,93.4192162 L242.512012,88.552384 C241.011026,88.0520554 238.691321,87.7336645 236.144194,87.7336645 C228.639266,87.7336645 224.272762,90.5082138 224.272762,100.4693 C224.272762,110.430387 228.639266,113.204936 236.144194,113.204936 Z M253.9286,112.750092 L253.9286,101.970286 L255.111194,101.970286 L262.570638,112.750092 L269.575238,112.750092 L259.887058,99.6050965 L269.165878,88.1885087 L262.434185,88.1885087 L255.338617,97.5582979 L253.9286,97.5582979 L253.9286,78.1819377 L248.243048,78.1819377 L248.243048,112.750092 L253.9286,112.750092 Z M283.902828,113.204936 C286.222533,113.204936 289.042567,112.750092 290.452584,112.295248 L290.452584,107.4739 C288.678692,108.156166 286.631893,108.429073 284.585095,108.429073 C279.718262,108.429073 277.898886,106.700665 277.898886,100.514785 C277.898886,94.2379357 279.763747,92.4640435 284.494126,92.4640435 C286.677378,92.4640435 288.496754,92.73695 290.270646,93.4192162 L290.270646,88.552384 C288.769661,88.0520554 286.449955,87.7336645 283.902828,87.7336645 C276.3979,87.7336645 272.031396,90.5082138 272.031396,100.4693 C272.031396,110.430387 276.3979,113.204936 283.902828,113.204936 Z M301.687234,112.750092 L301.687234,96.5121564 C302.596922,93.3737318 304.825659,92.4640435 307.691177,92.4640435 C311.102508,92.4640435 311.921227,94.055998 311.921227,97.5128135 L311.921227,112.750092 L317.606779,112.750092 L317.606779,95.920859 C317.606779,90.6901514 315.605465,87.7336645 309.419584,87.7336645 C306.008253,87.7336645 303.097251,88.779806 301.687234,91.3724176 L301.687234,78.1819377 L296.001682,78.1819377 L296.001682,112.750092 L301.687234,112.750092 Z M331.570494,113.204936 C335.527638,113.204936 338.529609,111.749435 339.757688,109.611667 L340.348986,112.750092 L345.397756,112.750092 L345.397756,95.6024681 C345.397756,90.6901514 342.805144,87.7336645 334.754403,87.7336645 C332.980511,87.7336645 330.751774,87.8246333 328.886913,88.1430242 L328.886913,93.0098565 C330.660806,92.6914656 332.389213,92.509528 334.163105,92.509528 C338.711547,92.509528 339.712204,93.9650292 339.712204,96.8760317 L339.712204,97.9676576 L333.116964,97.9676576 C326.749146,97.9676576 323.155877,100.014456 323.155877,105.790977 C323.155877,110.748778 325.975911,113.204936 331.570494,113.204936 Z M332.798573,108.747464 C329.933055,108.747464 328.795945,107.746807 328.795945,105.609039 C328.795945,102.698037 330.29693,102.01577 333.890199,102.01577 L339.712204,102.01577 L339.712204,105.245164 C338.666062,107.382931 336.255388,108.747464 332.798573,108.747464 Z M358.679204,81.3203622 C358.679204,78.545813 357.996938,78.2729065 355.449811,78.2729065 C352.902684,78.2729065 352.220418,78.545813 352.220418,81.3203622 C352.220418,83.9736197 352.865307,84.391262 355.241842,84.4124171 L355.449811,84.4133023 C357.996938,84.4133023 358.679204,84.049427 358.679204,81.3203622 Z M358.269845,112.750092 L358.269845,88.1885087 L352.584293,88.1885087 L352.584293,112.750092 L358.269845,112.750092 Z M371.096449,112.750092 L371.096449,96.3757031 C372.142591,93.282763 374.189389,92.4640435 377.100392,92.4640435 C380.557207,92.4640435 381.330442,94.055998 381.330442,97.5128135 L381.330442,112.750092 L387.015994,112.750092 L387.015994,95.920859 C387.015994,90.6901514 385.01468,87.7336645 378.8288,87.7336645 C375.417469,87.7336645 372.506466,88.7343216 371.096449,91.2814488 L371.096449,88.1885087 L365.410898,88.1885087 L365.410898,112.750092 L371.096449,112.750092 Z M412.441781,112.750092 L412.441781,92.6914656 L417.58152,92.6914656 L417.58152,88.1885087 L412.441781,88.1885087 C412.441781,83.4581296 413.124048,82.2300505 416.535379,82.2300505 C417.308614,82.2300505 418.081849,82.2755349 418.764115,82.4119881 L418.764115,78.2274221 C417.854427,78.0909688 416.899254,78 415.944081,78 C410.349498,78 406.75623,79.4555012 406.75623,87.9610866 L406.75623,88.1885087 L402.84457,88.1885087 L402.84457,92.6914656 L406.75623,92.6914656 L406.75623,112.750092 L412.441781,112.750092 Z M432.363954,113.204936 C439.868883,113.204936 444.189902,110.430387 444.189902,100.4693 C444.189902,90.5082138 439.868883,87.7336645 432.363954,87.7336645 C424.904511,87.7336645 420.583491,90.5082138 420.583491,100.4693 C420.583491,110.430387 424.904511,113.204936 432.363954,113.204936 Z M432.363954,108.792948 C427.951966,108.792948 426.450981,106.837118 426.450981,100.4693 C426.450981,94.1014824 427.860998,92.1001682 432.363954,92.1001682 C436.866911,92.1001682 438.322413,94.1014824 438.322413,100.4693 C438.322413,106.837118 436.912396,108.792948 432.363954,108.792948 Z M455.742943,112.750092 L455.742943,98.1495952 C456.607147,93.9195448 459.791056,92.8279189 462.838512,92.8279189 L463.429809,92.8279189 L463.611747,87.7336645 L463.111418,87.7336645 C460.2459,87.7336645 457.198444,88.552384 455.742943,92.6004968 L455.742943,88.1885087 L450.057391,88.1885087 L450.057391,112.750092 L455.742943,112.750092 Z M485.762656,112.750092 L485.762656,81.183909 L479.804198,81.183909 L479.804198,112.750092 L485.762656,112.750092 Z M498.771198,112.750092 L498.771198,96.3757031 C499.81734,93.282763 501.864139,92.4640435 504.775141,92.4640435 C508.231956,92.4640435 509.005191,94.055998 509.005191,97.5128135 L509.005191,112.750092 L514.690743,112.750092 L514.690743,95.920859 C514.690743,90.6901514 512.689429,87.7336645 506.503549,87.7336645 C503.092218,87.7336645 500.181215,88.7343216 498.771198,91.2814488 L498.771198,88.1885087 L493.085647,88.1885087 L493.085647,112.750092 L498.771198,112.750092 Z M530.382866,113.204936 C534.794854,113.204936 537.069075,111.522013 538.024247,109.156823 L538.57006,112.750092 L543.61883,112.750092 L543.61883,78.1819377 L537.978763,78.1819377 L537.978763,91.6908085 C537.02359,89.2801346 534.931307,87.7336645 530.382866,87.7336645 C522.377609,87.7336645 520.421779,93.5556695 520.421779,100.4693 C520.421779,108.156166 522.377609,113.204936 530.382866,113.204936 Z M531.929336,108.792948 C527.106334,108.792948 526.360961,105.329156 526.335451,100.726179 L526.334753,100.4693 C526.334753,96.0573122 526.880566,92.1001682 531.929336,92.1001682 C536.887137,92.1001682 538.206185,95.5114993 538.206185,100.4693 C538.206185,105.745492 536.932621,108.792948 531.929336,108.792948 Z M556.80931,81.3203622 C556.80931,78.545813 556.127044,78.2729065 553.579917,78.2729065 C551.03279,78.2729065 550.350524,78.545813 550.350524,81.3203622 C550.350524,83.9736197 550.995412,84.391262 553.371948,84.4124171 L553.579917,84.4133023 C556.127044,84.4133023 556.80931,84.049427 556.80931,81.3203622 Z M556.399951,112.750092 L556.399951,88.1885087 L550.714399,88.1885087 L550.714399,112.750092 L556.399951,112.750092 Z M570.454634,113.204936 C574.411778,113.204936 577.41375,111.749435 578.641829,109.611667 L579.233126,112.750092 L584.281896,112.750092 L584.281896,95.6024681 C584.281896,90.6901514 581.689285,87.7336645 573.638543,87.7336645 C571.864651,87.7336645 569.635915,87.8246333 567.771054,88.1430242 L567.771054,93.0098565 C569.544946,92.6914656 571.273354,92.509528 573.047246,92.509528 C577.595687,92.509528 578.596344,93.9650292 578.596344,96.8760317 L578.596344,97.9676576 L572.001104,97.9676576 C565.633286,97.9676576 562.040018,100.014456 562.040018,105.790977 C562.040018,110.748778 564.860051,113.204936 570.454634,113.204936 Z M571.682714,108.747464 C568.817195,108.747464 567.680085,107.746807 567.680085,105.609039 C567.680085,102.698037 569.181071,102.01577 572.774339,102.01577 L578.596344,102.01577 L578.596344,105.245164 C577.550203,107.382931 575.139529,108.747464 571.682714,108.747464 Z M609.343808,112.750092 L609.343808,99.878003 L621.169756,99.878003 L621.169756,94.6927798 L609.343808,94.6927798 L609.343808,86.3691321 L622.079444,86.3691321 L622.079444,81.183909 L603.38535,81.183909 L603.38535,112.750092 L609.343808,112.750092 Z M635.633799,113.204936 C639.090615,113.204936 641.819679,112.295248 643.229696,109.611667 L643.730025,112.750092 L648.824279,112.750092 L648.824279,88.1885087 L643.138727,88.1885087 L643.138727,104.562898 C642.183555,107.701322 640.091272,108.474557 637.362207,108.474557 C633.905391,108.474557 633.086672,106.837118 633.086672,103.425787 L633.086672,88.1885087 L627.40112,88.1885087 L627.40112,105.063226 C627.40112,110.202965 629.447919,113.204936 635.633799,113.204936 Z M661.696368,112.750092 L661.696368,96.3757031 C662.74251,93.282763 664.789308,92.4640435 667.700311,92.4640435 C671.157126,92.4640435 671.930361,94.055998 671.930361,97.5128135 L671.930361,112.750092 L677.615913,112.750092 L677.615913,95.920859 C677.615913,90.6901514 675.614599,87.7336645 669.428718,87.7336645 C666.017387,87.7336645 663.106385,88.7343216 661.696368,91.2814488 L661.696368,88.1885087 L656.010816,88.1885087 L656.010816,112.750092 L661.696368,112.750092 Z M693.308036,113.204936 C697.720024,113.204936 699.994244,111.522013 700.949417,109.156823 L701.49523,112.750092 L706.544,112.750092 L706.544,78.1819377 L700.903933,78.1819377 L700.903933,91.6908085 C699.94876,89.2801346 697.856477,87.7336645 693.308036,87.7336645 C685.302779,87.7336645 683.346949,93.5556695 683.346949,100.4693 C683.346949,108.156166 685.302779,113.204936 693.308036,113.204936 Z M694.854506,108.792948 C689.942189,108.792948 689.259923,105.199679 689.259923,100.4693 C689.259923,96.0573122 689.805736,92.1001682 694.854506,92.1001682 C699.812307,92.1001682 701.131355,95.5114993 701.131355,100.4693 C701.131355,105.745492 699.857791,108.792948 694.854506,108.792948 Z" id="BlockchainforIndiaFund"></path>
        </g>
    </g>
</svg>