<?xml version="1.0" encoding="UTF-8"?>
<svg width="489px" height="127px" viewBox="0 0 489 127" version="1.1" xmlns="http://www.w3.org/2000/svg" xmlns:xlink="http://www.w3.org/1999/xlink">
    <!-- Generator: Sketch 64 (93537) - https://sketch.com -->
    <title>binance-developers</title>
    <desc>Created with Sketch.</desc>
    <g id="页面-1" stroke="none" stroke-width="1" fill="none" fill-rule="evenodd">
        <g id="binance-developers" transform="translate(-49.000000, -63.000000)">
            <path d="M226.87,126.39 L203.65,126.39 L203.65,77.57 L226.31,77.57 C236.31,77.57 242.42,82.57 242.42,90.2 L242.42,90.34 C242.42,95.84 239.49,98.91 236,100.87 C241.65,103.03 245.14,106.3 245.14,112.87 L245.14,113 C245.14,121.92 237.88,126.39 226.87,126.39 Z M231.75,92 C231.75,88.79 229.24,87 224.75,87 L214.15,87 L214.15,97.31 L224,97.31 C228.74,97.31 231.74,95.77 231.74,92.15 L231.75,92 Z M234.47,111.52 C234.47,108.25 232.03,106.22 226.52,106.22 L214.11,106.22 L214.11,117 L226.87,117 C231.61,117 234.47,115.33 234.47,111.7 L234.47,111.52 Z M256.92,126.38 L256.92,77.57 L267.66,77.57 L267.66,126.39 L256.92,126.38 Z M316.25,126.38 L292.61,95.38 L292.61,126.38 L282,126.38 L282,77.57 L291.9,77.57 L314.77,107.63 L314.77,77.57 L325.37,77.57 L325.37,126.39 L316.25,126.38 Z M373.64,126.38 L369.18,115.38 L348.54,115.38 L344.07,126.38 L333.13,126.38 L354.05,77.22 L364,77.22 L384.92,126.38 L373.64,126.38 Z M358.86,90.13 L352.37,106 L365.37,106 L358.86,90.13 Z M426.92,126.39 L403.28,95.39 L403.28,126.39 L392.68,126.39 L392.68,77.57 L402.58,77.57 L425.45,107.63 L425.45,77.57 L436.05,77.57 L436.05,126.39 L426.92,126.39 Z M471.48,127.22 C464.801537,127.321569 458.368189,124.706441 453.654693,119.974091 C448.941197,115.24174 446.351772,108.798004 446.48,102.12 L446.48,102 C446.48,88.12 456.94,76.76 471.93,76.76 C481.13,76.76 486.64,79.83 491.18,84.29 L484.34,92.17 C480.58,88.75 476.74,86.66 471.86,86.66 C463.63,86.66 457.7,93.49 457.7,101.86 L457.7,102 C457.7,110.37 463.49,117.34 471.86,117.34 C477.44,117.34 480.86,115.11 484.69,111.62 L491.52,118.53 C486.47,123.88 480.9,127.22 471.48,127.22 L471.48,127.22 Z M500.15,126.39 L500.15,77.57 L537,77.57 L537,87.13 L510.81,87.13 L510.81,97 L533.81,97 L533.81,106.55 L510.81,106.55 L510.81,116.8 L537.31,116.8 L537.31,126.36 L500.15,126.39 Z M247.65,155.05 L203.65,155.05 L203.65,160.8 L247.65,160.8 L247.65,155.05 Z M63.34,112.16 L49.11,126.39 L63.34,140.62 L77.58,126.39 L63.34,112.16 Z M112.14,91.82 L136.54,116.22 L150.77,102 L112.14,63.36 L73.51,102 L87.74,116.23 L112.14,91.82 Z M160.93,112.16 L146.7,126.39 L160.93,140.62 L175.17,126.39 L160.93,112.16 Z M112.14,161 L87.74,136.6 L73.51,150.78 L112.14,189.41 L150.77,150.78 L136.54,136.55 L112.14,161 Z M410.127663,140.046852 C419.498104,140.046852 424.604995,143.654472 424.604995,156.773091 C424.604995,170.032266 419.498104,173.499329 410.127663,173.499329 C400.757221,173.499329 395.603478,170.032266 395.603478,156.773091 C395.603478,143.654472 400.757221,140.046852 410.127663,140.046852 Z M527.16448,140 C530.678395,140 533.770641,140.562227 535.45732,141.171305 L535.45732,141.171305 L535.45732,146.3719 C533.770641,145.762822 530.163021,145.153743 527.351888,145.153743 C523.416303,145.153743 521.635919,145.95023 521.635919,149.183033 C521.635919,151.6662 522.385554,152.415835 527.539297,153.680845 C535.129355,155.554933 537.144,157.710135 537.144,163.894626 C537.144,170.266527 533.442676,173.499329 524.962426,173.499329 C521.120545,173.499329 517.231811,172.937103 515.404575,172.328024 L515.404575,172.328024 L515.404575,166.846316 C517.372368,167.595951 521.354806,168.20503 524.775017,168.20503 C529.272829,168.20503 531.053213,167.127429 531.053213,163.800922 C531.053213,160.755528 529.975612,159.912189 524.63446,158.553475 C517.794038,156.9605 515.638836,155.039559 515.638836,149.32359 C515.638836,142.717428 519.621274,140 527.16448,140 Z M265.541747,140.515374 C275.005893,140.515374 281.330941,143.232802 281.330941,156.773091 C281.330941,169.329483 275.005893,173.030807 265.541747,173.030807 L265.541747,173.030807 L255,173.030807 L255,140.515374 Z M307.427621,140.515374 L307.427621,145.856526 L294.309003,145.856526 L294.309003,153.727697 L306.490577,153.727697 L306.490577,158.834588 L294.309003,158.834588 L294.309003,167.642803 L308.270961,167.642803 L308.270961,173.030807 L288.171364,173.030807 L288.171364,140.515374 L307.427621,140.515374 Z M317.922516,140.515374 L326.215357,166.51835 L326.49647,166.51835 L335.023572,140.515374 L341.34862,140.515374 L330.010386,173.030807 L322.373476,173.030807 L311.22265,140.515374 L317.922516,140.515374 Z M365.10269,140.515374 L365.10269,145.856526 L351.984072,145.856526 L351.984072,153.727697 L364.165646,153.727697 L364.165646,158.834588 L351.984072,158.834588 L351.984072,167.642803 L365.94603,167.642803 L365.94603,173.030807 L345.846432,173.030807 L345.846432,140.515374 L365.10269,140.515374 Z M378.221309,140.515374 L378.221309,167.642803 L391.574188,167.642803 L391.574188,173.030807 L372.083669,173.030807 L372.083669,140.515374 L378.221309,140.515374 Z M441.846608,140.515374 C451.404458,140.515374 454.356147,143.654472 454.356147,151.338234 C454.356147,159.537371 450.701675,162.48906 441.846608,162.48906 L441.846608,162.48906 L437.583057,162.48906 L437.583057,173.030807 L431.445417,173.030807 L431.445417,140.515374 Z M479.796897,140.515374 L479.796897,145.856526 L466.678278,145.856526 L466.678278,153.727697 L478.859853,153.727697 L478.859853,158.834588 L466.678278,158.834588 L466.678278,167.642803 L480.640236,167.642803 L480.640236,173.030807 L460.540639,173.030807 L460.540639,140.515374 L479.796897,140.515374 Z M496.897953,140.515374 C505.706168,140.515374 509.407493,143.232802 509.407493,150.588599 C509.407493,156.070308 507.4397,158.88144 503.129297,160.052745 L503.129297,160.052745 L512.452886,173.030807 L505.237646,173.030807 L497.132214,160.755528 L492.915515,160.755528 L492.915515,173.030807 L486.777876,173.030807 L486.777876,140.515374 Z M410.127663,145.106891 C403.474649,145.106891 402.02223,148.48025 402.02223,156.773091 L402.02223,156.773091 L402.023014,157.107608 C402.061886,165.289639 403.563356,168.345586 410.127663,168.345586 C416.733824,168.345586 418.186242,165.206488 418.186242,156.773091 C418.186242,148.48025 416.733824,145.106891 410.127663,145.106891 Z M265.260634,145.715969 L261.137639,145.715969 L261.137639,167.736507 L265.260634,167.736507 C271.53883,167.736507 275.005893,165.347045 275.005893,156.773091 C275.005893,147.730614 271.398273,145.715969 265.260634,145.715969 L265.260634,145.715969 Z M441.096972,145.481708 L437.583057,145.481708 L437.583057,157.522726 L441.096972,157.522726 C446.34442,157.522726 448.077952,156.164012 448.077952,151.431939 C448.077952,146.980979 446.297568,145.481708 441.096972,145.481708 L441.096972,145.481708 Z M496.054613,145.481708 L492.915515,145.481708 L492.915515,156.070308 L496.325393,156.069513 C501.325277,156.039549 503.269853,155.145593 503.269853,150.588599 C503.269853,146.3719 501.255208,145.481708 496.054613,145.481708 L496.054613,145.481708 Z M112.14,112.21 L126.37,126.44 L112.14,140.67 L97.91,126.39 L112.14,112.21 Z" id="形状" fill="#F0B90B" fill-rule="nonzero"></path>
            <rect id="矩形" x="0" y="0" width="600" height="252"></rect>
        </g>
    </g>
</svg>