<svg xmlns="http://www.w3.org/2000/svg" xmlns:xlink="http://www.w3.org/1999/xlink" viewBox="0 0 1148 318"><defs><style>.cls-1{fill:url(#linear-gradient);}.cls-2{fill:none;}.cls-3{fill:#1a1a1a;}</style><linearGradient id="linear-gradient" x1="343.17" y1="141.32" x2="343.17" y2="-5.35" gradientUnits="userSpaceOnUse"><stop offset="0.01" stop-color="#fbda3c"/><stop offset="0.37" stop-color="#f5c923"/><stop offset="0.74" stop-color="#f1bd11"/><stop offset="1" stop-color="#f0b90b"/></linearGradient><symbol id="New_Symbol" data-name="New Symbol" viewBox="0 0 686.33 112.14"><path class="cls-1" d="M25.32,56.07,12.66,68.73,0,56.07,12.66,43.41ZM56.07,25.32,77.77,47,90.43,34.36l-21.7-21.7L56.07,0,43.41,12.66,21.7,34.36,34.36,47ZM99.48,43.41,86.82,56.07,99.48,68.73l12.66-12.66ZM56.07,86.82,34.36,65.11,21.7,77.77,43.41,99.48l12.66,12.66L68.73,99.48l21.7-21.71L77.77,65.11Zm0-18.09L68.73,56.07,56.07,43.41,43.41,56.07ZM166.71,86.82H137.46V25.32H166c12.56,0,20.29,6.24,20.29,15.9v.18c0,6.94-3.69,10.8-8.08,13.26,7.12,2.73,11.51,6.86,11.51,15.11V70C189.73,81.19,180.59,86.82,166.71,86.82Zm6.15-43.31c0-4-3.16-6.33-8.87-6.33H150.64v13h12.47c6,0,9.75-1.93,9.75-6.5Zm3.43,24.59c0-4.12-3.08-6.67-10-6.67H150.64V75h16.07c6,0,9.58-2.11,9.58-6.68Zm28.28,18.72V25.32H218.1v61.5Zm74.75,0-29.79-39.1v39.1H236.18V25.32h12.48l28.81,37.86V25.32h13.35v61.5Zm72.3,0L346,73H320l-5.62,13.8H300.58l26.36-61.94h12.47l26.35,61.94ZM333,41.13l-8.17,19.95h16.34Zm85.74,45.69L389,47.72v39.1H375.61V25.32h12.47L416.9,63.18V25.32h13.35v61.5Zm56.14,1.05c-18.09,0-31.54-14-31.54-31.63v-.17c0-17.48,13.18-31.8,32.07-31.8,11.6,0,18.54,3.86,24.25,9.48l-8.61,9.93c-4.75-4.3-9.58-6.94-15.73-6.94-10.36,0-17.83,8.61-17.83,19.15v.18c0,10.54,7.29,19.33,17.83,19.33,7,0,11.34-2.81,16.17-7.21l8.61,8.7C493.77,83.65,486.74,87.87,474.88,87.87ZM511,86.82V25.32h46.39v12h-33V49.83h29v12h-29V74.78h33.39v12Zm107.45,1.05V98h-52.8V87.87ZM686.33,33.3l-9-9L654.49,47.12,631.83,24.44l-9,9,22.66,22.69L623,78.68l9,9L654.49,65.2l22.66,22.67,9-9L663.52,56.14Z"/></symbol></defs><title>binance x fellowship black</title><g id="content"><rect class="cls-2" x="0.48" y="0.48" width="1146.78" height="317.12"/><use width="686.33" height="112.14" transform="translate(55.8 56.55)" xlink:href="#New_Symbol"/><path class="cls-3" d="M262.11,183.92H209.57v25.21h46.6v14.78h-46.6v37.62H193.34v-92.4h68.77Z"/><path class="cls-3" d="M350,183.65H297.75v24h46.33V222.2H297.75V247h52.93v14.52H281.51v-92.4H350Z"/><path class="cls-3" d="M371.54,169.13h16.23v77.62h48.58v14.78H371.54Z"/><path class="cls-3" d="M454.83,169.13h16.23v77.62h48.58v14.78H454.83Z"/><path class="cls-3" d="M576.93,263.12c-28.38,0-48.18-21.52-48.18-47.66s20.06-47.91,48.44-47.91,48.18,21.51,48.18,47.65S605.31,263.12,576.93,263.12Zm0-80.66c-18.35,0-31.16,14.66-31.16,32.74s13.07,33,31.42,33,31.15-14.65,31.15-32.74S595.28,182.46,576.93,182.46Z"/><path class="cls-3" d="M696.78,168.87h13.73l22.71,68.77,22-68.51h17l-32.21,93.06h-14L703.38,195.8l-22.7,66.39h-14l-32.21-93.06H652l22.05,68.51Z"/><path class="cls-3" d="M823.5,207.94c19.54,4.75,29.7,11.75,29.7,27.19,0,17.43-13.59,27.72-33,27.72a56.91,56.91,0,0,1-38.54-14.78l9.77-11.62c8.84,7.66,17.68,12,29.17,12,10,0,16.37-4.62,16.37-11.74,0-6.74-3.7-10.3-20.86-14.26-19.67-4.75-30.76-10.56-30.76-27.72,0-16.11,13.2-26.93,31.55-26.93,13.47,0,24.16,4.09,33.53,11.62l-8.71,12.27c-8.32-6.2-16.63-9.5-25.08-9.5-9.5,0-15,4.88-15,11.09C801.59,200.55,805.82,203.72,823.5,207.94Z"/><path class="cls-3" d="M890.16,222.59v38.94H873.93v-92.4h16.23v38.41h44.09V169.13h16.24v92.4H934.25V222.59Z"/><path class="cls-3" d="M993,169.13v92.4H976.75v-92.4Z"/><path class="cls-3" d="M1053.84,231.83h-18.35v29.7h-16.23v-92.4h36.43c21.52,0,35.11,12.14,35.11,31C1090.8,221,1074.17,231.83,1053.84,231.83Zm.53-47.91h-18.88v33.26h18.88c12.28,0,19.93-6.73,19.93-16.63C1074.3,189.59,1066.51,183.92,1054.37,183.92Z"/></g></svg>