<?xml version="1.0" encoding="UTF-8"?>
<svg width="489px" height="127px" viewBox="0 0 489 127" version="1.1" xmlns="http://www.w3.org/2000/svg" xmlns:xlink="http://www.w3.org/1999/xlink">
    <!-- Generator: Sketch 64 (93537) - https://sketch.com -->
    <title>binance-api</title>
    <desc>Created with Sketch.</desc>
    <g id="页面-1" stroke="none" stroke-width="1" fill="none" fill-rule="evenodd">
        <g id="binance-api" transform="translate(-49.000000, -63.000000)">
            <path d="M226.87,126.39 L203.65,126.39 L203.65,77.57 L226.31,77.57 C236.31,77.57 242.42,82.57 242.42,90.2 L242.42,90.34 C242.42,95.84 239.49,98.91 236,100.87 C241.65,103.03 245.14,106.3 245.14,112.87 L245.14,113 C245.14,121.92 237.88,126.39 226.87,126.39 Z M231.75,92 C231.75,88.79 229.24,87 224.75,87 L214.15,87 L214.15,97.31 L224,97.31 C228.74,97.31 231.74,95.77 231.74,92.15 L231.75,92 Z M234.47,111.52 C234.47,108.25 232.03,106.22 226.52,106.22 L214.11,106.22 L214.11,117 L226.87,117 C231.61,117 234.47,115.33 234.47,111.7 L234.47,111.52 Z M256.92,126.38 L256.92,77.57 L267.66,77.57 L267.66,126.39 L256.92,126.38 Z M316.25,126.38 L292.61,95.38 L292.61,126.38 L282,126.38 L282,77.57 L291.9,77.57 L314.77,107.63 L314.77,77.57 L325.37,77.57 L325.37,126.39 L316.25,126.38 Z M373.64,126.38 L369.18,115.38 L348.54,115.38 L344.07,126.38 L333.13,126.38 L354.05,77.22 L364,77.22 L384.92,126.38 L373.64,126.38 Z M358.86,90.13 L352.37,106 L365.37,106 L358.86,90.13 Z M426.92,126.39 L403.28,95.39 L403.28,126.39 L392.68,126.39 L392.68,77.57 L402.58,77.57 L425.45,107.63 L425.45,77.57 L436.05,77.57 L436.05,126.39 L426.92,126.39 Z M471.48,127.22 C464.801537,127.321569 458.368189,124.706441 453.654693,119.974091 C448.941197,115.24174 446.351772,108.798004 446.48,102.12 L446.48,102 C446.48,88.12 456.94,76.76 471.93,76.76 C481.13,76.76 486.64,79.83 491.18,84.29 L484.34,92.17 C480.58,88.75 476.74,86.66 471.86,86.66 C463.63,86.66 457.7,93.49 457.7,101.86 L457.7,102 C457.7,110.37 463.49,117.34 471.86,117.34 C477.44,117.34 480.86,115.11 484.69,111.62 L491.52,118.53 C486.47,123.88 480.9,127.22 471.48,127.22 L471.48,127.22 Z M500.15,126.39 L500.15,77.57 L537,77.57 L537,87.13 L510.81,87.13 L510.81,97 L533.81,97 L533.81,106.55 L510.81,106.55 L510.81,116.8 L537.31,116.8 L537.31,126.36 L500.15,126.39 Z M454.65,155.05 L203.65,155.05 L203.65,160.8 L454.65,160.8 L454.65,155.05 Z M63.34,112.16 L49.11,126.39 L63.34,140.62 L77.58,126.39 L63.34,112.16 Z M112.14,91.82 L136.54,116.22 L150.77,102 L112.14,63.36 L73.51,102 L87.74,116.23 L112.14,91.82 Z M160.93,112.16 L146.7,126.39 L160.93,140.62 L175.17,126.39 L160.93,112.16 Z M112.14,161 L87.74,136.6 L73.51,150.78 L112.14,189.41 L150.77,150.78 L136.54,136.55 L112.14,161 Z M486.332,140.076 L498.2,172 L491.806,172 L488.862,163.536 L475.522,163.536 L472.486,172 L466.276,172 L478.236,140.076 L486.332,140.076 Z M512.414,140.076 C521.798,140.076 524.696,143.158 524.696,150.702 C524.696,158.752 521.108,161.65 512.414,161.65 L512.414,161.65 L508.228,161.65 L508.228,172 L502.202,172 L502.202,140.076 Z M536.794,140.076 L536.794,172 L530.768,172 L530.768,140.076 L536.794,140.076 Z M482.514,145.458 L481.962,145.458 L477.316,158.476 L487.068,158.476 L482.514,145.458 Z M511.678,144.952 L508.228,144.952 L508.228,156.774 L511.678,156.774 C516.83,156.774 518.532,155.44 518.532,150.794 C518.532,146.424 516.784,144.952 511.678,144.952 L511.678,144.952 Z M112.14,112.21 L126.37,126.44 L112.14,140.67 L97.91,126.39 L112.14,112.21 Z" id="形状" fill="#F0B90B" fill-rule="nonzero"></path>
            <rect id="矩形" x="0" y="0" width="600" height="252"></rect>
        </g>
    </g>
</svg>