<svg xmlns="http://www.w3.org/2000/svg" viewBox="0 0 600 204"><defs><style>.cls-1{fill:#f0b90b;}.cls-2{fill:none;}</style></defs><title>Binance-Horizontal</title><g id="Logos"><path class="cls-1" d="M63,101.74,51.43,113.3,39.87,101.74,51.43,90.18ZM91.05,73.67l19.81,19.82,11.56-11.56L91.05,50.56,59.68,81.93,71.24,93.49Zm39.63,16.51-11.56,11.56,11.56,11.56,11.55-11.56ZM91.05,129.81,71.24,110,59.68,121.55l31.37,31.37,31.37-31.37L110.86,110Zm0-16.51,11.56-11.56L91.05,90.18,79.49,101.74Zm122,1.11v-.16c0-7.54-4-11.31-10.51-13.79,4-2.25,7.38-5.78,7.38-12.11v-.16c0-8.82-7.06-14.52-18.53-14.52H165.35v56.14h26.7C204.72,129.81,213.07,124.68,213.07,114.41Zm-15.4-24c0,4.17-3.45,5.94-8.9,5.94H177.38V84.5h12.19c5.21,0,8.1,2.08,8.1,5.77Zm3.13,22.46c0,4.17-3.29,6.09-8.75,6.09H177.38V106.63h14.27c6.34,0,9.15,2.33,9.15,6.1ZM239,129.81V73.67H226.61v56.14Zm66.39,0V73.67H293.16v34.57l-26.3-34.57H255.47v56.14h12.19V94.12l27.18,35.69Zm68.41,0L349.7,73.27H338.31l-24.05,56.54h12.59L332,117.22h23.74l5.13,12.59Zm-22.45-23.5H336.39l7.46-18.2Zm81.32,23.5V73.67H420.44v34.57L394.13,73.67H382.75v56.14h12.18V94.12l27.19,35.69Zm63.75-9.06-7.85-7.94c-4.41,4-8.34,6.57-14.76,6.57-9.62,0-16.28-8-16.28-17.64v-.16c0-9.62,6.82-17.48,16.28-17.48,5.61,0,10,2.4,14.36,6.33L496,81.37c-5.21-5.13-11.54-8.66-22.13-8.66-17.24,0-29.27,13.07-29.27,29v.16c0,16.12,12.27,28.87,28.79,28.87C484.2,130.77,490.61,126.92,496.38,120.75Zm52.7,9.06v-11H518.6V107h26.47v-11H518.6V84.66h30.08v-11H506.33v56.14Z"/><rect class="cls-2" x="0.26" width="600" height="204"/></g></svg>