<svg width="906" height="131" viewBox="0 0 906 131" fill="none" xmlns="http://www.w3.org/2000/svg">
<path d="M19.044 42L9.52198 51.4839L0 42L9.52198 32.5162L19.044 42ZM42.1688 18.9678L58.4922 35.2258L68.0142 25.7419L42.1688 0L16.3234 25.7419L25.8454 35.2258L42.1688 18.9678ZM74.8156 32.5162L65.2936 42L74.8156 51.4839L84.3376 42L74.8156 32.5162ZM42.1688 65.0323L25.8454 48.7742L16.3234 58.2581L42.1688 84L68.0142 58.2581L58.4922 48.7742L42.1688 65.0323ZM42.1688 51.4839L51.6908 42L42.1688 32.5162L32.6468 42L42.1688 51.4839ZM142.693 52.3974V52.2657C142.693 46.0796 139.39 42.9869 134.038 40.9469C137.342 39.1041 140.117 36.2092 140.117 31.0104V30.8787C140.117 23.6399 134.303 18.9677 124.855 18.9677H103.382V65.0322H125.383C135.822 65.0323 142.693 60.8206 142.693 52.3974ZM130.008 32.7215C130.008 36.1431 127.166 37.5909 122.674 37.5909H113.292V27.8516H123.334C127.629 27.8516 130.008 29.5627 130.008 32.5899V32.7215ZM132.585 51.1468C132.585 54.569 129.876 56.1485 125.383 56.1485H113.292V46.0141H125.052C130.272 46.0141 132.585 47.9224 132.585 51.0151V51.1468ZM164.031 65.0323V18.9678H153.856V65.0323H164.031ZM218.726 65.0323V18.9678H208.683V47.3302L187.011 18.9677H177.629V65.0322H187.672V35.7481L210.071 65.0323L218.726 65.0323ZM275.088 65.0323L255.266 18.6389H245.884L226.063 65.0323H236.436L240.665 54.7007H260.222L264.45 65.0323H275.088ZM256.588 45.7508H244.299L250.443 30.8126L256.588 45.7508ZM323.588 65.0323V18.9678H313.544V47.3302L291.873 18.9677H282.491V65.0322H292.533V35.7481L314.932 65.0323L323.588 65.0323ZM376.117 57.5963L369.642 51.0813C366.008 54.3719 362.771 56.4773 357.485 56.4773C349.556 56.4773 344.072 49.8969 344.072 41.9997V41.8687C344.072 33.9714 349.688 27.5227 357.485 27.5227C362.11 27.5227 365.744 29.4965 369.312 32.7215L375.787 25.2848C371.492 21.0732 366.272 18.1777 357.551 18.1777C343.345 18.1777 333.435 28.9042 333.435 41.9997V42.1313C333.435 55.3584 343.544 65.8216 357.154 65.8216C366.074 65.8216 371.359 62.6634 376.117 57.5963ZM419.528 65.0323V56.0168H394.421V46.343H416.225V37.3275H394.421V27.9832H419.198V18.9677H384.313V65.0322L419.528 65.0323Z" fill="#F0B90B"/>
<path d="M454.615 31.0533C454.615 27.9674 457.384 25.538 462.13 25.538C466.349 25.538 470.502 27.1795 474.655 30.2654L479.006 24.1592C474.325 20.4167 468.986 18.3813 462.262 18.3813C453.099 18.3813 446.506 23.7653 446.506 31.7755C446.506 40.311 452.044 43.2 461.866 45.5637C470.436 47.5334 472.282 49.3062 472.282 52.6547C472.282 56.2002 469.118 58.4983 464.108 58.4983C458.372 58.4983 453.956 56.3315 449.539 52.5234L444.661 58.3013C450.198 63.2256 456.856 65.655 463.91 65.655C473.6 65.655 480.39 60.5337 480.39 51.8668C480.39 44.1848 475.314 40.705 465.558 38.3413C456.724 36.2402 454.615 34.6645 454.615 31.0533Z" fill="#F0B90B"/>
<path d="M525.853 32.0381V64.9984H533.961V19.0379H525.326L511.284 40.7706L497.243 19.0379H488.607V64.9984H496.584V32.1695L511.021 53.7052H511.284L525.853 32.0381Z" fill="#F0B90B"/>
<path d="M568.383 18.7096H560.868L540.564 64.9984H548.871L553.617 53.9022H575.437L580.117 64.9984H588.687L568.383 18.7096ZM572.471 46.7455H556.583L564.494 28.3613L572.471 46.7455Z" fill="#F0B90B"/>
<path d="M634.44 64.9984L621.98 47.5991C628.441 45.8263 632.989 41.2302 632.989 33.6139C632.989 24.6188 626.463 19.0379 615.85 19.0379H595.282V64.9984H603.39V48.9779H613.542L624.881 64.9984H634.44ZM624.749 34.0735C624.749 38.8009 621.057 41.8212 615.256 41.8212H603.39V26.3916H615.19C621.189 26.3916 624.749 29.0179 624.749 34.0735Z" fill="#F0B90B"/>
<path d="M660.922 26.5229H675.557V19.0379H638.113V26.5229H652.748V64.9984H660.922V26.5229Z" fill="#F0B90B"/>
<path d="M739.451 57.6447L734.243 52.3921C730.288 56.0689 726.662 58.3669 720.993 58.3669C712.159 58.3669 705.765 51.0133 705.765 41.9525C705.765 32.8917 712.159 25.6693 720.993 25.6693C726.266 25.6693 730.222 27.9674 733.913 31.3816L739.121 25.4067C734.704 21.2046 729.562 18.25 721.059 18.25C707.083 18.25 697.261 28.9522 697.261 42.0838C697.261 55.3467 707.281 65.7863 720.729 65.7863C729.365 65.7863 734.638 62.6347 739.451 57.6447Z" fill="#F0B90B"/>
<path d="M776.781 45.6293V64.9984H784.889V19.0379H776.781V38.1443H754.763V19.0379H746.655V64.9984H754.763V45.6293H776.781Z" fill="#F0B90B"/>
<path d="M819.285 18.7096H811.77L791.466 64.9984H799.772L804.519 53.9022H826.339L831.019 64.9984H839.589L819.285 18.7096ZM823.372 46.7455H807.485L815.396 28.3613L823.372 46.7455Z" fill="#F0B90B"/>
<path d="M846.645 19.0379V64.9984H854.754V19.0379H846.645Z" fill="#F0B90B"/>
<path d="M898.023 50.8163L873.303 19.0379H865.788V64.9984H873.764V32.3008L899.21 64.9984H906V19.0379H898.023V50.8163Z" fill="#F0B90B"/>
<path d="M127.58 83.4698H120.056L99.728 130H108.044L112.796 118.846H134.642L139.328 130H147.908L127.58 83.4698ZM131.672 111.652H115.766L123.686 93.1718L131.672 111.652Z" fill="white"/>
<path d="M193.189 122.608L187.975 117.328C184.015 121.024 180.385 123.334 174.709 123.334C165.865 123.334 159.463 115.942 159.463 106.834C159.463 97.7258 165.865 90.4658 174.709 90.4658C179.989 90.4658 183.949 92.7758 187.645 96.2078L192.859 90.2018C188.437 85.9778 183.289 83.0078 174.775 83.0078C160.783 83.0078 150.949 93.7658 150.949 106.966C150.949 120.298 160.981 130.792 174.445 130.792C183.091 130.792 188.371 127.624 193.189 122.608Z" fill="white"/>
<path d="M240.626 122.608L235.412 117.328C231.452 121.024 227.822 123.334 222.146 123.334C213.302 123.334 206.9 115.942 206.9 106.834C206.9 97.7258 213.302 90.4658 222.146 90.4658C227.426 90.4658 231.386 92.7758 235.082 96.2078L240.296 90.2018C235.874 85.9778 230.726 83.0078 222.212 83.0078C208.22 83.0078 198.386 93.7658 198.386 106.966C198.386 120.298 208.418 130.792 221.882 130.792C230.528 130.792 235.808 127.624 240.626 122.608Z" fill="white"/>
<path d="M283.413 83.7998H249.159V130H283.743V122.74H257.277V110.332H280.443V103.072H257.277V91.0598H283.413V83.7998Z" fill="white"/>
<path d="M293.374 130H325.78V122.608H301.492V83.7998H293.374V130Z" fill="white"/>
<path d="M368.491 83.7998H334.237V130H368.821V122.74H342.355V110.332H365.521V103.072H342.355V91.0598H368.491V83.7998Z" fill="white"/>
<path d="M417.656 130L405.182 112.51C411.65 110.728 416.204 106.108 416.204 98.4518C416.204 89.4098 409.67 83.7998 399.044 83.7998H378.452V130H386.57V113.896H396.734L408.086 130H417.656ZM407.954 98.9138C407.954 103.666 404.258 106.702 398.45 106.702H386.57V91.1918H398.384C404.39 91.1918 407.954 93.8318 407.954 98.9138Z" fill="white"/>
<path d="M450.039 83.4698H442.515L422.187 130H430.503L435.255 118.846H457.101L461.787 130H470.367L450.039 83.4698ZM454.131 111.652H438.225L446.145 93.1718L454.131 111.652Z" fill="white"/>
<path d="M491.896 91.3238H506.548V83.7998H469.06V91.3238H483.712V130H491.896V91.3238Z" fill="white"/>
<path d="M558.909 106.834C558.909 93.7658 549.009 83.0078 534.819 83.0078C520.629 83.0078 510.597 93.8978 510.597 106.966C510.597 120.034 520.497 130.792 534.687 130.792C548.877 130.792 558.909 119.902 558.909 106.834ZM550.395 106.966C550.395 116.008 543.993 123.334 534.819 123.334C525.645 123.334 519.111 115.876 519.111 106.834C519.111 97.7918 525.513 90.4658 534.687 90.4658C543.861 90.4658 550.395 97.9238 550.395 106.966Z" fill="white"/>
<path d="M607.921 130L595.447 112.51C601.915 110.728 606.469 106.108 606.469 98.4518C606.469 89.4098 599.935 83.7998 589.309 83.7998H568.717V130H576.835V113.896H586.999L598.351 130H607.921ZM598.219 98.9138C598.219 103.666 594.523 106.702 588.715 106.702H576.835V91.1918H588.649C594.655 91.1918 598.219 93.8318 598.219 98.9138Z" fill="white"/>
<path d="M669.992 83.7998H636.794V130H642.008V109.87H667.022V105.118H642.008V88.6178H669.992V83.7998Z" fill="white"/>
<path d="M717.858 83.7998H712.644V110.662C712.644 120.76 707.232 125.908 698.718 125.908C689.874 125.908 684.594 120.298 684.594 110.332V83.7998H679.38V110.662C679.38 123.73 687.168 130.726 698.586 130.726C710.136 130.726 717.858 123.73 717.858 110.266V83.7998Z" fill="white"/>
<path d="M764.176 120.826L735.07 83.7998H730.186V130H735.268V92.1158L765.1 130H769.258V83.7998H764.176V120.826Z" fill="white"/>
<path d="M822.919 106.834C822.919 93.7658 812.887 83.7998 798.367 83.7998H782.329V130H798.367C812.887 130 822.919 119.902 822.919 106.834ZM817.507 106.966C817.507 117.262 810.049 125.182 798.367 125.182H787.543V88.6178H798.367C810.049 88.6178 817.507 96.6698 817.507 106.966Z" fill="white"/>
</svg>
