<svg xmlns="http://www.w3.org/2000/svg" viewBox="0 0 600 252"><defs><style>.cls-1{fill:none;}.cls-2{fill:#f0b90b;}</style></defs><title>Chain-Horizontal</title><g id="Logos"><rect class="cls-1" width="600" height="252"/><path class="cls-2" d="M226.87,126.23H203.65V77.42h22.66c10,0,16.11,5,16.11,12.62v.14c0,5.51-2.93,8.57-6.42,10.53,5.65,2.16,9.14,5.43,9.14,12v.14C245.14,121.76,237.88,126.23,226.87,126.23Zm4.88-34.38c0-3.21-2.51-5-7-5h-10.6V97.15H224c4.74,0,7.74-1.53,7.74-5.16Zm2.72,19.52c0-3.27-2.44-5.3-7.95-5.3H214.11v10.74h12.76c4.74,0,7.6-1.67,7.6-5.3Zm22.45,14.86V77.42h10.74v48.81Zm59.33,0-23.64-31v31H282V77.42h9.9l22.87,30.05v-30h10.6v48.81Zm57.39,0-4.46-11H348.54l-4.47,11H333.13l20.92-49.16H364l20.92,49.16ZM358.86,90l-6.49,15.83h13Zm68.06,36.26-23.64-31v31h-10.6V77.42h9.9l22.87,30.05v-30h10.6v48.81Zm44.56.83a24.63,24.63,0,0,1-25-25.1v-.14c0-13.88,10.46-25.24,25.45-25.24,9.2,0,14.71,3.07,19.25,7.53L484.31,92c-3.76-3.42-7.6-5.51-12.48-5.51-8.23,0-14.16,6.83-14.16,15.2v.14c0,8.37,5.79,15.34,14.16,15.34,5.58,0,9-2.23,12.83-5.72l6.83,6.91C486.47,123.72,480.9,127.06,471.48,127.06Zm28.67-.83V77.42H537V87H510.81v9.9h23v9.55h-23v10.25h26.5v9.56ZM388.51,175.59c-10.07,0-17.57-7.84-17.57-17.82s7.35-17.91,17.82-17.91a18,18,0,0,1,13.52,5.38l-3.9,4.49c-2.76-2.57-5.72-4.3-9.67-4.3-6.62,0-11.41,5.43-11.41,12.25S382.09,170,388.71,170c4.24,0,7-1.73,9.92-4.5l3.9,3.95C398.92,173.22,395,175.59,388.51,175.59Zm28-15.15V175h-6.07V140.45h6.07v14.36H433V140.45h6.07V175H433V160.44Zm66,14.56h-6.42l-3.5-8.34H456.24L452.68,175h-6.22l15.21-34.8h5.62Zm-18.12-27.54-5.92,13.82h11.9Zm31.78-7V175h-6.07V140.45Zm35.2,0h6V175h-5.09l-19-24.58V175h-6V140.45h5.62l18.51,23.89ZM354.68,154.89h-151v5.75h151ZM63.34,112,49.11,126.23l14.23,14.23,14.24-14.23Zm48.8-20.33,24.4,24.39,14.23-14.23L112.14,63.2,73.51,101.83l14.23,14.23ZM160.93,112,146.7,126.23l14.23,14.23,14.24-14.23Zm-48.79,48.79-24.4-24.4L73.51,150.62l38.63,38.63,38.63-38.63-14.23-14.23Zm0-20.33,14.23-14.23L112.14,112,97.91,126.23Z"/></g></svg>