<svg xmlns="http://www.w3.org/2000/svg" viewBox="0 0 600 252"><defs><style>.cls-1{fill:#f0b90b;}.cls-2{fill:none;}</style></defs><title>Charity-Horizontal</title><g id="Logos"><path class="cls-1" d="M226.87,126.39H203.65V77.57h22.66c10,0,16.11,5,16.11,12.63v.14c0,5.5-2.93,8.57-6.42,10.53,5.65,2.16,9.14,5.43,9.14,12V113C245.14,121.92,237.88,126.39,226.87,126.39ZM231.75,92c0-3.21-2.51-5-7-5h-10.6V97.31H224c4.74,0,7.74-1.54,7.74-5.16Zm2.72,19.52c0-3.27-2.44-5.3-7.95-5.3H214.11V117h12.76c4.74,0,7.6-1.67,7.6-5.3Zm22.45,14.86V77.57h10.74v48.82Zm59.33,0-23.64-31v31H282V77.57h9.9l22.87,30.06V77.57h10.6v48.82Zm57.39,0-4.46-11H348.54l-4.47,11H333.13l20.92-49.16H364l20.92,49.16ZM358.86,90.13,352.37,106h13Zm68.06,36.26-23.64-31v31h-10.6V77.57h9.9l22.87,30.06V77.57h10.6v48.82Zm44.56.83a24.63,24.63,0,0,1-25-25.1V102c0-13.88,10.46-25.24,25.45-25.24,9.2,0,14.71,3.07,19.25,7.53l-6.84,7.88c-3.76-3.42-7.6-5.51-12.48-5.51-8.23,0-14.16,6.83-14.16,15.2V102c0,8.37,5.79,15.34,14.16,15.34,5.58,0,9-2.23,12.83-5.72l6.83,6.91C486.47,123.88,480.9,127.22,471.48,127.22Zm28.67-.83V77.57H537v9.56H510.81V97h23v9.55h-23v10.25h26.5v9.56Zm-179.8,49.36c-10.07,0-17.58-7.84-17.58-17.82S310.13,140,320.59,140a18,18,0,0,1,13.53,5.38l-3.9,4.49c-2.77-2.57-5.73-4.3-9.68-4.3-6.61,0-11.4,5.43-11.4,12.25s4.79,12.34,11.4,12.34c4.25,0,7-1.73,9.93-4.5l3.89,3.95C330.76,173.38,326.81,175.75,320.35,175.75Zm28-15.15v14.56h-6.07V140.61h6.07V155h16.48V140.61h6.08v34.55h-6.08V160.6Zm66,14.56h-6.42l-3.51-8.34H388.07l-3.55,8.34H378.3l15.2-34.8h5.63Zm-18.12-27.54-5.92,13.82h11.89Zm47.71,27.54-8.49-12h-7.6v12h-6.08V140.61h15.41c7.94,0,12.83,4.19,12.83,11,0,5.72-3.41,9.18-8.24,10.51l9.33,13.08Zm-7.26-29h-8.83v11.6h8.88c4.34,0,7.11-2.27,7.11-5.83C443.83,148.11,441.16,146.14,436.67,146.14Zm28.93-5.53v34.55h-6.07V140.61Zm24.8,34.55h-6.12V146.24h-11v-5.63h28v5.63h-11Zm36.77,0h-6.12V161.54l-13.73-20.93h7.16l9.68,15.3,9.77-15.3h7l-13.72,20.78ZM286.46,155.05H203.65v5.75h82.81ZM63.34,112.16,49.11,126.39l14.23,14.23,14.24-14.23Zm48.8-20.34,24.4,24.4L150.77,102,112.14,63.36,73.51,102l14.23,14.23Zm48.79,20.34L146.7,126.39l14.23,14.23,14.24-14.23ZM112.14,161l-24.4-24.4L73.51,150.78l38.63,38.63,38.63-38.63-14.23-14.23Zm0-20.33,14.23-14.23-14.23-14.23L97.91,126.39Z"/><rect class="cls-2" width="600" height="252"/></g></svg>