<svg id="Icons" xmlns="http://www.w3.org/2000/svg" xmlns:xlink="http://www.w3.org/1999/xlink" viewBox="0 0 104 104"><defs><style>.cls-1{fill:none;}.cls-2{fill:#1f2834;}.cls-3{fill:url(#Dégradé_sans_nom_6);}</style><linearGradient id="Dégradé_sans_nom_6" x1="42.2" y1="65.87" x2="61.8" y2="46.27" gradientUnits="userSpaceOnUse"><stop offset="0" stop-color="#f8b700"/><stop offset="0.99" stop-color="#ffd900"/></linearGradient></defs><title>Participate - 104x104 - white bg</title><path class="cls-1" d="M0,0V104H104V0ZM11.89,51.3q0-.64,0-1.29l2.49.08c0,.4,0,.8,0,1.21s0,.81,0,1.21l-2.49.08Q11.89,51.94,11.89,51.3Zm80.19,1.29-2.5-.08c0-.4,0-.8,0-1.21s0-.81,0-1.21l2.5-.08c0,.43,0,.86,0,1.29S92.1,52.16,92.08,52.59Z"/><path class="cls-2" d="M25,41.26a3.44,3.44,0,1,1-3.44,3.44A3.45,3.45,0,0,1,25,41.26Zm0-2.5a5.94,5.94,0,1,0,5.94,5.94A5.94,5.94,0,0,0,25,38.76Z"/><path class="cls-2" d="M30.29,53H19.7A6.7,6.7,0,0,0,13,59.7v3.8H37V59.7A6.7,6.7,0,0,0,30.29,53Zm4.21,8h-19V59.72a4.22,4.22,0,0,1,4.2-4.2H30.29A4.22,4.22,0,0,1,34.5,59.7Z"/><path class="cls-3" d="M46.06,44.87A5.94,5.94,0,1,1,52,50.81,5.94,5.94,0,0,1,46.06,44.87Zm11.23,8.32H46.7A6.7,6.7,0,0,0,40,59.87v3.8H64v-3.8A6.7,6.7,0,0,0,57.29,53.19Z"/><path class="cls-2" d="M79,41.26a3.44,3.44,0,1,1-3.44,3.44A3.45,3.45,0,0,1,79,41.26Zm0-2.5a5.94,5.94,0,1,0,5.94,5.94A5.94,5.94,0,0,0,79,38.76Z"/><path class="cls-2" d="M84.29,55.52A4.22,4.22,0,0,1,88.5,59.7V61h-19V59.72a4.22,4.22,0,0,1,4.2-4.2ZM73.7,53A6.7,6.7,0,0,0,67,59.7v3.8H91V59.7A6.7,6.7,0,0,0,84.29,53Z"/><path class="cls-2" d="M52,13.7a3.44,3.44,0,1,1-3.44,3.43A3.44,3.44,0,0,1,52,13.7Zm0-2.5a5.94,5.94,0,1,0,5.94,5.93A5.93,5.93,0,0,0,52,11.2Z"/><path class="cls-2" d="M57.29,28a4.22,4.22,0,0,1,4.21,4.18v1.3h-19V32.15A4.22,4.22,0,0,1,46.7,28ZM46.7,25.45A6.7,6.7,0,0,0,40,32.13v3.8H64v-3.8a6.7,6.7,0,0,0-6.71-6.68Z"/><path class="cls-2" d="M52,69.17a3.44,3.44,0,1,1-3.44,3.44A3.44,3.44,0,0,1,52,69.17Zm0-2.5a5.94,5.94,0,1,0,5.94,5.94A5.94,5.94,0,0,0,52,66.67Z"/><path class="cls-2" d="M57.29,83.43a4.22,4.22,0,0,1,4.21,4.18v1.3h-19V87.62a4.22,4.22,0,0,1,4.2-4.19ZM46.7,80.93A6.7,6.7,0,0,0,40,87.61v3.8H64v-3.8a6.7,6.7,0,0,0-6.71-6.68Z"/><path class="cls-2" d="M89.37,47.13c-.08-.8-.2-1.61-.34-2.41l2.46-.43c.15.85.27,1.71.37,2.57Z"/><path class="cls-2" d="M88.41,41.86c-.2-.78-.43-1.57-.69-2.34l2.38-.78c.27.82.51,1.66.73,2.49Z"/><path class="cls-2" d="M86.7,36.78c-.32-.75-.66-1.5-1-2.22l2.24-1.11c.38.77.75,1.56,1.08,2.36Z"/><path class="cls-2" d="M84.28,32c-.42-.69-.87-1.38-1.33-2L85,28.52q.73,1.07,1.41,2.19Z"/><path class="cls-2" d="M81.2,27.6c-.52-.63-1-1.25-1.6-1.84l1.83-1.7c.59.63,1.16,1.29,1.71,2Z"/><path class="cls-2" d="M77.53,23.69c-.6-.55-1.22-1.09-1.85-1.6l1.58-1.94c.67.54,1.33,1.12,2,1.7Z"/><path class="cls-2" d="M73.34,20.33c-.67-.46-1.36-.9-2-1.32l1.28-2.14c.74.44,1.48.91,2.19,1.4Z"/><path class="cls-2" d="M68.71,17.61c-.72-.37-1.47-.71-2.22-1l1-2.31c.8.34,1.59.7,2.37,1.09Z"/><path class="cls-2" d="M63.75,15.57c-.77-.26-1.56-.49-2.34-.69L62,12.46c.84.22,1.68.46,2.5.73Z"/><path class="cls-2" d="M92.1,51.3c0,.43,0,.86,0,1.29l-2.5-.08c0-.4,0-.8,0-1.21s0-.81,0-1.21l2.5-.08C92.1,50.44,92.1,50.87,92.1,51.3Z"/><path class="cls-2" d="M14.39,51.3c0,.41,0,.81,0,1.21l-2.49.08q0-.65,0-1.29t0-1.29l2.49.08C14.4,50.49,14.39,50.89,14.39,51.3Z"/><path class="cls-2" d="M14.62,47.17l-2.49-.28c.1-.86.22-1.73.37-2.57l2.46.43C14.82,45.54,14.71,46.35,14.62,47.17Z"/><path class="cls-2" d="M15.58,41.89l-2.42-.63c.22-.84.46-1.68.73-2.49l2.38.78C16,40.31,15.79,41.1,15.58,41.89Z"/><path class="cls-2" d="M17.29,36.8l-2.31-1c.34-.81.71-1.61,1.09-2.37l2.23,1.11C18,35.3,17.61,36.05,17.29,36.8Z"/><path class="cls-2" d="M19.71,32l-2.14-1.28c.44-.75.92-1.48,1.41-2.19L21,30C20.57,30.62,20.13,31.32,19.71,32Z"/><path class="cls-2" d="M22.79,27.62,20.85,26c.54-.67,1.12-1.33,1.7-2l1.84,1.7C23.84,26.36,23.3,27,22.79,27.62Z"/><path class="cls-2" d="M26.46,23.7l-1.7-1.83c.64-.59,1.3-1.17,2-1.71L28.3,22.1C27.67,22.61,27.05,23.15,26.46,23.7Z"/><path class="cls-2" d="M30.64,20.34l-1.42-2.05q1.08-.75,2.19-1.41L32.69,19C32,19.44,31.31,19.88,30.64,20.34Z"/><path class="cls-2" d="M35.26,17.62l-1.11-2.24c.77-.39,1.56-.75,2.36-1.08l1,2.3C36.73,16.91,36,17.26,35.26,17.62Z"/><path class="cls-2" d="M40.22,15.58l-.78-2.38c.81-.27,1.66-.51,2.49-.73l.63,2.42Q41.38,15.19,40.22,15.58Z"/><path class="cls-2" d="M36.54,88.32c-.8-.34-1.6-.7-2.37-1.09L35.28,85c.73.36,1.47.71,2.22,1Z"/><path class="cls-2" d="M31.43,85.73c-.74-.44-1.48-.91-2.19-1.41l1.42-2c.67.46,1.36.9,2.05,1.32Z"/><path class="cls-2" d="M26.74,82.45c-.67-.54-1.33-1.12-2-1.7l1.7-1.84c.59.55,1.22,1.09,1.85,1.6Z"/><path class="cls-2" d="M22.57,78.54c-.59-.63-1.16-1.29-1.71-2L22.8,75c.51.63,1.05,1.25,1.6,1.84Z"/><path class="cls-2" d="M19,74.08c-.49-.71-1-1.44-1.41-2.19l2.14-1.28c.42.69.87,1.38,1.32,2Z"/><path class="cls-2" d="M16.08,69.15c-.38-.77-.75-1.56-1.08-2.36l2.3-1c.32.75.66,1.5,1,2.22Z"/><path class="cls-2" d="M67.49,88.3l-1-2.3c.75-.31,1.49-.66,2.22-1l1.11,2.24C69.08,87.61,68.28,88,67.49,88.3Z"/><path class="cls-2" d="M72.59,85.72,71.3,83.58c.69-.42,1.38-.86,2-1.32l1.43,2Q73.7,85.06,72.59,85.72Z"/><path class="cls-2" d="M77.27,82.44,75.7,80.5c.62-.51,1.24-1,1.84-1.6l1.7,1.83C78.6,81.32,77.94,81.9,77.27,82.44Z"/><path class="cls-2" d="M81.44,78.53l-1.83-1.7c.55-.59,1.09-1.22,1.6-1.85l1.94,1.58C82.6,77.23,82,77.89,81.44,78.53Z"/><path class="cls-2" d="M85,74.06l-2-1.42c.45-.67.9-1.36,1.32-2l2.14,1.28C86,72.61,85.51,73.35,85,74.06Z"/><path class="cls-2" d="M87.93,69.13,85.69,68c.36-.72.7-1.47,1-2.22l2.3,1C88.68,67.57,88.31,68.36,87.93,69.13Z"/></svg>