<?xml version="1.0" encoding="UTF-8"?>
<svg width="82px" height="81px" viewBox="0 0 82 81" version="1.1" xmlns="http://www.w3.org/2000/svg" xmlns:xlink="http://www.w3.org/1999/xlink">
    <!-- Generator: Sketch 64 (93537) - https://sketch.com -->
    <title>collaborate_white</title>
    <desc>Created with Sketch.</desc>
    <g id="页面-1" stroke="none" stroke-width="1" fill="none" fill-rule="evenodd">
        <g id="collaborate_white" transform="translate(-11.000000, -11.000000)">
            <path d="M0,0 L0,104 L104,104 L104,0 L0,0 Z M11.89,51.3 C11.89,50.8733333 11.89,50.4433333 11.89,50.01 L14.38,50.09 C14.38,50.49 14.38,50.89 14.38,51.3 C14.38,51.71 14.38,52.11 14.38,52.51 L11.89,52.59 C11.89,52.1566667 11.89,51.7266667 11.89,51.3 Z M92.08,52.59 L89.58,52.51 C89.58,52.11 89.58,51.71 89.58,51.3 C89.58,50.89 89.58,50.49 89.58,50.09 L92.08,50.01 C92.08,50.44 92.08,50.87 92.08,51.3 C92.08,51.73 92.1,52.16 92.08,52.59 L92.08,52.59 Z" id="形状"></path>
            <path d="M25,41.26 C26.8998595,41.26 28.44,42.8001405 28.44,44.7 C28.44,46.5998595 26.8998595,48.14 25,48.14 C23.1001405,48.14 21.56,46.5998595 21.56,44.7 C21.5654923,42.8024201 23.1024201,41.2654923 25,41.26 L25,41.26 Z M25,38.76 C21.7194286,38.76 19.06,41.4194286 19.06,44.7 C19.06,47.9805714 21.7194286,50.64 25,50.64 C28.2805714,50.64 30.94,47.9805714 30.94,44.7 C30.94,41.4194286 28.2805714,38.76 25,38.76 Z" id="形状" fill="#FFFFFF" fill-rule="nonzero"></path>
            <path d="M30.29,52.9999925 L19.7,52.9999925 C15.9996922,52.9999925 13,55.9996922 13,59.7 L13,63.4999925 L37,63.4999925 L37,59.7 C37,57.9213155 36.2927386,56.2156271 35.0340812,54.9588455 C33.7754238,53.7020639 32.0686825,52.9973452 30.29,52.9999925 Z M34.5,61 L15.5,61 L15.5,59.72 C15.510946,57.4049532 17.3849532,55.530946 19.7,55.52 L30.29,55.52 C32.6012111,55.525373 34.478099,57.3888865 34.5,59.7 L34.5,61 Z" id="形状" fill="#FFFFFF" fill-rule="nonzero"></path>
            <path d="M46.06,44.87 C46.06,41.5894286 48.7194286,38.93 52,38.93 C55.2805714,38.93 57.94,41.5894286 57.94,44.87 C57.94,48.1505714 55.2805714,50.81 52,50.81 C50.4246141,50.81 48.9137518,50.1841804 47.7997857,49.0702143 C46.6858196,47.9562482 46.06,46.4453859 46.06,44.87 L46.06,44.87 Z M57.29,53.1899923 L46.7,53.1899923 C43.0074886,53.1899923 40.0110224,56.1775051 40,59.87 L40,63.67 L64,63.67 L64,59.87 C63.9889701,56.1735987 60.9864136,53.1844665 57.29,53.1899923 L57.29,53.1899923 Z" id="形状" fill="#FCCC00" fill-rule="nonzero"></path>
            <path d="M79,41.26 C80.8998595,41.26 82.44,42.8001405 82.44,44.7 C82.44,46.5998595 80.8998595,48.14 79,48.14 C77.1001405,48.14 75.56,46.5998595 75.56,44.7 C75.5654923,42.8024201 77.1024201,41.2654923 79,41.26 L79,41.26 Z M79,38.76 C75.7194286,38.76 73.06,41.4194286 73.06,44.7 C73.06,47.9805714 75.7194286,50.64 79,50.64 C82.2805714,50.64 84.94,47.9805714 84.94,44.7 C84.94,41.4194286 82.2805714,38.76 79,38.76 L79,38.76 Z" id="形状" fill="#FFFFFF" fill-rule="nonzero"></path>
            <path d="M84.29,55.52 C86.6012111,55.525373 88.478099,57.3888865 88.5,59.7 L88.5,61 L69.5,61 L69.5,59.72 C69.510946,57.4049532 71.3849532,55.530946 73.7,55.52 L84.29,55.52 Z M73.7,52.9999925 C69.9996922,52.9999925 67,55.9996922 67,59.7 L67,63.4999925 L91,63.4999925 L91,59.7 C91,57.9213155 90.2927386,56.2156271 89.0340812,54.9588455 C87.7754238,53.7020639 86.0686825,52.9973452 84.29,52.9999925 L73.7,52.9999925 Z" id="形状" fill="#FFFFFF" fill-rule="nonzero"></path>
            <path d="M52,13.7 C53.3922589,13.7 54.6472357,14.5392211 55.1790911,15.8258891 C55.7109465,17.1125571 55.4147972,18.5929438 54.4288895,19.5759854 C53.4429819,20.5590271 51.9617394,20.8508654 50.6766251,20.3152665 C49.3915109,19.7796676 48.5559527,18.522253 48.5599854,17.13 C48.5655115,15.2340469 50.1040389,13.7 52,13.7 L52,13.7 Z M52,11.1999916 C49.596585,11.1999916 47.4300155,12.6483223 46.5112054,14.8691761 C45.5923952,17.09003 46.102432,19.6457126 47.8033341,21.3437513 C49.5042363,23.04179 52.0607747,23.5475199 54.2800772,22.6249691 C56.4993798,21.7024183 57.9440462,19.5334116 57.9400085,17.13 C57.9400085,15.5555321 57.3138636,14.0456959 56.1996092,12.9333173 C55.0853547,11.8209387 53.5744657,11.1973449 52,11.1999916 Z" id="形状" fill="#FFFFFF" fill-rule="nonzero"></path>
            <path d="M57.29,28 C59.6012111,28.005373 61.478099,29.8688865 61.5,32.18 L61.5,33.48 L42.5,33.48 L42.5,32.15 C42.5380579,29.8545023 44.4042112,28.0105652 46.7,28 L57.29,28 Z M46.7,25.4499923 C43.0074886,25.4499923 40.0110224,28.4375051 40,32.13 L40,35.93 L64,35.93 L64,32.13 C63.9889701,28.4335987 60.9864136,25.4444665 57.29,25.4499923 L46.7,25.4499923 Z" id="形状" fill="#FFFFFF" fill-rule="nonzero"></path>
            <path d="M52,69.17 C53.3913501,69.17 54.645699,70.0081291 55.1781456,71.293569 C55.7105922,72.5790089 55.4162804,74.0586142 54.4324473,75.0424473 C53.4486142,76.0262804 51.9690089,76.3205922 50.683569,75.7881456 C49.3981291,75.255699 48.56,74.0013501 48.56,72.61 C48.56,70.7101405 50.1001405,69.17 52,69.17 Z M52,66.67 C48.7194286,66.67 46.06,69.3294286 46.06,72.61 C46.06,75.8905714 48.7194286,78.55 52,78.55 C55.2805714,78.55 57.94,75.8905714 57.94,72.61 C57.94,69.3294286 55.2805714,66.67 52,66.67 L52,66.67 Z" id="形状" fill="#FFFFFF" fill-rule="nonzero"></path>
            <path d="M57.29,83.43 C59.6012111,83.435373 61.478099,85.2988865 61.5,87.61 L61.5,88.91 L42.5,88.91 L42.5,87.62 C42.5164046,85.3088594 44.3888268,83.4408953 46.7,83.43 L57.29,83.43 Z M46.7,80.9299923 C43.0074886,80.9299923 40.0110224,83.9175051 40,87.61 L40,91.41 L64,91.41 L64,87.61 C63.9889701,83.9135987 60.9864136,80.9244665 57.29,80.9299923 L46.7,80.9299923 Z" id="形状" fill="#FFFFFF" fill-rule="nonzero"></path>
            <path d="M89.37,47.13 C89.29,46.33 89.17,45.52 89.03,44.72 L91.49,44.29 C91.64,45.14 91.76,46 91.86,46.86 L89.37,47.13 Z" id="路径" fill="#FFFFFF" fill-rule="nonzero"></path>
            <path d="M88.41,41.86 C88.21,41.08 87.98,40.29 87.72,39.52 L90.1,38.74 C90.37,39.56 90.61,40.4 90.83,41.23 L88.41,41.86 Z" id="路径" fill="#FFFFFF" fill-rule="nonzero"></path>
            <path d="M86.7,36.78 C86.38,36.03 86.04,35.28 85.7,34.56 L87.94,33.45 C88.32,34.22 88.69,35.01 89.02,35.81 L86.7,36.78 Z" id="路径" fill="#FFFFFF" fill-rule="nonzero"></path>
            <path d="M84.28,32 C83.86,31.31 83.41,30.62 82.95,30 L85,28.52 C85.4866667,29.2333333 85.9566667,29.9633333 86.41,30.71 L84.28,32 Z" id="路径" fill="#FFFFFF" fill-rule="nonzero"></path>
            <path d="M81.2,27.6 C80.68,26.97 80.2,26.35 79.6,25.76 L81.43,24.06 C82.02,24.69 82.59,25.35 83.14,26.06 L81.2,27.6 Z" id="路径" fill="#FFFFFF" fill-rule="nonzero"></path>
            <path d="M77.53,23.69 C76.93,23.14 76.31,22.6 75.68,22.09 L77.26,20.15 C77.93,20.69 78.59,21.27 79.26,21.85 L77.53,23.69 Z" id="路径" fill="#FFFFFF" fill-rule="nonzero"></path>
            <path d="M73.34,20.33 C72.67,19.87 71.98,19.43 71.34,19.01 L72.62,16.87 C73.36,17.31 74.1,17.78 74.81,18.27 L73.34,20.33 Z" id="路径" fill="#FFFFFF" fill-rule="nonzero"></path>
            <path d="M68.71,17.61 C67.99,17.24 67.24,16.9 66.49,16.61 L67.49,14.3 C68.29,14.64 69.08,15 69.86,15.39 L68.71,17.61 Z" id="路径" fill="#FFFFFF" fill-rule="nonzero"></path>
            <path d="M63.75,15.57 C62.98,15.31 62.19,15.08 61.41,14.88 L62,12.46 C62.84,12.68 63.68,12.92 64.5,13.19 L63.75,15.57 Z" id="路径" fill="#FFFFFF" fill-rule="nonzero"></path>
            <path d="M92.1,51.3 C92.1,51.73 92.1,52.16 92.1,52.59 L89.6,52.51 C89.6,52.11 89.6,51.71 89.6,51.3 C89.6,50.89 89.6,50.49 89.6,50.09 L92.1,50.01 C92.1,50.44 92.1,50.87 92.1,51.3 Z" id="路径" fill="#FFFFFF" fill-rule="nonzero"></path>
            <path d="M14.39,51.3 C14.39,51.71 14.39,52.11 14.39,52.51 L11.9,52.59 C11.9,52.1566667 11.9,51.7266667 11.9,51.3 C11.9,50.8733333 11.9,50.4433333 11.9,50.01 L14.39,50.09 C14.4,50.49 14.39,50.89 14.39,51.3 Z" id="路径" fill="#FFFFFF" fill-rule="nonzero"></path>
            <path d="M14.62,47.17 L12.13,46.89 C12.23,46.03 12.35,45.16 12.5,44.32 L14.96,44.75 C14.82,45.54 14.71,46.35 14.62,47.17 Z" id="路径" fill="#FFFFFF" fill-rule="nonzero"></path>
            <path d="M15.58,41.89 L13.16,41.26 C13.38,40.42 13.62,39.58 13.89,38.77 L16.27,39.55 C16,40.31 15.79,41.1 15.58,41.89 Z" id="路径" fill="#FFFFFF" fill-rule="nonzero"></path>
            <path d="M17.29,36.8 L14.98,35.8 C15.32,34.99 15.69,34.19 16.07,33.43 L18.3,34.54 C18,35.3 17.61,36.05 17.29,36.8 Z" id="路径" fill="#FFFFFF" fill-rule="nonzero"></path>
            <path d="M19.71,32 L17.57,30.72 C18.01,29.97 18.49,29.24 18.98,28.53 L21,30 C20.57,30.62 20.13,31.32 19.71,32 Z" id="路径" fill="#FFFFFF" fill-rule="nonzero"></path>
            <path d="M22.79,27.62 L20.85,26 C21.39,25.33 21.97,24.67 22.55,24 L24.39,25.7 C23.84,26.36 23.3,27 22.79,27.62 Z" id="路径" fill="#FFFFFF" fill-rule="nonzero"></path>
            <path d="M26.46,23.7 L24.76,21.87 C25.4,21.28 26.06,20.7 26.76,20.16 L28.3,22.1 C27.67,22.61 27.05,23.15 26.46,23.7 Z" id="路径" fill="#FFFFFF" fill-rule="nonzero"></path>
            <path d="M30.64,20.34 L29.22,18.29 C29.94,17.79 30.67,17.32 31.41,16.88 L32.69,19 C32,19.44 31.31,19.88 30.64,20.34 Z" id="路径" fill="#FFFFFF" fill-rule="nonzero"></path>
            <path d="M35.26,17.62 L34.15,15.38 C34.92,14.99 35.71,14.63 36.51,14.3 L37.51,16.6 C36.73,16.91 36,17.26 35.26,17.62 Z" id="路径" fill="#FFFFFF" fill-rule="nonzero"></path>
            <path d="M40.22,15.58 L39.44,13.2 C40.25,12.93 41.1,12.69 41.93,12.47 L42.56,14.89 C41.7733333,15.09 40.9933333,15.32 40.22,15.58 Z" id="路径" fill="#FFFFFF" fill-rule="nonzero"></path>
            <path d="M36.54,88.32 C35.74,87.98 34.94,87.62 34.17,87.23 L35.28,85 C36.01,85.36 36.75,85.71 37.5,86 L36.54,88.32 Z" id="路径" fill="#FFFFFF" fill-rule="nonzero"></path>
            <path d="M31.43,85.73 C30.69,85.29 29.95,84.82 29.24,84.32 L30.66,82.32 C31.33,82.78 32.02,83.22 32.71,83.64 L31.43,85.73 Z" id="路径" fill="#FFFFFF" fill-rule="nonzero"></path>
            <path d="M26.74,82.45 C26.07,81.91 25.41,81.33 24.74,80.75 L26.44,78.91 C27.03,79.46 27.66,80 28.29,80.51 L26.74,82.45 Z" id="路径" fill="#FFFFFF" fill-rule="nonzero"></path>
            <path d="M22.57,78.54 C21.98,77.91 21.41,77.25 20.86,76.54 L22.8,75 C23.31,75.63 23.85,76.25 24.4,76.84 L22.57,78.54 Z" id="路径" fill="#FFFFFF" fill-rule="nonzero"></path>
            <path d="M19,74.08 C18.51,73.37 18,72.64 17.59,71.89 L19.73,70.61 C20.15,71.3 20.6,71.99 21.05,72.61 L19,74.08 Z" id="路径" fill="#FFFFFF" fill-rule="nonzero"></path>
            <path d="M16.08,69.15 C15.7,68.38 15.33,67.59 15,66.79 L17.3,65.79 C17.62,66.54 17.96,67.29 18.3,68.01 L16.08,69.15 Z" id="路径" fill="#FFFFFF" fill-rule="nonzero"></path>
            <path d="M67.49,88.3 L66.49,86 C67.24,85.69 67.98,85.34 68.71,85 L69.82,87.24 C69.08,87.61 68.28,88 67.49,88.3 Z" id="路径" fill="#FFFFFF" fill-rule="nonzero"></path>
            <path d="M72.59,85.72 L71.3,83.58 C71.99,83.16 72.68,82.72 73.3,82.26 L74.73,84.26 C74.0433333,84.7933333 73.33,85.28 72.59,85.72 Z" id="路径" fill="#FFFFFF" fill-rule="nonzero"></path>
            <path d="M77.27,82.44 L75.7,80.5 C76.32,79.99 76.94,79.5 77.54,78.9 L79.24,80.73 C78.6,81.32 77.94,81.9 77.27,82.44 Z" id="路径" fill="#FFFFFF" fill-rule="nonzero"></path>
            <path d="M81.44,78.53 L79.61,76.83 C80.16,76.24 80.7,75.61 81.21,74.98 L83.15,76.56 C82.6,77.23 82,77.89 81.44,78.53 Z" id="路径" fill="#FFFFFF" fill-rule="nonzero"></path>
            <path d="M85,74.06 L83,72.64 C83.45,71.97 83.9,71.28 84.32,70.64 L86.46,71.92 C86,72.61 85.51,73.35 85,74.06 Z" id="路径" fill="#FFFFFF" fill-rule="nonzero"></path>
            <path d="M87.93,69.13 L85.69,68 C86.05,67.28 86.39,66.53 86.69,65.78 L88.99,66.78 C88.68,67.57 88.31,68.36 87.93,69.13 Z" id="路径" fill="#FFFFFF" fill-rule="nonzero"></path>
        </g>
    </g>
</svg>