<?xml version="1.0" encoding="UTF-8"?>
<svg width="100px" height="50px" viewBox="0 0 100 50" version="1.1" xmlns="http://www.w3.org/2000/svg" xmlns:xlink="http://www.w3.org/1999/xlink">
    <!-- Generator: Sketch 61.1 (89650) - https://sketch.com -->
    <title>logo-light</title>
    <desc>Created with Sketch.</desc>
    <g id="Page-1" stroke="none" stroke-width="1" fill="none" fill-rule="evenodd">
        <g id="画板" transform="translate(-276.000000, -1547.000000)">
            <g id="logo-light" transform="translate(276.000000, 1547.000000)">
                <g id="Group">
                    <path d="M3.22,41.2244898 L10.24,0.816326531 C10.3,0.448979592 10.54,0.204081633 10.9,0.204081633 L24.82,0.204081633 C32.56,0.204081633 36.04,4.48979592 36.04,11.7142857 C36.04,16.8571429 34.24,28.7346939 31.78,33.755102 C28.84,39.9387755 24.34,41.8367347 17.68,41.8367347 L3.76,41.8367347 C3.4,41.8367347 3.16,41.5918367 3.22,41.2244898 Z M10.9,35.3469388 C10.84,35.5918367 10.96,35.7142857 11.2,35.7142857 L17.2,35.7142857 C21.52,35.7142857 24.4,34.122449 26.26,30.3265306 C27.7,27.2653061 29.56,16.7959184 29.56,13.0612245 C29.56,8.2244898 26.92,6.32653061 22.24,6.32653061 L16.24,6.32653061 C16,6.32653061 15.94,6.44897959 15.88,6.69387755 L10.9,35.3469388 Z" id="D" fill="#FFFFFF" fill-rule="nonzero"></path>
                    <path d="M52.406,41.8367347 L49.088,41.8367347 C48.878,41.8367347 48.71,41.6653061 48.752,41.4081633 L49.004,39.822449 L48.962,39.822449 C47.828,41.2795918 45.854,42.3081633 43.04,42.3081633 C39.89,42.3081633 37.496,40.2938776 37.496,36.9510204 C37.496,32.1081633 40.814,29.5367347 46.484,29.5367347 L50.432,29.5367347 C50.6,29.5367347 50.726,29.4510204 50.768,29.2795918 L50.936,28.122449 C51.398,25.6367347 50.6,24.6081633 47.282,24.6081633 C45.098,24.6081633 43.586,25.2938776 42.536,26.0653061 C42.284,26.2367347 42.074,26.1938776 41.99,25.9795918 L40.982,23.2795918 C40.898,23.0653061 40.982,22.8510204 41.15,22.722449 C42.872,21.522449 45.56,20.7081633 48.374,20.7081633 C54.128,20.7081633 56.102,22.8081633 55.22,27.8653061 L52.868,41.4081633 C52.826,41.6653061 52.658,41.8367347 52.406,41.8367347 Z M44.804,38.622449 C47.576,38.622449 49.382,37.3795918 49.76,34.9795918 L50.054,33.222449 C50.096,33.0510204 50.012,32.9653061 49.844,32.9653061 L46.61,32.9653061 C43.166,32.9653061 41.864,34.1653061 41.864,36.3510204 C41.864,37.7653061 42.83,38.622449 44.804,38.622449 Z M61.352,49.5510204 L57.698,49.5510204 C57.446,49.5510204 57.278,49.3795918 57.32,49.122449 L62.066,21.6081633 C62.108,21.3510204 62.276,21.1795918 62.528,21.1795918 L66.182,21.1795918 C66.434,21.1795918 66.56,21.3510204 66.518,21.6081633 L66.224,23.2367347 L66.266,23.2367347 C67.484,21.7795918 69.29,20.7081633 71.936,20.7081633 C75.716,20.7081633 77.858,23.3653061 77.858,27.522449 C77.858,30.2653061 77.102,34.9367347 75.8,37.5938776 C74.162,40.9367347 71.684,42.3081633 68.324,42.3081633 C65.552,42.3081633 64.04,41.1081633 63.41,39.7367347 L63.368,39.7367347 L61.772,49.122449 C61.73,49.3795918 61.604,49.5510204 61.352,49.5510204 Z M67.694,38.2795918 C69.584,38.2795918 71.012,37.2938776 71.894,35.4510204 C72.65,33.9081633 73.322,30.2653061 73.322,28.4653061 C73.322,26.0653061 72.398,24.7367347 70.088,24.7367347 C68.198,24.7367347 66.77,25.6795918 65.888,27.5653061 C65.174,29.022449 64.46,32.7081633 64.46,34.5510204 C64.46,36.9081633 65.384,38.2795918 67.694,38.2795918 Z M83.276,49.5510204 L79.622,49.5510204 C79.37,49.5510204 79.202,49.3795918 79.244,49.122449 L83.99,21.6081633 C84.032,21.3510204 84.2,21.1795918 84.452,21.1795918 L88.106,21.1795918 C88.358,21.1795918 88.484,21.3510204 88.442,21.6081633 L88.148,23.2367347 L88.19,23.2367347 C89.408,21.7795918 91.214,20.7081633 93.86,20.7081633 C97.64,20.7081633 99.782,23.3653061 99.782,27.522449 C99.782,30.2653061 99.026,34.9367347 97.724,37.5938776 C96.086,40.9367347 93.608,42.3081633 90.248,42.3081633 C87.476,42.3081633 85.964,41.1081633 85.334,39.7367347 L85.292,39.7367347 L83.696,49.122449 C83.654,49.3795918 83.528,49.5510204 83.276,49.5510204 Z M89.618,38.2795918 C91.508,38.2795918 92.936,37.2938776 93.818,35.4510204 C94.574,33.9081633 95.246,30.2653061 95.246,28.4653061 C95.246,26.0653061 94.322,24.7367347 92.012,24.7367347 C90.122,24.7367347 88.694,25.6795918 87.812,27.5653061 C87.098,29.022449 86.384,32.7081633 86.384,34.5510204 C86.384,36.9081633 87.308,38.2795918 89.618,38.2795918 Z" id="app" fill="#FFFFFF" fill-rule="nonzero"></path>
                    <polygon id="Rectangle" fill="#17D8AF" points="1.62962963 13.2653061 22 13.2653061 20.3703704 19.3877551 0 19.3877551"></polygon>
                </g>
                <path d="M44.2332146,14.9755093 L46.1014183,2.11788935 C46.1173859,2.00100189 46.1812561,1.92307692 46.2770614,1.92307692 L50.2529822,1.92307692 C51.9934456,1.92307692 53.1271419,3.16987643 53.1271419,5.07903818 C53.1271419,7.24145608 52.0253807,8.89736168 50.4605604,9.5012802 L51.8018349,14.9170656 C51.8497376,15.0534343 51.7858674,15.1703217 51.6900621,15.1703217 L50.2529822,15.1703217 C50.1252418,15.1703217 50.0773391,15.111878 50.045404,14.9755093 L48.7839673,9.75453635 L46.8678609,9.75453635 C46.8039907,9.75453635 46.756088,9.79349883 46.756088,9.8714238 L46.005613,14.9755093 C45.9896454,15.0923967 45.9257752,15.1703217 45.8459375,15.1703217 L44.3769225,15.1703217 C44.2811172,15.1703217 44.217247,15.0923967 44.2332146,14.9755093 Z M47.1393093,7.80641211 L49.3587992,7.80641211 C50.4605604,7.78693087 51.3228083,6.91027496 51.3228083,5.39073806 C51.3228083,4.45563843 50.7799115,3.87120116 49.9336312,3.87120116 L47.7141412,3.87120116 C47.650271,3.87120116 47.6183359,3.91016364 47.6023684,3.98808861 L47.0594715,7.68952466 C47.043504,7.76744963 47.0754391,7.80641211 47.1393093,7.80641211 Z M57.0232249,15.3846154 C55.1709887,15.3846154 54.2289031,14.1183346 54.2289031,11.975398 C54.2289031,10.8649672 54.4364813,9.13113659 54.8516376,8.09863075 C55.4903398,6.50116887 56.5761334,5.56606924 58.2527265,5.56606924 C59.7856117,5.56606924 60.9512431,6.71546254 60.9512431,8.8583992 C60.9512431,9.3649115 60.9033404,9.92986753 60.7436649,10.9428921 C60.7276973,11.0597796 60.6478596,11.1377046 60.5520542,11.1377046 L55.9853339,11.1377046 C55.9214637,11.1377046 55.8895286,11.176667 55.8735611,11.254592 C55.841626,11.3909607 55.841626,11.5078482 55.841626,11.6442169 C55.841626,13.0468663 56.3685552,13.5533786 57.3266084,13.5533786 C58.0611159,13.5533786 58.7796558,13.10531 59.2427149,12.5793165 C59.3385202,12.4819103 59.418358,12.5013915 59.4822282,12.5793165 L60.168833,13.4949349 C60.2327032,13.5923411 60.2327032,13.7092285 60.1528654,13.8066348 C59.418358,14.6832907 58.3325643,15.3846154 57.0232249,15.3846154 Z M56.2088797,9.57920517 L59.1469095,9.57920517 C59.2107798,9.57920517 59.2586824,9.54024268 59.27465,9.46231771 C59.3065851,9.26750529 59.3225526,9.03373038 59.3225526,8.87788044 C59.3225526,7.80641211 58.8594936,7.31938105 58.0291808,7.31938105 C57.3106409,7.31938105 56.7038739,7.74796838 56.3845228,8.56618056 C56.2887175,8.81943671 56.1929121,9.15061783 56.1450095,9.46231771 C56.1290419,9.54024268 56.1450095,9.57920517 56.2088797,9.57920517 Z M65.5978012,15.1703217 L64.3842671,15.1703217 C64.2884618,15.1703217 64.2245916,15.0923967 64.208624,14.9755093 L62.8833171,5.97517533 C62.8833171,5.85828788 62.9152522,5.78036291 63.027025,5.78036291 L64.4321698,5.78036291 C64.5120075,5.78036291 64.5758777,5.83880663 64.5918453,5.97517533 L65.3582879,12.2286541 L65.390223,12.2286541 L67.929064,5.97517533 C67.9769666,5.83880663 68.0408368,5.78036291 68.1366422,5.78036291 L69.6216246,5.78036291 C69.71743,5.78036291 69.7813002,5.85828788 69.7333975,5.97517533 L65.8053794,14.9755093 C65.7574767,15.0923967 65.709574,15.1703217 65.5978012,15.1703217 Z M73.4219024,3.92964488 L72.0167577,3.92964488 C71.9209523,3.92964488 71.8730497,3.85171992 71.8890172,3.73483246 L72.1444981,2.11788935 C72.1604657,2.00100189 72.2243359,1.92307692 72.3201412,1.92307692 L73.7093183,1.92307692 C73.8051237,1.92307692 73.8530263,2.00100189 73.8370588,2.11788935 L73.5975455,3.73483246 C73.5815779,3.85171992 73.5177077,3.92964488 73.4219024,3.92964488 Z M71.8091795,15.1703217 L70.4200023,15.1703217 C70.324197,15.1703217 70.2603268,15.0923967 70.2762943,14.9755093 L71.5856337,5.97517533 C71.6016013,5.85828788 71.6654715,5.78036291 71.7612768,5.78036291 L73.150454,5.78036291 C73.2462593,5.78036291 73.294162,5.85828788 73.2781944,5.97517533 L71.968855,14.9755093 C71.9528875,15.0923967 71.9049848,15.1703217 71.8091795,15.1703217 Z M77.5095961,15.3846154 C75.6573599,15.3846154 74.7152742,14.1183346 74.7152742,11.975398 C74.7152742,10.8649672 74.9228524,9.13113659 75.3380088,8.09863075 C75.9767109,6.50116887 77.0625046,5.56606924 78.7390977,5.56606924 C80.2719828,5.56606924 81.4376142,6.71546254 81.4376142,8.8583992 C81.4376142,9.3649115 81.3897116,9.92986753 81.230036,10.9428921 C81.2140685,11.0597796 81.1342307,11.1377046 81.0384254,11.1377046 L76.4717051,11.1377046 C76.4078349,11.1377046 76.3758998,11.176667 76.3599322,11.254592 C76.3279971,11.3909607 76.3279971,11.5078482 76.3279971,11.6442169 C76.3279971,13.0468663 76.8549264,13.5533786 77.8129796,13.5533786 C78.5474871,13.5533786 79.266027,13.10531 79.729086,12.5793165 C79.8248913,12.4819103 79.9047291,12.5013915 79.9685993,12.5793165 L80.6552041,13.4949349 C80.7190743,13.5923411 80.7190743,13.7092285 80.6392366,13.8066348 C79.9047291,14.6832907 78.8189355,15.3846154 77.5095961,15.3846154 Z M76.6952508,9.57920517 L79.6332807,9.57920517 C79.6971509,9.57920517 79.7450536,9.54024268 79.7610211,9.46231771 C79.7929562,9.26750529 79.8089238,9.03373038 79.8089238,8.87788044 C79.8089238,7.80641211 79.3458647,7.31938105 78.515552,7.31938105 C77.797012,7.31938105 77.190245,7.74796838 76.8708939,8.56618056 C76.7750886,8.81943671 76.6792833,9.15061783 76.6313806,9.46231771 C76.6154131,9.54024268 76.6313806,9.57920517 76.6952508,9.57920517 Z M90.3794442,15.1703217 L89.1659101,15.1703217 C89.0701048,15.1703217 89.0062346,15.0923967 89.0062346,14.9755093 L88.4793053,8.7220305 L88.4473702,8.7220305 L86.0522372,14.9755093 C86.0043345,15.0923967 85.9404643,15.1703217 85.844659,15.1703217 L84.6151574,15.1703217 C84.5193521,15.1703217 84.4714494,15.0923967 84.4554819,14.9755093 L83.4335584,5.97517533 C83.4175909,5.85828788 83.4654935,5.78036291 83.5772664,5.78036291 L84.8866058,5.78036291 C84.9983787,5.78036291 85.0622489,5.83880663 85.0782164,5.97517533 L85.5891782,12.3650228 L85.6211133,12.3650228 L88.0162463,5.97517533 C88.064149,5.85828788 88.1280192,5.78036291 88.2238245,5.78036291 L89.3575208,5.78036291 C89.4533261,5.78036291 89.5171963,5.85828788 89.5331639,5.97517533 L90.0920282,12.3650228 L90.1079958,12.3650228 L92.4232911,5.97517533 C92.4711937,5.83880663 92.5190964,5.78036291 92.6308693,5.78036291 L94.1318193,5.78036291 C94.2116571,5.78036291 94.2595597,5.85828788 94.2116571,5.97517533 L90.5870224,14.9755093 C90.5391197,15.0923967 90.4752495,15.1703217 90.3794442,15.1703217 Z" id="Review" fill="#FFFFFF" fill-rule="nonzero"></path>
            </g>
        </g>
    </g>
</svg>