<svg xmlns="http://www.w3.org/2000/svg" viewBox="0 0 1000 290"><defs><style>.cls-1{fill:#fff;}.cls-2{fill:#f0b90b;}</style></defs><title>fellowship dark</title><g id="content"><path class="cls-1" d="M228,167.63H180.25v22.92h42.36V204H180.25v34.2H165.49v-84H228Z"/><path class="cls-1" d="M302.75,167.39H255.24v21.84h42.11v13.2H255.24V225h48.11v13.2H240.48v-84h62.27Z"/><path class="cls-1" d="M319.59,154.19h14.76v70.56h44.16v13.44H319.59Z"/><path class="cls-1" d="M390.61,154.19h14.76v70.56h44.16v13.44H390.61Z"/><path class="cls-1" d="M499,239.63c-25.8,0-43.8-19.56-43.8-43.32s18.24-43.56,44-43.56S543,172.31,543,196.07,524.79,239.63,499,239.63Zm0-73.32c-16.68,0-28.32,13.32-28.32,29.76s11.88,30,28.56,30,28.32-13.32,28.32-29.76S515.67,166.31,499,166.31Z"/><path class="cls-1" d="M604.49,154H617l20.64,62.52,20-62.28h15.48l-29.28,84.6H631.13l-20.64-60.36-20.64,60.36H577.13l-29.28-84.6h16l20,62.28Z"/><path class="cls-1" d="M715.8,189.47c17.76,4.32,27,10.68,27,24.72,0,15.84-12.36,25.2-30,25.2a51.74,51.74,0,0,1-35-13.44l8.88-10.56c8,7,16.08,10.92,26.52,10.92,9.12,0,14.88-4.2,14.88-10.68,0-6.12-3.36-9.36-19-13-17.88-4.32-28-9.6-28-25.2,0-14.64,12-24.48,28.68-24.48a46.56,46.56,0,0,1,30.48,10.56l-7.92,11.16c-7.56-5.64-15.12-8.64-22.8-8.64-8.64,0-13.68,4.44-13.68,10.08C695.88,182.75,699.72,185.63,715.8,189.47Z"/><path class="cls-1" d="M773.21,202.79v35.4H758.45v-84h14.76v34.92h40.08V154.19h14.76v84H813.29v-35.4Z"/><path class="cls-1" d="M863.61,154.19v84H848.85v-84Z"/><path class="cls-1" d="M915.64,211.19H899v27H884.2v-84h33.12c19.56,0,31.92,11,31.92,28.2C949.24,201.35,934.12,211.19,915.64,211.19Zm.48-43.56H899v30.24h17.16c11.16,0,18.12-6.12,18.12-15.12C934.24,172.79,927.16,167.63,916.12,167.63Z"/><path class="cls-2" d="M63.05,102.69,51.49,114.25,39.93,102.69,51.49,91.13ZM91.12,74.62l19.81,19.81,11.56-11.55L102.67,63.06,91.12,51.51,79.56,63.06,59.75,82.88,71.3,94.43Zm39.62,16.51-11.56,11.56,11.56,11.56,11.56-11.56ZM91.12,130.76,71.3,110.94,59.75,122.5l19.81,19.81,11.56,11.56,11.55-11.56,19.82-19.81-11.56-11.56Zm0-16.51,11.55-11.56L91.12,91.13,79.56,102.69Zm122,1.11v-.16c0-7.54-4-11.31-10.51-13.8,4-2.24,7.38-5.77,7.38-12.1v-.16c0-8.83-7.06-14.52-18.52-14.52H165.41v56.14h26.71C204.79,130.76,213.13,125.62,213.13,115.36Zm-15.4-24c0,4.17-3.45,5.94-8.9,5.94H177.44V85.45h12.19c5.21,0,8.1,2.08,8.1,5.77Zm3.13,22.45c0,4.18-3.29,6.1-8.74,6.1H177.44V107.58h14.28c6.33,0,9.14,2.33,9.14,6.09ZM239,130.76V74.62H226.68v56.14Zm66.38,0V74.62H293.22v34.56l-26.3-34.56H255.53v56.14h12.19V95.07l27.19,35.69Zm68.41,0L349.76,74.22H338.38l-24.06,56.54h12.59L332,118.17h23.74l5.13,12.59Zm-22.45-23.5H336.45l7.46-18.21Zm81.32,23.5V74.62H420.5v34.56L394.2,74.62H382.81v56.14H395V95.07l27.18,35.69Zm63.76-9.07-7.86-7.93c-4.41,4-8.34,6.57-14.76,6.57-9.62,0-16.28-8-16.28-17.64v-.16c0-9.63,6.82-17.48,16.28-17.48,5.62,0,10,2.4,14.36,6.33l7.86-9.06c-5.21-5.13-11.55-8.66-22.14-8.66-17.24,0-29.27,13.07-29.27,29v.16c0,16.12,12.27,28.87,28.79,28.87C484.26,131.72,490.67,127.87,496.45,121.69Zm52.69,9.07v-11H518.67V108h26.46V97H518.67V85.61h30.07v-11H506.4v56.14Z"/></g></svg>