<svg id="Icons" xmlns="http://www.w3.org/2000/svg" xmlns:xlink="http://www.w3.org/1999/xlink" viewBox="0 0 104 104"><defs><style>.cls-1{fill:#1f2834;}.cls-2{fill:url(#Dégradé_sans_nom_6);}.cls-3{fill:none;}</style><linearGradient id="Dégradé_sans_nom_6" x1="37.22" y1="93.56" x2="66.78" y2="64" gradientUnits="userSpaceOnUse"><stop offset="0" stop-color="#f8b700"/><stop offset="0.99" stop-color="#ffd900"/></linearGradient></defs><title>Grow - 104x104 - white bg</title><path class="cls-1" d="M52,13.05A18.72,18.72,0,1,0,70.72,31.76,18.71,18.71,0,0,0,52,13.05ZM52,48A16.22,16.22,0,1,1,68.22,31.76,16.23,16.23,0,0,1,52,48Z"/><path class="cls-1" d="M68.68,61.09H63.56c0,.34,0,.68,0,1a11.84,11.84,0,0,1-.09,1.47h5.16A18.69,18.69,0,0,1,87.31,82.15V88.5H71.9V91H89.81V82.15A21.1,21.1,0,0,0,68.68,61.09Zm-28.23,0H35.31A21.1,21.1,0,0,0,14.19,82.15V91H32.1V88.5H16.69V82.16A18.69,18.69,0,0,1,35.31,63.59h5.18a11.84,11.84,0,0,1-.09-1.47C40.4,61.77,40.42,61.43,40.45,61.09Z"/><path class="cls-2" d="M52,53a9.13,9.13,0,1,1-9.12,9.12A9.12,9.12,0,0,1,52,53Zm7,21.9H45a10.29,10.29,0,0,0-10.3,10.26V91H69.34V85.16A10.29,10.29,0,0,0,59,74.9Z"/><path class="cls-1" d="M15,63.39l-1.77-1.77.79-.79c.34-.33.69-.67,1-1l1.69,1.85c-.33.29-.65.6-1,.91Zm4-3.53-1.49-2c.69-.51,1.41-1,2.15-1.46l1.32,2.12C20.23,58.93,19.57,59.39,18.93,59.86Zm4.49-2.74-1.1-2.24c.78-.38,1.59-.73,2.39-1.05l.9,2.34C24.87,56.45,24.14,56.77,23.42,57.12Zm4.92-1.85-.66-2.41c.83-.23,1.68-.43,2.54-.59l.45,2.46C29.89,54.87,29.11,55.06,28.34,55.27Zm5.18-.92-.21-2.49c.86-.07,1.74-.11,2.6-.11v2.5C35.12,54.25,34.31,54.28,33.52,54.35Z"/><path class="cls-1" d="M95.05,73.47c-.25-.75-.55-1.5-.87-2.23l2.29-1c.35.79.67,1.61,1,2.43Zm-2.16-4.79c-.4-.7-.83-1.38-1.27-2l2.06-1.42c.48.71.95,1.46,1.38,2.21Zm-3-4.31c-.51-.61-1.06-1.21-1.62-1.77L90,60.83c.61.61,1.2,1.26,1.76,1.92Z"/><path class="cls-1" d="M74.74,50.12l-1.95-1.57c.5-.62,1-1.26,1.42-1.92L76.29,48C75.8,48.74,75.28,49.45,74.74,50.12Zm3.15-4.79-2.22-1.16c.37-.7.71-1.43,1-2.16L79,43C78.66,43.76,78.29,44.56,77.89,45.33ZM80,40l-2.4-.7c.22-.76.41-1.54.57-2.32l2.45.49C80.49,38.33,80.28,39.18,80,40Zm1.06-5.63-2.49-.23c.07-.79.11-1.59.11-2.38h2.5Q81.22,33.08,81.1,34.38Z"/><rect class="cls-3" width="104" height="104"/></svg>