<?xml version="1.0" encoding="UTF-8"?>
<svg width="85px" height="78px" viewBox="0 0 85 78" version="1.1" xmlns="http://www.w3.org/2000/svg" xmlns:xlink="http://www.w3.org/1999/xlink">
    <!-- Generator: Sketch 64 (93537) - https://sketch.com -->
    <title>grow_white</title>
    <desc>Created with Sketch.</desc>
    <defs>
        <linearGradient x1="14.4964195%" y1="106.736841%" x2="85.4076249%" y2="28.9473787%" id="linearGradient-1">
            <stop stop-color="#F8B700" offset="0%"></stop>
            <stop stop-color="#FFD900" offset="99%"></stop>
        </linearGradient>
    </defs>
    <g id="页面-1" stroke="none" stroke-width="1" fill="none" fill-rule="evenodd">
        <g id="grow_white" transform="translate(-13.000000, -13.000000)">
            <path d="M52,13.0499973 C44.427557,13.0499973 37.6009339,17.6120654 34.7040205,24.6084778 C31.8071071,31.6048901 33.4105445,39.6574799 38.7665007,45.0105749 C44.1224568,50.36367 52.1759022,51.9628045 59.1707657,49.0621531 C66.1656291,46.1615017 70.7240451,39.3324419 70.7200027,31.76 C70.7200027,26.7960664 68.7474016,22.0355886 65.2364328,18.5264953 C61.7254641,15.0174021 56.9639329,13.0473469 52,13.0499973 Z M52,48 C43.0445463,48 35.78369,40.7421113 35.7800123,31.7866584 C35.7763374,22.8312056 43.0312325,15.5673649 51.9866831,15.5599999 C60.9421337,15.5526461 68.2089575,22.8045532 68.2200031,31.76 C68.222653,36.0644639 66.5152553,40.1936819 63.473415,43.2392729 C60.4315748,46.2848639 56.3044639,47.9973487 52,48 Z" id="形状" fill="#FFFFFF" fill-rule="nonzero"></path>
            <path d="M68.68,61.0899782 L63.56,61.0899782 C63.56,61.43 63.56,61.77 63.56,62.09 C63.5605336,62.5813929 63.5304755,63.0723424 63.47,63.56 L68.63,63.56 C78.9093742,63.5653528 87.2550021,71.8707715 87.31,82.15 L87.31,88.5 L71.9,88.5 L71.9,91 L89.81,91 L89.81,82.15 C89.7879278,70.5006946 80.3293145,61.0734161 68.68,61.0899782 L68.68,61.0899782 Z M40.45,61.0899903 L35.31,61.0899903 C23.6645882,61.0789408 14.2120714,70.5046039 14.19,82.15 L14.19,91 L32.1,91 L32.1,88.5 L16.69,88.5 L16.69,82.16 C16.7557285,71.9119306 25.0617909,63.6281723 35.31,63.5899903 L40.49,63.5899903 C40.4295245,63.1023424 40.3994664,62.6113929 40.4,62.12 C40.4,61.77 40.42,61.43 40.45,61.0899903 Z" id="形状" fill="#FFFFFF" fill-rule="nonzero"></path>
            <path d="M52,52.9999945 C55.6945572,52.9959556 59.0273863,55.218925 60.443101,58.6314784 C61.8588158,62.0440319 61.0783275,65.9734314 58.4658794,68.5858794 C55.8534314,71.1983275 51.9240319,71.9788158 48.5114784,70.563101 C45.098925,69.1473863 42.8759556,65.8145572 42.8799945,62.12 C42.8799945,57.0831631 46.9631631,52.9999945 52,52.9999945 L52,52.9999945 Z M59,74.8998781 L45,74.8998781 C39.3247826,74.8944606 34.7165431,79.484804 34.7,85.16 L34.7,91 L69.34,91 L69.34,85.16 C69.3320656,82.4274398 68.2375698,79.8102495 66.2978607,77.8855478 C64.3581516,75.9608461 61.7325394,74.8867107 59,74.8998781 Z" id="形状" fill="url(#linearGradient-1)" fill-rule="nonzero"></path>
            <path d="M15,63.39 L13.23,61.62 L14.02,60.83 C14.36,60.5 14.71,60.16 15.02,59.83 L16.71,61.68 C16.38,61.97 16.06,62.28 15.71,62.59 L15,63.39 Z M19,59.86 L17.51,57.86 C18.2,57.35 18.92,56.86 19.66,56.4 L20.98,58.52 C20.23,58.93 19.57,59.39 18.93,59.86 L19,59.86 Z M23.49,57.12 L22.39,54.88 C23.17,54.5 23.98,54.15 24.78,53.83 L25.68,56.17 C24.87,56.45 24.14,56.77 23.42,57.12 L23.49,57.12 Z M28.41,55.27 L27.75,52.86 C28.58,52.63 29.43,52.43 30.29,52.27 L30.74,54.73 C29.89,54.87 29.11,55.06 28.34,55.27 L28.41,55.27 Z M33.59,54.35 L33.38,51.86 C34.24,51.79 35.12,51.75 35.98,51.75 L35.98,54.25 C35.12,54.25 34.31,54.28 33.52,54.35 L33.59,54.35 Z" id="形状" fill="#FFFFFF" fill-rule="nonzero"></path>
            <path d="M95.05,73.47 C94.8,72.72 94.5,71.97 94.18,71.24 L96.47,70.24 C96.82,71.03 97.14,71.85 97.47,72.67 L95.05,73.47 Z M92.89,68.68 C92.49,67.98 92.06,67.3 91.62,66.68 L93.68,65.26 C94.16,65.97 94.63,66.72 95.06,67.47 L92.89,68.68 Z M89.89,64.37 C89.38,63.76 88.83,63.16 88.27,62.6 L90,60.83 C90.61,61.44 91.2,62.09 91.76,62.75 L89.89,64.37 Z" id="形状" fill="#FFFFFF" fill-rule="nonzero"></path>
            <path d="M74.74,50.12 L72.79,48.55 C73.29,47.93 73.79,47.29 74.21,46.63 L76.29,48 C75.8,48.74 75.28,49.45 74.74,50.12 Z M77.89,45.33 L75.67,44.17 C76.04,43.47 76.38,42.74 76.67,42.01 L79,43 C78.66,43.76 78.29,44.56 77.89,45.33 Z M80,40 L77.6,39.3 C77.82,38.54 78.01,37.76 78.17,36.98 L80.62,37.47 C80.49,38.33 80.28,39.18 80,40 Z M81.06,34.37 L78.57,34.14 C78.64,33.35 78.68,32.55 78.68,31.76 L81.18,31.76 C81.2066667,32.64 81.18,33.5133333 81.1,34.38 L81.06,34.37 Z" id="形状" fill="#FFFFFF" fill-rule="nonzero"></path>
            <rect id="矩形" x="0" y="0" width="104" height="104"></rect>
        </g>
    </g>
</svg>