<svg xmlns="http://www.w3.org/2000/svg" xmlns:xlink="http://www.w3.org/1999/xlink" viewBox="0 0 136 136"><defs><style>.cls-1,.cls-2{fill:none;}.cls-2{stroke:gray;stroke-miterlimit:10;stroke-width:0.25px;}.cls-3{fill:url(#Dégradé_sans_nom_2);}.cls-4{fill:url(#Dégradé_sans_nom_6);}.cls-5{fill:#d7d7d7;}.cls-6{fill:#fff;}</style><linearGradient id="Dégradé_sans_nom_2" x1="32.39" y1="68.01" x2="103.61" y2="68.01" gradientUnits="userSpaceOnUse"><stop offset="0" stop-color="#f8b700"/><stop offset="0.99" stop-color="#ffd900"/></linearGradient><linearGradient id="Dégradé_sans_nom_6" x1="75.07" y1="68.01" x2="60.93" y2="68.01" xlink:href="#Dégradé_sans_nom_2"/></defs><title>Help succeed - 136x136 - dark bg</title><g id="Infos"><path class="cls-1" d="M0,0V136H136V0Z"/><rect class="cls-2" width="136" height="136"/><path class="cls-3" d="M68,32.39A35.62,35.62,0,1,0,103.61,68,35.62,35.62,0,0,0,68,32.39Zm0,57.09A21.48,21.48,0,1,1,89.47,68,21.48,21.48,0,0,1,68,89.48Z"/><circle class="cls-4" cx="68" cy="68.01" r="7.07"/><path class="cls-5" d="M68,19.58a48.5,48.5,0,1,1-48.5,48.5A48.56,48.56,0,0,1,68,19.58m0-2.5a51,51,0,1,0,51,51,51,51,0,0,0-51-51Z"/><rect class="cls-5" x="28.86" y="66.75" width="2.5" height="2.5"/><rect class="cls-6" x="31.84" y="66.5" width="15.23" height="3"/><polygon class="cls-6" points="69.49 68 67.99 69.5 60.14 69.5 60.14 66.5 68 66.5 69.49 68"/><rect class="cls-5" x="47.53" y="66.75" width="12.61" height="2.5"/><path class="cls-5" d="M56,81.8,54.2,80,56,78.27,57.73,80Zm3.88-3.88-1.77-1.77,1.77-1.76,1.77,1.76Z"/><path class="cls-6" d="M46,91.82l-1.77-1.76,1.72-1.73,1.77,1.77ZM49.74,88,48,86.27l1.72-1.72,1.77,1.77Z"/></g></svg>