<svg id="Icons" xmlns="http://www.w3.org/2000/svg" xmlns:xlink="http://www.w3.org/1999/xlink" viewBox="0 0 64 64"><defs><style>.cls-1{fill:#d7d7d7;}.cls-2{fill:url(#Dégradé_sans_nom_2);}.cls-3{fill:url(#Dégradé_sans_nom_2-2);}.cls-4{fill:url(#Dégradé_sans_nom_2-3);}.cls-5{fill:url(#Dégradé_sans_nom_2-4);}.cls-6{fill:none;}</style><linearGradient id="Dégradé_sans_nom_2" x1="13.84" y1="25.58" x2="16.38" y2="25.58" gradientUnits="userSpaceOnUse"><stop offset="0" stop-color="#f8b700"/><stop offset="0.99" stop-color="#ffd900"/></linearGradient><linearGradient id="Dégradé_sans_nom_2-2" x1="14.38" y1="14.6" x2="49.62" y2="14.6" xlink:href="#Dégradé_sans_nom_2"/><linearGradient id="Dégradé_sans_nom_2-3" x1="47.62" y1="25.58" x2="50.16" y2="25.58" xlink:href="#Dégradé_sans_nom_2"/><linearGradient id="Dégradé_sans_nom_2-4" x1="26.78" y1="30.6" x2="36.82" y2="20.56" xlink:href="#Dégradé_sans_nom_2"/></defs><title>Investments - 56x56 - dark bg</title><path class="cls-1" d="M50.14,41.44H39.07l-5.82,5.82V38.18a12.67,12.67,0,1,0-2.5,0v9.08l-5.82-5.82H13.84V44L25.91,56H38.09L50.16,44ZM30.75,53.52H26.94l-9.58-9.58H23.9l6.85,6.85ZM32,35.75A10.17,10.17,0,1,1,42.17,25.59,10.18,10.18,0,0,1,32,35.75Zm5.06,17.77H33.25V50.79l6.85-6.85h6.54Z"/><path class="cls-2" d="M16.34,25.59c0,.39,0,.77,0,1.15l-2.49.19c0-.45-.05-.89-.05-1.34s0-.9.05-1.35l2.49.19C16.35,24.81,16.34,25.2,16.34,25.59Z"/><path class="cls-3" d="M32,7.43h0c-.43,0-.87,0-1.29,0l.18,2.5c.36,0,.74,0,1.11,0s.75,0,1.12,0l.17-2.49C32.86,7.44,32.43,7.43,32,7.43ZM36.34,8l-.59,2.43a14.53,14.53,0,0,1,2.12.68l.94-2.32A17.75,17.75,0,0,0,36.34,8ZM27.63,8a19.61,19.61,0,0,0-2.46.8l.94,2.32a15.89,15.89,0,0,1,2.12-.69Zm13.94,2.2-1.32,2.12a18.13,18.13,0,0,1,1.81,1.31l1.61-1.91A17.24,17.24,0,0,0,41.57,10.15Zm-19.16,0a19.56,19.56,0,0,0-2.09,1.52l1.61,1.91a18,18,0,0,1,1.8-1.31Zm23.45,3.69L44,15.47a15.31,15.31,0,0,1,1.31,1.8l2.12-1.33A18.35,18.35,0,0,0,45.86,13.85Zm-27.74,0A19.56,19.56,0,0,0,16.6,16l2.12,1.33A15.42,15.42,0,0,1,20,15.48ZM48.81,18.7l-2.31.95a15.76,15.76,0,0,1,.69,2.11l2.43-.6A19.13,19.13,0,0,0,48.81,18.7Zm-33.63,0a19.09,19.09,0,0,0-.8,2.46l2.42.6a15.34,15.34,0,0,1,.7-2.11Z"/><path class="cls-4" d="M50.16,25.59c0,.45,0,.89,0,1.34l-2.49-.19c0-.38,0-.76,0-1.15s0-.78,0-1.16l2.49-.19C50.14,24.69,50.16,25.13,50.16,25.59Z"/><path class="cls-5" d="M36.93,26.87a2,2,0,0,0-.55-.81,2.33,2.33,0,0,0-.85-.5,3.63,3.63,0,0,0-1.08-.21v-.11a2.68,2.68,0,0,0,1.69-.7,2.41,2.41,0,0,0,.55-1.76,3,3,0,0,0-.62-1.94,2.73,2.73,0,0,0-1.76-.95V18.05H32.39v1.78H31.21V18.05H29.29v1.78H27.54V31.34h1.75v1.78h1.92V31.34h1.18v1.78h1.92V31.34A2.79,2.79,0,0,0,35.42,31a3.25,3.25,0,0,0,.9-.71,3,3,0,0,0,.59-1A3.7,3.7,0,0,0,37.12,28,3.19,3.19,0,0,0,36.93,26.87ZM30,22h3a1.14,1.14,0,0,1,.79.25,1,1,0,0,1,.28.76v.57a.92.92,0,0,1-.28.75,1.14,1.14,0,0,1-.79.26H30Zm4.5,6.24a1,1,0,0,1-.29.77,1.17,1.17,0,0,1-.8.26H30V26.58h3.41a1.17,1.17,0,0,1,.8.26,1,1,0,0,1,.29.77Z"/><rect class="cls-6" width="64" height="64"/></svg>