<svg xmlns="http://www.w3.org/2000/svg" viewBox="0 0 1000 370"><defs><style>.cls-1{fill:#fff;}.cls-2{fill:#f0b90b;}</style></defs><title>labs incubation dark</title><g id="content"><path class="cls-1" d="M181.09,154.19v84H166.33v-84Z"/><path class="cls-1" d="M260.36,154.19h14.52v84H262.52L216.2,178.43v59.76H201.68v-84h13.68l45,58.08Z"/><path class="cls-1" d="M333.74,239.63c-24.48,0-42.72-19.08-42.72-43.32,0-24,17.88-43.56,43.32-43.56,15.48,0,24.84,5.4,32.88,13.08l-9.48,10.92c-6.72-6.24-13.92-10.44-23.52-10.44-16.08,0-27.72,13.2-27.72,29.76s11.64,30,27.72,30c10.32,0,16.92-4.2,24.12-10.92l9.48,9.6C359.06,233.87,349.46,239.63,333.74,239.63Z"/><path class="cls-1" d="M450.93,201.83c0,25.08-14.16,37.68-36.12,37.68s-35.76-12.6-35.76-37V154.19h14.76V202c0,15.6,8,24,21.24,24s21.12-7.92,21.12-23.4V154.19h14.76Z"/><path class="cls-1" d="M535.74,175.67c0,10.32-5.76,15.6-12,18.84,9.84,3.36,16.68,9,16.68,20.52,0,15.12-12.36,23.16-31.08,23.16H470.47v-84h37.67C525.06,154.19,535.74,162.47,535.74,175.67ZM521,178.07c0-6.84-5.28-10.8-14.76-10.8H485v22.32h20.16C514.62,189.59,521,185.87,521,178.07Zm4.68,35.4c0-7.2-5.64-11.4-17.28-11.4H485v23h24.48C519.54,225.11,525.66,221.15,525.66,213.47Z"/><path class="cls-1" d="M633.71,238.19h-15.6l-8.52-20.28H569.87l-8.64,20.28H546.11l37-84.6h13.68Zm-44-67-14.4,33.6h28.92Z"/><path class="cls-1" d="M669.54,238.19H654.66V167.87H628V154.19h68.16v13.68H669.54Z"/><path class="cls-1" d="M723.52,154.19v84H708.76v-84Z"/><path class="cls-1" d="M783.57,239.63c-25.79,0-43.79-19.56-43.79-43.32s18.24-43.56,44-43.56,43.8,19.56,43.8,43.32S809.37,239.63,783.57,239.63Zm0-73.32c-16.67,0-28.31,13.32-28.31,29.76s11.88,30,28.55,30,28.32-13.32,28.32-29.76S800.25,166.31,783.57,166.31Z"/><path class="cls-1" d="M902.5,154.19H917v84H904.66l-46.31-59.76v59.76H843.83v-84h13.68l45,58.08Z"/><path class="cls-2" d="M63.05,102.69,51.49,114.25,39.93,102.69,51.49,91.13ZM91.12,74.62l19.81,19.81,11.56-11.55L102.67,63.06,91.12,51.51,79.56,63.06,59.75,82.88,71.3,94.43Zm39.62,16.51-11.56,11.56,11.56,11.56,11.56-11.56ZM91.12,130.76,71.3,110.94,59.75,122.5l19.81,19.81,11.56,11.56,11.55-11.56,19.82-19.81-11.56-11.56Zm0-16.51,11.55-11.56L91.12,91.13,79.56,102.69Zm122,1.11v-.16c0-7.54-4-11.31-10.51-13.8,4-2.24,7.38-5.77,7.38-12.1v-.16c0-8.83-7.06-14.52-18.52-14.52H165.41v56.14h26.71C204.79,130.76,213.13,125.62,213.13,115.36Zm-15.4-24c0,4.17-3.45,5.94-8.9,5.94H177.44V85.45h12.19c5.21,0,8.1,2.08,8.1,5.77Zm3.13,22.45c0,4.18-3.29,6.1-8.74,6.1H177.44V107.58h14.28c6.33,0,9.14,2.33,9.14,6.09ZM239,130.76V74.62H226.68v56.14Zm66.38,0V74.62H293.22v34.56l-26.3-34.56H255.53v56.14h12.19V95.07l27.19,35.69Zm68.41,0L349.76,74.22H338.38l-24.06,56.54h12.59L332,118.17h23.74l5.13,12.59Zm-22.45-23.5H336.45l7.46-18.21Zm81.32,23.5V74.62H420.5v34.56L394.2,74.62H382.81v56.14H395V95.07l27.18,35.69Zm63.76-9.07-7.86-7.93c-4.41,4-8.34,6.57-14.76,6.57-9.62,0-16.28-8-16.28-17.64v-.16c0-9.63,6.82-17.48,16.28-17.48,5.62,0,10,2.4,14.36,6.33l7.86-9.06c-5.21-5.13-11.55-8.66-22.14-8.66-17.24,0-29.27,13.07-29.27,29v.16c0,16.12,12.27,28.87,28.79,28.87C484.26,131.72,490.67,127.87,496.45,121.69Zm52.69,9.07v-11H518.67V108h26.46V97H518.67V85.61h30.07v-11H506.4v56.14Z"/><path class="cls-2" d="M581.64,74.75h9.84V121.8h29.44v9H581.64Z"/><path class="cls-2" d="M685.22,130.76h-10.4l-5.68-13.52H642.66l-5.76,13.52H626.82l24.64-56.41h9.12ZM655.86,86.12l-9.6,22.4h19.28Z"/><path class="cls-2" d="M736.56,89.08c0,6.88-3.84,10.4-8,12.56,6.56,2.24,11.12,6,11.12,13.68,0,10.08-8.24,15.44-20.72,15.44H693v-56h25.12C729.44,74.75,736.56,80.28,736.56,89.08Zm-9.84,1.6c0-4.56-3.52-7.2-9.84-7.2H702.72V98.36h13.44C722.48,98.36,726.72,95.88,726.72,90.68Zm3.12,23.6c0-4.8-3.76-7.6-11.52-7.6h-15.6V122H719C725.76,122,729.84,119.4,729.84,114.28Z"/><path class="cls-2" d="M771.19,98.28c11.84,2.88,18,7.12,18,16.48,0,10.56-8.24,16.8-20,16.8a34.5,34.5,0,0,1-23.36-9l5.92-7c5.36,4.64,10.72,7.28,17.68,7.28,6.08,0,9.92-2.8,9.92-7.12,0-4.08-2.24-6.24-12.64-8.64-11.92-2.88-18.64-6.4-18.64-16.8,0-9.76,8-16.32,19.12-16.32a31,31,0,0,1,20.32,7l-5.28,7.44c-5-3.76-10.08-5.76-15.2-5.76-5.76,0-9.12,3-9.12,6.72C757.91,93.8,760.47,95.72,771.19,98.28Z"/><path class="cls-1" d="M185.84,297.81h-13.6v19.76h-6.32v-56h21c12.64,0,21,6.72,21,17.84C207.84,291.57,197.76,297.81,185.84,297.81Zm.56-30.4H172.24v24.64h13.84c9.28,0,15.36-5,15.36-12.4C201.44,271.57,195.44,267.41,186.4,267.41Z"/><path class="cls-1" d="M255.93,317.57l-16.24-21.76h-16v21.76h-6.32v-56h24.08c12.32,0,20.24,6.64,20.24,16.72,0,9.36-6.4,14.8-15.2,16.4l17.2,22.88Zm-15-50.16H223.69v22.72h17.2c8.4,0,14.4-4.32,14.4-11.6C255.29,271.57,250,267.41,241,267.41Z"/><path class="cls-1" d="M298.71,318.53c-17,0-28.49-13.36-28.49-28.88s11.61-29,28.65-29,28.48,13.36,28.48,28.88S315.75,318.53,298.71,318.53Zm0-52.08c-12.8,0-21.93,10.24-21.93,23s9.28,23.2,22.09,23.2,21.92-10.24,21.92-23S311.51,266.45,298.71,266.45Z"/><path class="cls-1" d="M364.86,318.53c-17.6,0-28.48-12.8-28.48-28.88,0-15.44,11.28-29,28.08-29,9.44,0,15.28,2.72,20.88,7.44l-4.08,4.8a23.82,23.82,0,0,0-17-6.4c-12.4,0-21.28,10.48-21.28,23,0,13.44,8.56,23.36,22.16,23.36a26.37,26.37,0,0,0,16.16-5.6V293.33h-17v-5.68h23.12V310A33.93,33.93,0,0,1,364.86,318.53Z"/><path class="cls-1" d="M439.36,317.57l-16.24-21.76h-16v21.76H400.8v-56h24.08c12.32,0,20.24,6.64,20.24,16.72,0,9.36-6.4,14.8-15.2,16.4l17.2,22.88Zm-15-50.16H407.12v22.72h17.2c8.4,0,14.4-4.32,14.4-11.6C438.72,271.57,433.44,267.41,424.4,267.41Z"/><path class="cls-1" d="M511.2,317.57h-6.8l-6.56-14.8H467.36l-6.64,14.8h-6.48l25.52-56.4h5.92Zm-28.56-49-12.8,28.56h25.52Z"/><path class="cls-1" d="M547.18,302.21h-.32l-20.4-29.92v45.28H520.3v-56h6.4l20.4,30.56,20.4-30.56h6.4v56h-6.32V272.21Z"/></g></svg>