<svg xmlns="http://www.w3.org/2000/svg" viewBox="0 0 600 252"><defs><style>.cls-1{fill:#f0b90b;}.cls-2{fill:none;}</style></defs><title>Labs-Horizontal</title><g id="Logos"><rect class="cls-1" x="53.28" y="116.99" width="20.13" height="20.13" transform="translate(-71.28 82) rotate(-45)"/><polygon class="cls-1" points="112.14 92.49 136.54 116.89 150.77 102.65 112.14 64.02 73.51 102.65 87.74 116.89 112.14 92.49"/><rect class="cls-1" x="150.87" y="116.99" width="20.13" height="20.13" transform="translate(-42.7 151.01) rotate(-45)"/><polygon class="cls-1" points="112.14 161.61 87.74 137.22 73.51 151.45 112.14 190.08 150.77 151.45 136.54 137.22 112.14 161.61"/><rect class="cls-1" x="102.08" y="116.99" width="20.13" height="20.13" transform="translate(-56.99 116.51) rotate(-45)"/><path class="cls-1" d="M226.87,127.05H203.65V78.24h22.66c10,0,16.11,5,16.11,12.62V91c0,5.51-2.93,8.57-6.42,10.53,5.65,2.16,9.14,5.44,9.14,12v.14C245.14,122.59,237.88,127.05,226.87,127.05Zm4.88-34.38c0-3.21-2.51-5-7-5h-10.6V98H224c4.74,0,7.74-1.53,7.74-5.16Zm2.72,19.53c0-3.28-2.44-5.3-7.95-5.3H214.11v10.74h12.76c4.74,0,7.6-1.68,7.6-5.3Z"/><path class="cls-1" d="M256.92,127.05V78.24h10.74v48.81Z"/><path class="cls-1" d="M316.25,127.05,292.61,96v31H282V78.24h9.9l22.87,30.05V78.24h10.6v48.81Z"/><path class="cls-1" d="M373.64,127.05l-4.46-11H348.54l-4.47,11H333.13l20.92-49.16H364l20.92,49.16ZM358.86,90.79l-6.49,15.83h13Z"/><path class="cls-1" d="M426.92,127.05,403.28,96v31h-10.6V78.24h9.9l22.87,30.05V78.24h10.6v48.81Z"/><path class="cls-1" d="M471.48,127.89a24.64,24.64,0,0,1-25-25.11v-.14c0-13.87,10.46-25.24,25.45-25.24,9.2,0,14.71,3.07,19.25,7.53l-6.84,7.88c-3.76-3.42-7.6-5.51-12.48-5.51-8.23,0-14.16,6.84-14.16,15.2v.14c0,8.37,5.79,15.34,14.16,15.34,5.58,0,9-2.23,12.83-5.71l6.83,6.9C486.47,124.54,480.9,127.89,471.48,127.89Z"/><path class="cls-1" d="M500.15,127.05V78.24H537v9.55H510.81v9.9h23v9.56h-23V117.5h26.5v9.55Z"/><path class="cls-1" d="M407.24,141.27h6.07v29h18.16v5.52H407.24Z"/><path class="cls-1" d="M472.75,175.82h-6.42l-3.51-8.34H446.48l-3.55,8.34h-6.22l15.2-34.8h5.63Zm-18.12-27.54-5.92,13.82H460.6Z"/><path class="cls-1" d="M506.07,150.11c0,4.24-2.37,6.41-4.94,7.75,4.05,1.38,6.86,3.7,6.86,8.44,0,6.22-5.08,9.52-12.78,9.52h-16V141.27h15.5C501.68,141.27,506.07,144.68,506.07,150.11Zm-6.07,1c0-2.81-2.17-4.44-6.07-4.44h-8.74v9.18h8.29C497.38,155.83,500,154.3,500,151.09Zm1.92,14.57c0-3-2.32-4.69-7.11-4.69h-9.62v9.47h10.07C499.41,170.44,501.92,168.82,501.92,165.66Z"/><path class="cls-1" d="M529.08,155.78c7.3,1.78,11.1,4.4,11.1,10.17,0,6.52-5.08,10.37-12.34,10.37a21.3,21.3,0,0,1-14.41-5.53l3.65-4.34c3.31,2.86,6.62,4.49,10.91,4.49,3.75,0,6.12-1.73,6.12-4.4,0-2.51-1.38-3.85-7.8-5.33-7.35-1.77-11.5-4-11.5-10.36,0-6,4.94-10.07,11.8-10.07a19.19,19.19,0,0,1,12.54,4.34l-3.26,4.59a15.69,15.69,0,0,0-9.38-3.55c-3.55,0-5.63,1.82-5.63,4.14C520.88,153,522.46,154.2,529.08,155.78Z"/><rect class="cls-1" x="203.65" y="155.72" width="189.22" height="5.75"/><rect class="cls-2" width="600" height="252"/></g></svg>