<svg xmlns="http://www.w3.org/2000/svg" viewBox="0 0 600 252"><defs><style>.cls-1{fill:#f0b90b;}.cls-2{fill:none;}</style></defs><title>Launchpad-Horizontal</title><g id="Logos"><rect class="cls-1" x="53.28" y="116.32" width="20.13" height="20.13" transform="translate(-70.81 81.81) rotate(-45)"/><polygon class="cls-1" points="112.14 91.82 136.54 116.22 150.77 101.99 112.14 63.36 73.51 101.99 87.74 116.22 112.14 91.82"/><rect class="cls-1" x="150.87" y="116.32" width="20.13" height="20.13" transform="translate(-42.23 150.81) rotate(-45)"/><polygon class="cls-1" points="112.14 160.95 87.74 136.55 73.51 150.78 112.14 189.41 150.77 150.78 136.54 136.55 112.14 160.95"/><rect class="cls-1" x="102.08" y="116.32" width="20.13" height="20.13" transform="translate(-56.52 116.31) rotate(-45)"/><path class="cls-1" d="M226.87,126.38H203.65V77.57h22.66c10,0,16.11,5,16.11,12.62v.14c0,5.51-2.93,8.58-6.42,10.53,5.65,2.16,9.14,5.44,9.14,12V113C245.14,121.92,237.88,126.38,226.87,126.38ZM231.75,92c0-3.21-2.51-5-7.05-5H214.11V97.31H224c4.74,0,7.74-1.54,7.74-5.16Zm2.72,19.52c0-3.28-2.44-5.3-7.95-5.3H214.11V117h12.76c4.74,0,7.6-1.67,7.6-5.3Z"/><path class="cls-1" d="M256.92,126.38V77.57h10.74v48.81Z"/><path class="cls-1" d="M316.25,126.38l-23.64-31v31H282V77.57h9.9l22.87,30.06V77.57h10.6v48.81Z"/><path class="cls-1" d="M373.64,126.38l-4.46-10.94H348.54l-4.47,10.94H333.13l20.92-49.16H364l20.92,49.16ZM358.86,90.12,352.37,106h13Z"/><path class="cls-1" d="M426.92,126.38l-23.64-31v31h-10.6V77.57h9.9l22.87,30.06V77.57h10.6v48.81Z"/><path class="cls-1" d="M471.48,127.22a24.64,24.64,0,0,1-25-25.1V102c0-13.88,10.46-25.24,25.45-25.24,9.2,0,14.71,3.06,19.25,7.53l-6.84,7.88c-3.76-3.42-7.6-5.51-12.48-5.51-8.23,0-14.16,6.83-14.16,15.2V102c0,8.37,5.79,15.34,14.16,15.34,5.58,0,9-2.23,12.83-5.72l6.83,6.91C486.47,123.87,480.9,127.22,471.48,127.22Z"/><path class="cls-1" d="M500.14,126.38V77.57H537v9.56H510.81V97h23v9.55h-23v10.25h26.5v9.55Z"/><path class="cls-1" d="M204,140.61h6.07v29h18.17v5.53H204Z"/><path class="cls-1" d="M270.76,175.16h-6.41l-3.51-8.34H244.5L241,175.16h-6.22l15.2-34.8h5.63Zm-18.11-27.54-5.92,13.82h11.89Z"/><path class="cls-1" d="M305.81,160.2c0,10.32-5.82,15.5-14.86,15.5s-14.71-5.18-14.71-15.2V140.61h6.08v19.64c0,6.42,3.3,9.87,8.73,9.87s8.69-3.25,8.69-9.62V140.61h6.07Z"/><path class="cls-1" d="M340.86,140.61h6v34.55h-5.09L322.7,150.58v24.58h-6V140.61h5.62l18.51,23.89Z"/><path class="cls-1" d="M373.94,175.75c-10.07,0-17.58-7.85-17.58-17.82S363.72,140,374.18,140a18,18,0,0,1,13.53,5.38l-3.9,4.5c-2.76-2.57-5.73-4.3-9.68-4.3-6.61,0-11.4,5.43-11.4,12.24s4.79,12.34,11.4,12.34c4.25,0,7-1.72,9.93-4.49l3.9,3.95C384.35,173.38,380.4,175.75,373.94,175.75Z"/><path class="cls-1" d="M402.23,160.6v14.56h-6.08V140.61h6.08V155h16.48V140.61h6.07v34.55h-6.07V160.6Z"/><path class="cls-1" d="M449,164.05h-6.86v11.11h-6.07V140.61H449.7c8.05,0,13.13,4.54,13.13,11.6C462.83,160,456.61,164.05,449,164.05Zm.2-17.92h-7.06v12.44h7.06c4.59,0,7.45-2.51,7.45-6.22C456.66,148.26,453.75,146.13,449.21,146.13Z"/><path class="cls-1" d="M501,175.16h-6.41L491,166.82H474.7l-3.55,8.34h-6.22l15.2-34.8h5.63Zm-18.11-27.54-5.92,13.82h11.89Z"/><path class="cls-1" d="M521.57,175.16H508.69V140.61h12.88c10.86,0,18.37,7.45,18.37,17.22S532.43,175.16,521.57,175.16Zm0-29h-6.81v23.5h6.81c7.26,0,12-4.89,12-11.7S528.83,146.13,521.57,146.13Z"/><rect class="cls-2" width="600" height="252"/></g></svg>