<svg xmlns="http://www.w3.org/2000/svg" viewBox="0 0 512 400"><defs><style>.cls-1{fill:#f0b90b;}.cls-2{fill:none;}</style></defs><title>Launchpad-Vertical</title><g id="Logos"><rect class="cls-1" x="196.37" y="120.5" width="20.44" height="20.44" transform="translate(-31.92 184.36) rotate(-45)"/><polygon class="cls-1" points="256.13 95.62 280.91 120.39 295.36 105.94 256.13 66.72 216.91 105.94 231.36 120.39 256.13 95.62"/><rect class="cls-1" x="295.46" y="120.5" width="20.44" height="20.44" transform="translate(-2.9 254.44) rotate(-45)"/><polygon class="cls-1" points="256.13 165.81 231.36 141.04 216.91 155.49 256.13 194.72 295.36 155.49 280.91 141.04 256.13 165.81"/><rect class="cls-1" x="245.91" y="120.5" width="20.44" height="20.44" transform="translate(-17.41 219.4) rotate(-45)"/><path class="cls-1" d="M90.86,279.8H64.13V223.62H90.21c11.48,0,18.54,5.7,18.54,14.53v.16c0,6.34-3.37,9.87-7.38,12.11,6.5,2.49,10.51,6.26,10.51,13.81v.16C111.88,274.66,103.54,279.8,90.86,279.8Zm5.61-39.57c0-3.69-2.89-5.77-8.1-5.77H76.17v11.87h11.4c5.45,0,8.9-1.76,8.9-5.94ZM99.6,262.7c0-3.77-2.81-6.1-9.15-6.1H76.17V269H90.86c5.45,0,8.74-1.92,8.74-6.1Z"/><path class="cls-1" d="M125.44,279.8V223.62H137.8V279.8Z"/><path class="cls-1" d="M193.72,279.8l-27.21-35.72V279.8H154.32V223.62h11.39L192,258.21V223.62h12.2V279.8Z"/><path class="cls-1" d="M259.77,279.8l-5.14-12.6H230.88l-5.14,12.6h-12.6l24.08-56.58h11.4l24.07,56.58Zm-17-41.73-7.47,18.21h14.93Z"/><path class="cls-1" d="M321.09,279.8l-27.21-35.72V279.8h-12.2V223.62h11.4l26.32,34.59V223.62h12.2V279.8Z"/><path class="cls-1" d="M372.37,280.76c-16.53,0-28.81-12.76-28.81-28.89v-.16c0-16,12-29.05,29.29-29.05,10.6,0,16.94,3.53,22.15,8.66l-7.86,9.07c-4.34-3.93-8.75-6.34-14.37-6.34-9.47,0-16.29,7.87-16.29,17.5v.16c0,9.63,6.66,17.65,16.29,17.65,6.42,0,10.36-2.56,14.77-6.58l7.86,8C389.63,276.91,383.21,280.76,372.37,280.76Z"/><path class="cls-1" d="M405.36,279.8V223.62h42.37v11H417.64V246h26.48v11H417.64V268.8h30.49v11Z"/><path class="cls-1" d="M90.9,296.16h6v28.67h17.95v5.47H90.9Z"/><path class="cls-1" d="M156.67,330.3h-6.34l-3.46-8.25H130.73l-3.51,8.25h-6.15l15-34.38h5.56Zm-17.89-27.22-5.86,13.66h11.76Z"/><path class="cls-1" d="M191.14,315.52c0,10.19-5.76,15.31-14.68,15.31s-14.53-5.12-14.53-15V296.16h6v19.41c0,6.34,3.27,9.75,8.64,9.75s8.58-3.22,8.58-9.51V296.16h6Z"/><path class="cls-1" d="M225.57,296.16h5.9V330.3h-5L207.63,306V330.3h-5.91V296.16h5.56l18.29,23.6Z"/><path class="cls-1" d="M258.06,330.88c-9.95,0-17.36-7.75-17.36-17.6s7.27-17.71,17.61-17.71a17.8,17.8,0,0,1,13.36,5.32l-3.86,4.44c-2.73-2.54-5.65-4.25-9.55-4.25-6.54,0-11.27,5.37-11.27,12.1s4.73,12.19,11.27,12.19c4.19,0,6.87-1.71,9.8-4.44l3.85,3.9C268.35,328.54,264.45,330.88,258.06,330.88Z"/><path class="cls-1" d="M285.83,315.91V330.3h-6V296.16h6v14.19h16.29V296.16h6V330.3h-6V315.91Z"/><path class="cls-1" d="M331.86,319.32h-6.78v11h-6V296.16h13.46c7.95,0,13,4.49,13,11.46C345.52,315.32,339.37,319.32,331.86,319.32Zm.2-17.7h-7v12.29h7c4.53,0,7.36-2.49,7.36-6.14C339.42,303.72,336.54,301.62,332.06,301.62Z"/><path class="cls-1" d="M383,330.3H376.7l-3.46-8.25H357.1l-3.52,8.25h-6.14l15-34.38H368Zm-17.9-27.22-5.85,13.66H371Z"/><path class="cls-1" d="M403.22,330.3H390.49V296.16h12.73c10.73,0,18.14,7.36,18.14,17S414,330.3,403.22,330.3Zm0-28.68h-6.73v23.21h6.73c7.17,0,11.85-4.82,11.85-11.55S410.39,301.62,403.22,301.62Z"/><rect class="cls-2" x="0.13" y="0.16" width="512" height="400"/></g></svg>