<?xml version="1.0" encoding="UTF-8"?>
<svg width="92px" height="69px" viewBox="0 0 92 69" version="1.1" xmlns="http://www.w3.org/2000/svg" xmlns:xlink="http://www.w3.org/1999/xlink">
    <!-- Generator: Sketch 64 (93537) - https://sketch.com -->
    <title>learn_white</title>
    <desc>Created with Sketch.</desc>
    <defs>
        <linearGradient x1="0%" y1="50%" x2="100%" y2="50%" id="linearGradient-1">
            <stop stop-color="#F8B700" offset="0%"></stop>
            <stop stop-color="#FFD900" offset="99%"></stop>
        </linearGradient>
    </defs>
    <g id="页面-1" stroke="none" stroke-width="1" fill="none" fill-rule="evenodd">
        <g id="learn_white" transform="translate(-6.000000, -19.000000)">
            <path d="M91.05,25 L91.05,19.5 L57,19.5 L52,24.5 L47,19.5 L12.92,19.5 L12.92,25 L6.5,25 L6.5,84.55 L20.33,84.55 L17.91,82.13 L17.91,82.13 L8.91,82.13 L8.91,27.43 L12.91,27.43 L12.91,78.55 L21.48,78.55 L23.32,76.72 L23.92,76.11 L15.36,76.11 L15.36,21.94 L46,21.94 L50.78,26.72 L50.78,30.91 C51.5652633,30.4924708 52.380912,30.1347888 53.22,29.84 L53.22,26.72 L58,21.94 L88.61,21.94 L88.61,76.11 L57,76.11 L53.24,79.88 L53.24,68.46 C52.400912,68.1652112 51.5852633,67.8075292 50.8,67.39 L50.8,79.88 L47,76.11 L42.5,76.11 L40.06,78.55 L46,78.55 L49.56,82.11 L36.5,82.11 L34.06,84.55 L97.47,84.55 L97.47,25 L91.05,25 Z M54.44,82.11 L58,78.55 L91.05,78.55 L91.05,27.43 L95.05,27.43 L95.05,82.11 L54.44,82.11 Z" id="形状" fill="#FFFFFF" fill-rule="nonzero"></path>
            <path d="M84.62,39.49 L84.62,41.93 L79.44,41.93 C79.1307195,41.0919948 78.7631544,40.2766686 78.34,39.49 L84.62,39.49 Z" id="路径" fill="#FFFFFF" fill-rule="nonzero"></path>
            <path d="M84.62,56.37 L84.62,58.81 L78.34,58.81 C78.7631544,58.0233314 79.1307195,57.2080052 79.44,56.37 L84.62,56.37 Z" id="路径" fill="#FFFFFF" fill-rule="nonzero"></path>
            <path d="M84.62,47.93 L84.62,50.37 L80.71,50.37 C80.71,49.97 80.71,49.56 80.71,49.15 C80.71,48.74 80.71,48.33 80.71,47.93 L84.62,47.93 Z" id="路径" fill="#FFFFFF" fill-rule="nonzero"></path>
            <rect id="矩形" fill="#FFFFFF" fill-rule="nonzero" transform="translate(62.765000, 27.400000) rotate(-90.000000) translate(-62.765000, -27.400000) " x="61.545" y="23.125" width="2.44" height="8.55"></rect>
            <polygon id="路径" fill="#FFFFFF" fill-rule="nonzero" points="28.96 86.11 27.2 87.88 21.45 82.13 21.47 82.11 23.22 80.36 24.97 82.11 27.4 84.55"></polygon>
            <polygon id="路径" fill="#FFFFFF" fill-rule="nonzero" points="21.47 82.11 21.45 82.13 21.43 82.11"></polygon>
            <polygon id="路径" fill="#FFFFFF" fill-rule="nonzero" points="25.15 78.55 25.03 78.55 25.09 78.49 25.1 78.49"></polygon>
            <polygon id="路径" fill="url(#linearGradient-1)" fill-rule="nonzero" points="30.84 84.23 25.1 78.49 41.71 61.87 43.7 63.86 47.45 67.62"></polygon>
            <path d="M60.21,31.1096842 C53.1191125,31.0681287 46.6643653,35.1932795 43.7240673,41.6459601 C40.7837692,48.0986406 41.9058696,55.6763395 46.59,61 L43.7,63.86 L45.47,65.62 L46.58,64.51 L48.36,62.73 C54.3942907,67.9437865 63.1398822,68.5655589 69.8511036,64.2579213 C76.5623249,59.9502837 79.6391507,51.7402219 77.4119852,44.0828093 C75.1848197,36.4253967 68.1846423,31.1462406 60.21,31.1096842 Z M47.66,58.3 C43.6747934,52.8508964 43.6747934,45.4491036 47.66,40 L47.66,58.3 Z M72.36,58.81 L58.49,58.81 L58.49,61.25 L70,61.25 C64.17516,65.949413 55.8252525,65.8190114 50.15,60.94 L50.15,37.36 C55.8252525,32.4809886 64.17516,32.350587 70,37.05 L58.49,37.05 L58.49,39.49 L72.36,39.49 C74.2948937,41.904518 75.4586571,44.8452853 75.7,47.93 L58.49,47.93 L58.49,50.37 L75.7,50.37 C75.4586571,53.4547147 74.2948937,56.395482 72.36,58.81 L72.36,58.81 Z" id="形状" fill="#FFFFFF" fill-rule="nonzero"></path>
            <rect id="矩形" fill="#FFFFFF" fill-rule="nonzero" x="30.04" y="31.58" width="2.4" height="2.5"></rect>
            <rect id="矩形" fill="#FFFFFF" fill-rule="nonzero" x="24.77" y="31.58" width="2.4" height="2.5"></rect>
            <rect id="矩形" fill="#FFFFFF" fill-rule="nonzero" x="19.5" y="31.58" width="2.39" height="2.5"></rect>
            <rect id="矩形" fill="#FFFFFF" fill-rule="nonzero" x="40.59" y="31.58" width="2.4" height="2.5"></rect>
            <rect id="矩形" fill="#FFFFFF" fill-rule="nonzero" x="35.32" y="31.58" width="2.39" height="2.5"></rect>
            <rect id="矩形" fill="#FFFFFF" fill-rule="nonzero" x="30.04" y="37.02" width="2.4" height="2.5"></rect>
            <rect id="矩形" fill="#FFFFFF" fill-rule="nonzero" x="24.77" y="37.02" width="2.4" height="2.5"></rect>
            <rect id="矩形" fill="#FFFFFF" fill-rule="nonzero" x="19.5" y="37.02" width="2.39" height="2.5"></rect>
            <rect id="矩形" fill="#FFFFFF" fill-rule="nonzero" x="40.59" y="37.02" width="2.4" height="2.5"></rect>
            <rect id="矩形" fill="#FFFFFF" fill-rule="nonzero" x="35.32" y="37.02" width="2.39" height="2.5"></rect>
            <rect id="矩形" fill="#FFFFFF" fill-rule="nonzero" x="30.04" y="42.46" width="2.4" height="2.5"></rect>
            <rect id="矩形" fill="#FFFFFF" fill-rule="nonzero" x="24.77" y="42.46" width="2.4" height="2.5"></rect>
            <rect id="矩形" fill="#FFFFFF" fill-rule="nonzero" x="19.5" y="42.46" width="2.39" height="2.5"></rect>
            <rect id="矩形" fill="#FFFFFF" fill-rule="nonzero" x="35.32" y="42.46" width="2.39" height="2.5"></rect>
            <rect id="矩形" fill="#FFFFFF" fill-rule="nonzero" x="30.04" y="47.9" width="2.4" height="2.5"></rect>
            <rect id="矩形" fill="#FFFFFF" fill-rule="nonzero" x="24.77" y="47.9" width="2.4" height="2.5"></rect>
            <rect id="矩形" fill="#FFFFFF" fill-rule="nonzero" x="19.5" y="47.9" width="2.39" height="2.5"></rect>
            <rect id="矩形" fill="#FFFFFF" fill-rule="nonzero" x="35.32" y="47.9" width="2.39" height="2.5"></rect>
            <rect id="矩形" x="0" y="0" width="104" height="104"></rect>
        </g>
    </g>
</svg>