<svg id="Icons" xmlns="http://www.w3.org/2000/svg" xmlns:xlink="http://www.w3.org/1999/xlink" viewBox="0 0 104 104"><defs><style>.cls-1{fill:#1f2834;}.cls-2{fill:#fff;}.cls-3{fill:url(#Dégradé_sans_nom_970);}.cls-4{fill:none;}</style><linearGradient id="Dégradé_sans_nom_970" x1="25.1" y1="73.05" x2="47.45" y2="73.05" gradientUnits="userSpaceOnUse"><stop offset="0" stop-color="#f8b700"/><stop offset="0.99" stop-color="#ffd900"/></linearGradient></defs><title>Learn - 104x104 - white bg copie</title><path class="cls-1" d="M91.05,25V19.5H57l-5,5-5-5H12.92V25H6.5V84.55H20.33l-2.42-2.42,0,0h-9V27.43h4V78.55h8.57l1.84-1.83.6-.61H15.36V21.94H46l4.78,4.78v4.19a17.68,17.68,0,0,1,2.44-1.07V26.72L58,21.94H88.61V76.11H57l-3.76,3.77V68.46a17.68,17.68,0,0,1-2.44-1.07V79.88L47,76.11H42.5l-2.44,2.44H46l3.56,3.56H36.5l-2.44,2.44H97.47V25ZM54.44,82.11,58,78.55H91.05V27.43h4V82.11Z"/><path class="cls-1" d="M84.62,39.49v2.44H79.44a19.14,19.14,0,0,0-1.1-2.44Z"/><path class="cls-1" d="M84.62,56.37v2.44H78.34a19.14,19.14,0,0,0,1.1-2.44Z"/><path class="cls-1" d="M84.62,47.93v2.44H80.71c0-.4,0-.81,0-1.22s0-.82,0-1.22Z"/><rect class="cls-1" x="61.54" y="23.12" width="2.44" height="8.55" transform="translate(35.37 90.16) rotate(-90)"/><polygon class="cls-1" points="28.96 86.11 27.2 87.88 21.45 82.13 21.47 82.11 23.22 80.36 24.97 82.11 27.4 84.55 28.96 86.11"/><polygon class="cls-2" points="21.47 82.11 21.45 82.13 21.43 82.11 21.47 82.11"/><polygon class="cls-2" points="25.15 78.55 25.03 78.55 25.09 78.49 25.1 78.49 25.15 78.55"/><polygon class="cls-3" points="47.45 67.62 30.84 84.23 25.1 78.49 41.71 61.87 43.7 63.86 47.45 67.62"/><path class="cls-1" d="M60.21,31.11A18,18,0,0,0,46.59,61L43.7,63.86l1.77,1.76,1.11-1.11,1.78-1.78A18,18,0,1,0,60.21,31.11ZM47.66,58.3a15.5,15.5,0,0,1,0-18.3Zm24.7.51H58.49v2.44H70a15.51,15.51,0,0,1-19.85-.31V37.36A15.51,15.51,0,0,1,70,37.05H58.49v2.44H72.36a15.42,15.42,0,0,1,3.34,8.44H58.49v2.44H75.7A15.42,15.42,0,0,1,72.36,58.81Z"/><rect class="cls-1" x="30.04" y="31.58" width="2.4" height="2.5"/><rect class="cls-1" x="24.77" y="31.58" width="2.4" height="2.5"/><rect class="cls-1" x="19.5" y="31.58" width="2.39" height="2.5"/><rect class="cls-1" x="40.59" y="31.58" width="2.4" height="2.5"/><rect class="cls-1" x="35.32" y="31.58" width="2.39" height="2.5"/><rect class="cls-1" x="30.04" y="37.02" width="2.4" height="2.5"/><rect class="cls-1" x="24.77" y="37.02" width="2.4" height="2.5"/><rect class="cls-1" x="19.5" y="37.02" width="2.39" height="2.5"/><rect class="cls-1" x="40.59" y="37.02" width="2.4" height="2.5"/><rect class="cls-1" x="35.32" y="37.02" width="2.39" height="2.5"/><rect class="cls-1" x="30.04" y="42.46" width="2.4" height="2.5"/><rect class="cls-1" x="24.77" y="42.46" width="2.4" height="2.5"/><rect class="cls-1" x="19.5" y="42.46" width="2.39" height="2.5"/><rect class="cls-1" x="35.32" y="42.46" width="2.39" height="2.5"/><rect class="cls-1" x="30.04" y="47.9" width="2.4" height="2.5"/><rect class="cls-1" x="24.77" y="47.9" width="2.4" height="2.5"/><rect class="cls-1" x="19.5" y="47.9" width="2.39" height="2.5"/><rect class="cls-1" x="35.32" y="47.9" width="2.39" height="2.5"/><rect class="cls-4" width="104" height="104"/></svg>