<svg id="Icons" xmlns="http://www.w3.org/2000/svg" viewBox="0 0 64 64"><defs><style>.cls-1{fill:#fdce00;}.cls-2{fill:#d7d7d7;}.cls-3{fill:none;}</style></defs><title>partnerships - 56x56 - dark bg</title><path class="cls-1" d="M37.37,37.88H35.29a3.16,3.16,0,0,0-.76.08,7.18,7.18,0,0,1,1.25,4v4.49H31.22v2.5h7.06v-7A9.69,9.69,0,0,0,37.37,37.88Zm-23.79-5.5A9.56,9.56,0,0,0,4,41.92v7H22.72v-2.5H6.5V41.94a7.1,7.1,0,0,1,7.08-7.06H24.92a12.12,12.12,0,0,1,2.24-2.5Z"/><path class="cls-2" d="M42.86,14.5a6,6,0,1,1-6,6,6,6,0,0,1,6-6m0-2.5a8.48,8.48,0,1,0,8.48,8.48A8.48,8.48,0,0,0,42.86,12Z"/><path class="cls-1" d="M21.14,14.5a6,6,0,1,1-6,6,6,6,0,0,1,6-6m0-2.5a8.48,8.48,0,1,0,8.48,8.48A8.48,8.48,0,0,0,21.14,12Z"/><path class="cls-2" d="M60,41.92v7H41.32v-2.5H57.5V41.92a7.1,7.1,0,0,0-7.08-7H35.3a7.11,7.11,0,0,0-7.08,7.06v7h-2.5v-7a9.57,9.57,0,0,1,9.58-9.54H50.42A9.56,9.56,0,0,1,60,41.92Z"/><rect class="cls-2" x="21.84" y="51.91" width="2.5" height="2.5"/><rect class="cls-2" x="27.78" y="51.91" width="2.5" height="2.5"/><rect class="cls-2" x="33.72" y="51.91" width="2.5" height="2.5"/><rect class="cls-2" x="39.66" y="51.91" width="2.5" height="2.5"/><rect class="cls-2" x="45.6" y="51.91" width="2.5" height="2.5"/><rect class="cls-2" x="51.54" y="51.91" width="2.5" height="2.5"/><rect class="cls-2" x="57.48" y="51.91" width="2.5" height="2.5"/><rect class="cls-2" x="15.9" y="51.91" width="2.5" height="2.5"/><rect class="cls-2" x="9.96" y="51.91" width="2.5" height="2.5"/><rect class="cls-2" x="4.02" y="51.91" width="2.5" height="2.5"/><rect class="cls-3" width="64" height="64"/></svg>