<svg width="169" height="38" viewBox="0 0 169 38" fill="none" xmlns="http://www.w3.org/2000/svg">
<g clip-path="url(#clip0)">
<path fill-rule="evenodd" clip-rule="evenodd" d="M1.29438 6.48375C0 9.025 0 12.35 0 19C0 25.65 0 28.975 1.29438 31.5163C2.43438 33.7488 4.25125 35.5656 6.48375 36.7056C9.025 38 12.35 38 19 38C25.65 38 28.975 38 31.5163 36.7056C33.7488 35.5656 35.5656 33.7488 36.7056 31.5163C38 28.975 38 25.65 38 19C38 12.35 38 9.025 36.7056 6.48375C35.5656 4.25125 33.7488 2.43438 31.5163 1.29438C28.975 0 25.65 0 19 0C12.35 0 9.025 0 6.48375 1.29438C4.25125 2.43438 2.43438 4.25125 1.29438 6.48375ZM28.4822 10.2481C28.8147 10.2481 29.1294 10.3847 29.361 10.6163C29.5925 10.8538 29.7232 11.1744 29.7172 11.5009C29.6579 15.0397 29.5213 17.7472 29.266 19.8906C29.0166 22.0341 28.6425 23.6253 28.0785 24.9138C27.6985 25.7747 27.2294 26.4872 26.6772 27.0928C25.935 27.8944 25.086 28.4763 24.1597 29.0285C23.7637 29.2653 23.352 29.4991 22.9201 29.7444C21.9986 30.2677 20.9854 30.8431 19.8372 31.6113C19.4216 31.8903 18.8813 31.8903 18.4657 31.6113C17.2999 30.8341 16.2733 30.2516 15.3434 29.7241C15.1366 29.6068 14.9346 29.4922 14.7369 29.3788C13.6504 28.7494 12.6707 28.1497 11.8157 27.2828C11.2457 26.7128 10.7529 26.0181 10.361 25.1928C9.82661 24.0884 9.46442 22.7525 9.19724 21.0247C8.84098 18.715 8.66286 15.6928 8.59755 11.5009C8.59161 11.1744 8.7163 10.8538 8.94786 10.6163C9.17942 10.3847 9.50005 10.2481 9.83255 10.2481H10.3432C11.9166 10.2541 15.39 10.0997 18.3944 7.76032C18.8397 7.41594 19.4632 7.41594 19.9085 7.76032C22.9129 10.0997 26.3863 10.2541 27.9657 10.2481H28.4822ZM25.7213 24.1241C26.1072 23.3284 26.4279 22.23 26.6713 20.6506C26.9622 18.7625 27.1404 16.1975 27.2235 12.7063C25.371 12.6528 22.1885 12.2966 19.1544 10.2541C16.1204 12.2906 12.9379 12.6469 11.0913 12.7063C11.1566 15.5919 11.2872 17.8363 11.495 19.5997C11.7325 21.6066 12.071 22.9663 12.4925 23.9222C12.7716 24.5575 13.0804 25.0147 13.4485 25.4184C13.9413 25.9588 14.5647 26.4041 15.4138 26.9147C15.766 27.126 16.1543 27.3458 16.577 27.5851C17.3301 28.0113 18.1923 28.4993 19.1544 29.1116C20.0988 28.5093 20.9486 28.0263 21.6929 27.6032C21.9173 27.4757 22.132 27.3536 22.3369 27.2353C23.3819 26.6356 24.1538 26.1369 24.7297 25.555C25.1157 25.1572 25.4304 24.7238 25.7213 24.1241Z" fill="#FFF"/>
</g>
<path d="M53.332 15.208H49.076V12.7H60.666V15.208H56.41V26H53.332V15.208ZM64.1515 17.127C64.5061 16.633 64.9811 16.2593 65.5765 16.006C66.1845 15.7527 66.8811 15.626 67.6665 15.626V18.362C67.3371 18.3367 67.1155 18.324 67.0015 18.324C66.1528 18.324 65.4878 18.5647 65.0065 19.046C64.5251 19.5147 64.2845 20.224 64.2845 21.174V26H61.3205V15.778H64.1515V17.127ZM79.2311 15.778V26H76.4191V24.784C76.0264 25.2273 75.5578 25.5693 75.0131 25.81C74.4684 26.038 73.8794 26.152 73.2461 26.152C71.9034 26.152 70.8394 25.7657 70.0541 24.993C69.2687 24.2203 68.8761 23.074 68.8761 21.554V15.778H71.8401V21.117C71.8401 22.7637 72.5304 23.587 73.9111 23.587C74.6204 23.587 75.1904 23.359 75.6211 22.903C76.0518 22.4343 76.2671 21.744 76.2671 20.832V15.778H79.2311ZM84.846 26.152C83.9974 26.152 83.1677 26.0507 82.357 25.848C81.5464 25.6327 80.9004 25.3667 80.419 25.05L81.407 22.922C81.863 23.2133 82.414 23.454 83.06 23.644C83.706 23.8213 84.3394 23.91 84.96 23.91C86.214 23.91 86.841 23.5997 86.841 22.979C86.841 22.6877 86.67 22.4787 86.328 22.352C85.986 22.2253 85.4604 22.1177 84.751 22.029C83.915 21.9023 83.2247 21.7567 82.68 21.592C82.1354 21.4273 81.6604 21.136 81.255 20.718C80.8624 20.3 80.666 19.7047 80.666 18.932C80.666 18.286 80.8497 17.716 81.217 17.222C81.597 16.7153 82.1417 16.3227 82.851 16.044C83.573 15.7653 84.4217 15.626 85.397 15.626C86.119 15.626 86.8347 15.7083 87.544 15.873C88.266 16.025 88.8614 16.2403 89.33 16.519L88.342 18.628C87.4427 18.1213 86.461 17.868 85.397 17.868C84.7637 17.868 84.2887 17.9567 83.972 18.134C83.6554 18.3113 83.497 18.5393 83.497 18.818C83.497 19.1347 83.668 19.3563 84.01 19.483C84.352 19.6097 84.8967 19.73 85.644 19.844C86.48 19.9833 87.164 20.1353 87.696 20.3C88.228 20.452 88.6904 20.737 89.083 21.155C89.4757 21.573 89.672 22.1557 89.672 22.903C89.672 23.5363 89.482 24.1 89.102 24.594C88.722 25.088 88.1647 25.4743 87.43 25.753C86.708 26.019 85.8467 26.152 84.846 26.152ZM97.5238 25.506C97.2325 25.7213 96.8715 25.886 96.4408 26C96.0228 26.1013 95.5795 26.152 95.1108 26.152C93.8948 26.152 92.9511 25.8417 92.2798 25.221C91.6211 24.6003 91.2918 23.6883 91.2918 22.485V18.286H89.7148V16.006H91.2918V13.517H94.2558V16.006H96.8018V18.286H94.2558V22.447C94.2558 22.8777 94.3635 23.2133 94.5788 23.454C94.8068 23.682 95.1235 23.796 95.5288 23.796C95.9975 23.796 96.3965 23.6693 96.7258 23.416L97.5238 25.506ZM123.739 12.7L119.388 26H116.082L113.156 16.994L110.135 26H106.848L102.478 12.7H105.67L108.672 22.048L111.807 12.7H114.657L117.697 22.124L120.794 12.7H123.739ZM128.041 15.626C129.624 15.626 130.84 16.006 131.689 16.766C132.538 17.5133 132.962 18.647 132.962 20.167V26H130.188V24.727C129.631 25.677 128.592 26.152 127.072 26.152C126.287 26.152 125.603 26.019 125.02 25.753C124.45 25.487 124.013 25.1197 123.709 24.651C123.405 24.1823 123.253 23.6503 123.253 23.055C123.253 22.105 123.608 21.3577 124.317 20.813C125.039 20.2683 126.147 19.996 127.642 19.996H129.998C129.998 19.35 129.802 18.856 129.409 18.514C129.016 18.1593 128.427 17.982 127.642 17.982C127.097 17.982 126.559 18.0707 126.027 18.248C125.508 18.4127 125.064 18.6407 124.697 18.932L123.633 16.861C124.19 16.4683 124.855 16.1643 125.628 15.949C126.413 15.7337 127.218 15.626 128.041 15.626ZM127.813 24.157C128.32 24.157 128.769 24.043 129.162 23.815C129.555 23.5743 129.833 23.226 129.998 22.77V21.725H127.965C126.749 21.725 126.141 22.124 126.141 22.922C126.141 23.302 126.287 23.606 126.578 23.834C126.882 24.0493 127.294 24.157 127.813 24.157ZM135.075 11.902H138.039V26H135.075V11.902ZM140.219 11.902H143.183V26H140.219V11.902ZM155.377 20.927C155.377 20.965 155.358 21.231 155.32 21.725H147.587C147.727 22.3583 148.056 22.8587 148.575 23.226C149.095 23.5933 149.741 23.777 150.513 23.777C151.045 23.777 151.514 23.701 151.919 23.549C152.337 23.3843 152.724 23.131 153.078 22.789L154.655 24.499C153.693 25.601 152.287 26.152 150.437 26.152C149.285 26.152 148.265 25.9303 147.378 25.487C146.492 25.031 145.808 24.404 145.326 23.606C144.845 22.808 144.604 21.9023 144.604 20.889C144.604 19.8883 144.839 18.989 145.307 18.191C145.789 17.3803 146.441 16.7533 147.264 16.31C148.1 15.854 149.031 15.626 150.057 15.626C151.058 15.626 151.964 15.8413 152.774 16.272C153.585 16.7027 154.218 17.3233 154.674 18.134C155.143 18.932 155.377 19.863 155.377 20.927ZM150.076 17.868C149.405 17.868 148.841 18.058 148.385 18.438C147.929 18.818 147.651 19.3373 147.549 19.996H152.584C152.483 19.35 152.204 18.837 151.748 18.457C151.292 18.0643 150.735 17.868 150.076 17.868ZM163.374 25.506C163.082 25.7213 162.721 25.886 162.291 26C161.873 26.1013 161.429 26.152 160.961 26.152C159.745 26.152 158.801 25.8417 158.13 25.221C157.471 24.6003 157.142 23.6883 157.142 22.485V18.286H155.565V16.006H157.142V13.517H160.106V16.006H162.652V18.286H160.106V22.447C160.106 22.8777 160.213 23.2133 160.429 23.454C160.657 23.682 160.973 23.796 161.379 23.796C161.847 23.796 162.246 23.6693 162.576 23.416L163.374 25.506Z" fill="#FFF"/>

</svg>
