<?xml version="1.0" encoding="UTF-8"?>
<svg width="200px" height="46px" viewBox="0 0 200 46" version="1.1" xmlns="http://www.w3.org/2000/svg" xmlns:xlink="http://www.w3.org/1999/xlink">
    <!-- Generator: Sketch 64 (93537) - https://sketch.com -->
    <title>wazirx-icon</title>
    <desc>Created with Sketch.</desc>
    <g id="页面-1" stroke="none" stroke-width="1" fill="none" fill-rule="evenodd">
        <g id="wazirx-icon" fill="#FFFFFF" fill-rule="nonzero">
            <polygon id="Fill-1" points="63.7530662 14.8427959 71.0521569 14.8427959 74.5758561 29.284065 78.4774035 14.8427959 84.392184 14.8427959 88.2934226 29.284065 91.8171213 14.8427959 99.1165218 14.8427959 91.8171213 38.1997884 85.3989554 38.1997884 81.308793 22.9424454 77.4075549 38.1371559 70.8635424 38.1371559"></polygon>
            <path d="M112.393502,32.3605557 C109.127061,32.3605557 106.478721,29.7182657 106.478721,26.4585979 C106.478721,23.1989302 109.127061,20.5563316 112.393502,20.5563316 C115.659942,20.5563316 118.308282,23.1989302 118.308282,26.4585979 C118.308282,29.7182657 115.659942,32.3605557 112.393502,32.3605557 L112.393502,32.3605557 Z M118.308282,14.7799474 L118.308282,17.2969724 C117.095581,15.1788826 115.086058,14.026506 111.890116,14.026506 C104.870238,14.026506 99.431014,19.4536291 99.431014,26.4585979 C99.431014,33.4632582 104.618236,39.141837 111.638424,39.141837 C115.008448,39.141837 117.077338,37.9357754 118.308282,35.772331 L118.308282,38.1369399 L125.230143,38.1369399 L125.230143,14.7799474 L118.308282,14.7799474 Z" id="Fill-2"></path>
            <polygon id="Fill-4" points="128.502057 14.7799783 145.869168 14.7799783 145.869168 20.3052153 136.807919 32.8628809 145.869168 32.8628809 145.869168 38.1369708 128.502057 38.1369708 128.502057 33.3651751 138.443922 20.0540682 128.502057 20.0540682"></polygon>
            <polygon id="Fill-6" points="149.015236 38.1370325 156.062943 38.1370325 156.062943 14.78004 149.015236 14.78004"></polygon>
            <path d="M167.640935,17.1638706 L167.640935,14.779824 L161.096922,14.779824 L161.096922,38.137125 L168.144321,38.137125 L168.144321,25.0142242 C168.144321,20.6820903 173.556025,21.058811 173.556025,21.058811 L173.556025,14.0263826 C170.136837,14.0263826 168.402507,15.9371372 167.640935,17.1638706" id="Fill-8"></path>
            <polygon id="Fill-9" points="174.436795 14.7799783 182.868813 14.7799783 186.643895 20.9330832 190.419596 14.7799783 198.851305 14.7799783 190.797135 25.7051874 199.732539 37.7602501 199.732539 38.1369708 191.300521 38.1369708 186.643895 30.9792773 181.987888 38.1369708 173.55587 38.1369708 173.55587 37.7602501 182.365427 25.7051874"></polygon>
            <path d="M155.559588,9.63130767 C155.559588,7.96676366 154.207126,6.61754201 152.538966,6.61754201 C150.871114,6.61754201 149.518961,7.96676366 149.518961,9.63130767 C149.518961,11.2958517 150.871114,12.6450733 152.538966,12.6450733 C154.207126,12.6450733 155.559588,11.2958517 155.559588,9.63130767" id="Fill-10"></path>
            <g id="Wazir-Logo-Updated/Solo/White">
                <g id="Group-7">
                    <polygon id="Path" points="2.10238035 45.08281 49.8837519 45.08281 49.8837519 39.4630691 2.10238035 39.4630691"></polygon>
                    <polygon id="Path" points="11.7860716 17.2761282 0 9.11646852 2.16666792 33.4686789"></polygon>
                    <polygon id="Path" points="16.8190428 36.465874 49.9320958 36.465874 52.3046747 9.74088416"></polygon>
                    <polygon id="Path" points="37.2694698 16.772615 11.344439 36.2785493 4.2047607 36.2785493 17.3782833 14.075477 25.7870107 0"></polygon>
                </g>
            </g>
        </g>
    </g>
</svg>